<svg xmlns="http://www.w3.org/2000/svg" viewBox="0 0 35.97 36.65"><defs><style>.cls-1,.cls-2{fill:#004a98;}.cls-2{stroke:#004a98;stroke-linecap:round;stroke-miterlimit:10;stroke-width:0.5px;}</style></defs><g id="Layer_2" data-name="Layer 2"><g id="Layer_1-2" data-name="Layer 1"><polygon class="cls-1" points="23.51 2.95 33.02 2.95 33.02 11.72 35.97 14.44 35.97 0 20.31 0 23.51 2.95"/><polygon class="cls-1" points="12.46 33.7 2.95 33.7 2.95 15.88 0 13.16 0 36.65 15.66 36.65 12.46 33.7"/><polygon class="cls-1" points="12.42 36.65 35.97 36.65 35.97 18.45 33.02 15.73 33.02 33.7 9.22 33.7 12.42 36.65"/><polygon class="cls-1" points="2.95 20.64 2.95 2.95 19.15 2.95 15.95 0 0 0 0 17.92 2.95 20.64"/><path class="cls-2" d="M30.12,16.38H20.56V6.76a.38.38,0,0,0-.38-.38H7a.38.38,0,0,0-.38.38V17.34a.38.38,0,0,0,.76,0V7.14H19.8V28.33H9.16V26.86a3.32,3.32,0,0,0,2.93-3.28c0-1.69-2.7-5.47-3-5.9a.39.39,0,0,0-.61,0c-.31.43-3,4.21-3,5.9A3.31,3.31,0,0,0,8.4,26.86v3.8H5.84a.38.38,0,0,0,0,.76H30.12A.38.38,0,0,0,30.5,31V16.76A.38.38,0,0,0,30.12,16.38ZM19.8,29.09v1.55H9.16V29.09ZM6.22,23.58c0-1.09,1.63-3.68,2.56-5,.92,1.34,2.55,3.93,2.55,5a2.55,2.55,0,0,1-2.17,2.51V23.9a.38.38,0,0,0-.76,0v2.19A2.55,2.55,0,0,1,6.22,23.58Zm17.61,7.06v-5.8h2.65v5.8Zm5.92,0H27.24v-6.2a.38.38,0,0,0-.38-.38H23.45a.38.38,0,0,0-.38.38v6.2H20.56V17.14h9.19Z"/><path class="cls-2" d="M9.42,12.16h2.93a.38.38,0,0,0,.38-.38v-3a.38.38,0,0,0-.38-.38H9.42A.38.38,0,0,0,9,8.79v3A.38.38,0,0,0,9.42,12.16Zm.38-3H12V11.4H9.8Z"/><path class="cls-2" d="M14.85,12.16h2.93a.38.38,0,0,0,.38-.38v-3a.38.38,0,0,0-.38-.38H14.85a.38.38,0,0,0-.38.38v3A.38.38,0,0,0,14.85,12.16Zm.37-3H17.4V11.4H15.22Z"/><path class="cls-2" d="M9,16.76a.38.38,0,0,0,.38.38h2.93a.38.38,0,0,0,.38-.38v-3a.38.38,0,0,0-.38-.38H9.42a.38.38,0,0,0-.38.38Zm.76-2.62H12v2.24H9.8Z"/><path class="cls-2" d="M14.47,16.76a.38.38,0,0,0,.38.38h2.93a.38.38,0,0,0,.38-.38v-3a.38.38,0,0,0-.38-.38H14.85a.38.38,0,0,0-.38.38Zm.75-2.62H17.4v2.24H15.22Z"/><path class="cls-2" d="M14.47,21.65a.38.38,0,0,0,.38.37h2.93a.38.38,0,0,0,.38-.37v-3a.38.38,0,0,0-.38-.38H14.85a.38.38,0,0,0-.38.38ZM15.22,19H17.4v2.24H15.22Z"/><path class="cls-2" d="M14.47,26.53a.38.38,0,0,0,.38.38h2.93a.38.38,0,0,0,.38-.38v-3a.38.38,0,0,0-.38-.38H14.85a.38.38,0,0,0-.38.38Zm.75-2.61H17.4v2.23H15.22Z"/><path class="cls-2" d="M22,21.76h2.47a.38.38,0,0,0,.38-.38V18.91a.38.38,0,0,0-.38-.38H22a.38.38,0,0,0-.38.38v2.47A.38.38,0,0,0,22,21.76Zm.38-2.47h1.71V21H22.36Z"/><path class="cls-2" d="M26,21.76h2.47a.38.38,0,0,0,.38-.38V18.91a.38.38,0,0,0-.38-.38H26a.38.38,0,0,0-.38.38v2.47A.38.38,0,0,0,26,21.76Zm.38-2.47H28V21H26.33Z"/></g></g></svg>