<svg xmlns="http://www.w3.org/2000/svg" viewBox="0 0 35.97 36.65"><defs><style>.cls-1,.cls-2,.cls-4{fill:#004a98;}.cls-2,.cls-4{stroke:#004a98;stroke-miterlimit:10;}.cls-2{stroke-width:0.5px;}.cls-3{fill:#fff;}.cls-4{stroke-width:0.25px;}</style></defs><g id="Layer_2" data-name="Layer 2"><g id="Layer_1-2" data-name="Layer 1"><polygon class="cls-1" points="23.51 2.95 33.02 2.95 33.02 11.72 35.97 14.44 35.97 0 20.31 0 23.51 2.95"/><polygon class="cls-1" points="12.46 33.7 2.95 33.7 2.95 15.88 0 13.16 0 36.65 15.66 36.65 12.46 33.7"/><polygon class="cls-1" points="12.42 36.65 35.97 36.65 35.97 18.45 33.02 15.73 33.02 33.7 9.22 33.7 12.42 36.65"/><polygon class="cls-1" points="2.95 20.64 2.95 2.95 19.15 2.95 15.95 0 0 0 0 17.92 2.95 20.64"/><polygon class="cls-2" points="27.23 29.52 10.28 29.52 10.28 26.22 11.22 26.22 11.22 28.57 26.29 28.57 26.29 11.34 22.8 7.85 11.22 7.85 11.22 13.03 10.28 13.03 10.28 6.91 23.19 6.91 27.23 10.95 27.23 29.52"/><rect class="cls-3" x="25.48" y="15.37" width="5.13" height="8.05"/><polygon class="cls-2" points="26.76 11.62 22.52 11.62 22.52 7.38 23.47 7.38 23.47 10.68 26.76 10.68 26.76 11.62"/><path class="cls-4" d="M14,26.7H5.6a1,1,0,0,1-1-1.05v-12a1,1,0,0,1,1-1H14a1,1,0,0,1,1,1v12A1,1,0,0,1,14,26.7Zm-8.39-.94H14a.2.2,0,0,0,.05-.13v-12A.11.11,0,0,0,14,13.5H5.6a.19.19,0,0,0,0,.11v12A.16.16,0,0,0,5.61,25.76Z"/><path class="cls-4" d="M13.11,18.21H6.51V14h6.6Zm-5.66-.94h4.71V14.92H7.45Z"/><rect class="cls-4" x="7.92" y="15.39" width="2.35" height="0.94"/><rect class="cls-4" x="11.22" y="18.68" width="1.88" height="0.94"/><rect class="cls-4" x="6.51" y="18.68" width="1.88" height="0.94"/><rect class="cls-4" x="8.87" y="18.68" width="1.88" height="0.94"/><rect class="cls-4" x="6.51" y="20.1" width="0.94" height="0.94"/><rect class="cls-4" x="8.4" y="20.1" width="0.94" height="0.94"/><rect class="cls-4" x="10.28" y="20.1" width="0.94" height="0.94"/><rect class="cls-4" x="12.16" y="20.1" width="0.94" height="0.94"/><rect class="cls-4" x="6.51" y="21.98" width="0.94" height="0.94"/><rect class="cls-4" x="8.4" y="21.98" width="0.94" height="0.94"/><rect class="cls-4" x="10.28" y="21.98" width="0.94" height="0.94"/><rect class="cls-4" x="12.16" y="21.98" width="0.94" height="0.94"/><rect class="cls-4" x="6.51" y="23.86" width="0.94" height="0.94"/><rect class="cls-4" x="8.4" y="23.86" width="0.94" height="0.94"/><rect class="cls-4" x="10.28" y="23.86" width="0.94" height="0.94"/><rect class="cls-4" x="12.16" y="23.86" width="0.94" height="0.94"/><path class="cls-1" d="M19,16.92l-.73,2.21.8,2.68H17.75l-.52-2.1v2.1H16V16.92h1.27v1.9l.57-1.9Z"/><path class="cls-1" d="M19.28,16.92h.95a6.56,6.56,0,0,1,1.25.08,1,1,0,0,1,.49.28.83.83,0,0,1,.21.43,5.93,5.93,0,0,1,.05.93v1.72a3.37,3.37,0,0,1-.07.88.62.62,0,0,1-.21.34.79.79,0,0,1-.38.18,3.74,3.74,0,0,1-.69,0h-1.6Zm1.27.83V21c.19,0,.3,0,.34-.11a1.68,1.68,0,0,0,.06-.6v-1.9a2,2,0,0,0,0-.42.18.18,0,0,0-.09-.14A.62.62,0,0,0,20.55,17.75Z"/><path class="cls-1" d="M22.67,16.14V27.51h2.7V22.64h6v-6.5Zm6.5,2.05v2.43"/><polyline class="cls-3" points="29.18 20.62 22.41 20.62 22.41 18.19 29.18 18.19"/><rect class="cls-3" x="21.73" y="28.13" width="4.51" height="3.52"/><rect class="cls-1" x="22.55" y="28.67" width="2.52" height="2.52"/></g></g></svg>