<svg xmlns="http://www.w3.org/2000/svg" viewBox="0 0 35.97 36.65"><defs><style>.cls-1,.cls-2{fill:#004a98;}.cls-2{stroke:#004a98;stroke-miterlimit:10;stroke-width:0.5px;}</style></defs><g id="Layer_2" data-name="Layer 2"><g id="Layer_1-2" data-name="Layer 1"><polygon class="cls-1" points="23.51 2.95 33.02 2.95 33.02 11.72 35.97 14.44 35.97 0 20.31 0 23.51 2.95"/><polygon class="cls-1" points="12.46 33.7 2.95 33.7 2.95 15.88 0 13.16 0 36.65 15.66 36.65 12.46 33.7"/><polygon class="cls-1" points="12.42 36.65 35.97 36.65 35.97 18.45 33.02 15.73 33.02 33.7 9.22 33.7 12.42 36.65"/><polygon class="cls-1" points="2.95 20.64 2.95 2.95 19.15 2.95 15.95 0 0 0 0 17.92 2.95 20.64"/><path class="cls-2" d="M23.31,13.15l-.87-.64v-.38a.24.24,0,0,0-.24-.24H22v-.41a.45.45,0,0,0-.14-.33.48.48,0,0,0-.34-.14H21a.51.51,0,0,0-.33.13.48.48,0,0,0-.14.34v.41h-.24a.24.24,0,0,0-.24.24l0,5.66a.25.25,0,0,0,.18.23l.05,8h0v0h0l.81,2.84a.24.24,0,0,0,.23.18.2.2,0,0,0,.11,0,.24.24,0,0,0,.13-.15l.77-2.85h0v0h0v0h0l-.05-8h0l.07-.05a.21.21,0,0,0,.06-.17l0-4.67.49.36,0,3.62a.25.25,0,0,0,.25.24.19.19,0,0,0,.1,0,.22.22,0,0,0,.13-.22l0-3.73A.26.26,0,0,0,23.31,13.15ZM21,11.5h.5v.4H21Zm1,6.05h-.07l0,0h0l0,0h0l0,0h0v0h0a0,0,0,0,0,0,0h0v0h0L21.87,26l-.54,2-.49-1.71.57,0,.1,0a.24.24,0,0,0,.13-.22.24.24,0,0,0-.24-.24l-.64,0L20.71,18l.65,0a.24.24,0,0,0,0-.48l-.82,0,0-5.17H22Z"/><polygon class="cls-2" points="29.27 30.55 12.31 30.55 12.31 27.25 13.25 27.25 13.25 29.61 28.32 29.61 28.32 12.38 24.83 8.89 13.25 8.89 13.25 14.07 12.31 14.07 12.31 7.95 25.22 7.95 29.27 11.99 29.27 30.55"/><polygon class="cls-2" points="28.8 12.65 24.56 12.65 24.56 8.42 25.5 8.42 25.5 11.71 28.8 11.71 28.8 12.65"/><path class="cls-2" d="M17,26.74H6.92A1.53,1.53,0,0,1,5.4,25.22V15.13a1.53,1.53,0,0,1,1.52-1.52H17a1.53,1.53,0,0,1,1.52,1.52V25.22A1.53,1.53,0,0,1,17,26.74ZM6.92,14.12a1,1,0,0,0-1,1V25.22a1,1,0,0,0,1,1H17a1,1,0,0,0,1-1V15.13a1,1,0,0,0-1-1Z"/><path class="cls-2" d="M12,26.74a.26.26,0,0,1-.25-.26V13.87a.25.25,0,1,1,.5,0V26.48A.26.26,0,0,1,12,26.74Z"/><path class="cls-2" d="M18.27,20.43H5.65a.26.26,0,0,1-.25-.26.25.25,0,0,1,.25-.25H18.27a.25.25,0,0,1,.25.25A.26.26,0,0,1,18.27,20.43Z"/><path class="cls-2" d="M8.75,18.74a.26.26,0,0,1-.26-.26V15.65a.26.26,0,0,1,.26-.26.26.26,0,0,1,.25.26v2.83A.26.26,0,0,1,8.75,18.74Z"/><path class="cls-2" d="M10.17,17.32H7.33a.25.25,0,0,1-.25-.25.26.26,0,0,1,.25-.26h2.84a.26.26,0,0,1,.25.26A.25.25,0,0,1,10.17,17.32Z"/><path class="cls-2" d="M7.75,24.6a.25.25,0,0,1-.18-.08.25.25,0,0,1,0-.36l2-2a.25.25,0,0,1,.36.36l-2,2A.23.23,0,0,1,7.75,24.6Z"/><path class="cls-2" d="M9.75,24.6a.27.27,0,0,1-.18-.08l-2-2a.25.25,0,0,1,0-.36.24.24,0,0,1,.35,0l2,2a.25.25,0,0,1,0,.36A.25.25,0,0,1,9.75,24.6Z"/><path class="cls-2" d="M16.44,17.32H13.6a.25.25,0,0,1-.25-.25.26.26,0,0,1,.25-.26h2.84a.26.26,0,0,1,.25.26A.25.25,0,0,1,16.44,17.32Z"/><path class="cls-2" d="M14.08,24.62a.24.24,0,0,1-.18-.07.25.25,0,0,1,0-.36l2-2a.24.24,0,0,1,.35,0,.25.25,0,0,1,0,.36l-2,2A.26.26,0,0,1,14.08,24.62Z"/><path class="cls-2" d="M14.08,22.9a.51.51,0,1,1,0-1,.51.51,0,0,1,0,1Zm0-.5Z"/><path class="cls-2" d="M16,24.79a.51.51,0,0,1-.51-.51.51.51,0,0,1,1,0A.51.51,0,0,1,16,24.79Zm0-.51Z"/></g></g></svg>