<svg xmlns="http://www.w3.org/2000/svg" viewBox="0 0 35.97 36.65"><defs><style>.cls-1,.cls-2{fill:#004a98;}.cls-2{stroke:#004a98;stroke-miterlimit:10;stroke-width:0.25px;}</style></defs><g id="Layer_2" data-name="Layer 2"><g id="Layer_1-2" data-name="Layer 1"><polygon class="cls-1" points="23.51 2.95 33.02 2.95 33.02 11.72 35.97 14.44 35.97 0 20.31 0 23.51 2.95"/><polygon class="cls-1" points="12.46 33.7 2.95 33.7 2.95 15.88 0 13.16 0 36.65 15.66 36.65 12.46 33.7"/><polygon class="cls-1" points="12.42 36.65 35.97 36.65 35.97 18.45 33.02 15.73 33.02 33.7 9.22 33.7 12.42 36.65"/><polygon class="cls-1" points="2.95 20.64 2.95 2.95 19.15 2.95 15.95 0 0 0 0 17.92 2.95 20.64"/><polygon class="cls-2" points="28.18 30.48 11.22 30.48 11.22 27.18 12.17 27.18 12.17 29.54 27.24 29.54 27.24 12.31 23.75 8.81 12.17 8.81 12.17 13.99 11.22 13.99 11.22 7.87 24.14 7.87 28.18 11.92 28.18 30.48"/><polygon class="cls-2" points="27.71 12.58 23.47 12.58 23.47 8.34 24.41 8.34 24.41 11.64 27.71 11.64 27.71 12.58"/><path class="cls-2" d="M14.94,27.67H6.55a1,1,0,0,1-1-1.05v-12a1,1,0,0,1,1-1.05H15a1,1,0,0,1,1,1.05v12A1,1,0,0,1,14.94,27.67Zm-8.39-1h8.39s.05,0,.05-.13v-12a.16.16,0,0,0,0-.11H6.55a.15.15,0,0,0,0,.1V26.62A.13.13,0,0,0,6.55,26.72Z"/><path class="cls-2" d="M14.05,19.18H7.46V14.94h6.59ZM8.4,18.23h4.71V15.88H8.4Z"/><rect class="cls-2" x="8.87" y="16.35" width="2.35" height="0.94"/><rect class="cls-2" x="12.17" y="19.65" width="1.88" height="0.94"/><rect class="cls-2" x="7.46" y="19.65" width="1.88" height="0.94"/><rect class="cls-2" x="9.81" y="19.65" width="1.88" height="0.94"/><rect class="cls-2" x="7.46" y="21.06" width="0.94" height="0.94"/><rect class="cls-2" x="9.34" y="21.06" width="0.94" height="0.94"/><rect class="cls-2" x="11.22" y="21.06" width="0.94" height="0.94"/><rect class="cls-2" x="13.11" y="21.06" width="0.94" height="0.94"/><rect class="cls-2" x="7.46" y="22.94" width="0.94" height="0.94"/><rect class="cls-2" x="9.34" y="22.94" width="0.94" height="0.94"/><rect class="cls-2" x="11.22" y="22.94" width="0.94" height="0.94"/><rect class="cls-2" x="13.11" y="22.94" width="0.94" height="0.94"/><rect class="cls-2" x="7.46" y="24.83" width="0.94" height="0.94"/><rect class="cls-2" x="9.34" y="24.83" width="0.94" height="0.94"/><rect class="cls-2" x="11.22" y="24.83" width="0.94" height="0.94"/><rect class="cls-2" x="13.11" y="24.83" width="0.94" height="0.94"/><path class="cls-1" d="M21.19,17l-1,2.9,1.05,3.53H19.55l-.68-2.76v2.76H17.2V17h1.67v2.5l.75-2.5Z"/><path class="cls-1" d="M21.57,17h1.25a7.45,7.45,0,0,1,1.64.11,1.25,1.25,0,0,1,.65.36,1.18,1.18,0,0,1,.28.57,10.29,10.29,0,0,1,.05,1.23v2.25a4.9,4.9,0,0,1-.08,1.16.9.9,0,0,1-.28.46,1.35,1.35,0,0,1-.5.23,5,5,0,0,1-.9.06H21.57Zm1.67,1.1v4.23c.24,0,.39-.05.45-.14a2.31,2.31,0,0,0,.08-.79v-2.5a3.1,3.1,0,0,0,0-.56.25.25,0,0,0-.13-.18A.77.77,0,0,0,23.24,18.14Z"/></g></g></svg>