<svg xmlns="http://www.w3.org/2000/svg" viewBox="0 0 35.92 36.6"><defs><style>.cls-1{fill:none;stroke:#004a98;stroke-miterlimit:10;stroke-width:2.58px;}.cls-2{fill:#004a98;}</style></defs><g id="Layer_2" data-name="Layer 2"><g id="Layer_1-2" data-name="Layer 1"><line class="cls-1" x1="6.8" y1="14.87" x2="21.64" y2="29.72"/><line class="cls-1" x1="8.84" y1="12.15" x2="12.58" y2="15.89"/><line class="cls-1" x1="21.08" y1="24.39" x2="24.82" y2="28.13"/><path class="cls-2" d="M17.74,19.46V18.17l2.53-4.25a3.38,3.38,0,0,0,.56-1.53.8.8,0,0,0-.08-.36.46.46,0,0,0-.42-.23c-.35,0-.52.26-.52.76v1H17.74v-.67a3.42,3.42,0,0,1,.19-1.19,2,2,0,0,1,.54-.84,2.73,2.73,0,0,1,1.88-.59,3.24,3.24,0,0,1,1.62.38,2,2,0,0,1,1,1.87,3.71,3.71,0,0,1-.57,1.89L20.33,18h2.54v1.51Z"/><path class="cls-2" d="M29,16.32v1.51h-.71v1.63H26.09V17.83H23.48V16.42l2-5.94h2.79v5.84Zm-3.9,0h1.12V11.77h0Z"/><polygon class="cls-2" points="23.47 2.95 32.97 2.95 32.97 11.7 35.92 14.41 35.92 0 20.28 0 23.47 2.95"/><polygon class="cls-2" points="12.44 33.65 2.95 33.65 2.95 15.86 0 13.14 0 36.6 15.64 36.6 12.44 33.65"/><polygon class="cls-2" points="12.4 36.6 35.92 36.6 35.92 18.42 32.97 15.71 32.97 33.65 9.2 33.65 12.4 36.6"/><polygon class="cls-2" points="2.95 20.61 2.95 2.95 19.13 2.95 15.93 0 0 0 0 17.89 2.95 20.61"/></g></g></svg>