<svg xmlns="http://www.w3.org/2000/svg" viewBox="0 0 35.97 36.65"><defs><style>.cls-1,.cls-2{fill:#004a98;}.cls-2{stroke:#004a98;stroke-miterlimit:10;stroke-width:0.5px;}</style></defs><g id="Layer_2" data-name="Layer 2"><g id="Layer_1-2" data-name="Layer 1"><polygon class="cls-1" points="23.51 2.95 33.02 2.95 33.02 11.72 35.97 14.44 35.97 0 20.31 0 23.51 2.95"/><polygon class="cls-1" points="12.46 33.7 2.95 33.7 2.95 15.88 0 13.16 0 36.65 15.66 36.65 12.46 33.7"/><polygon class="cls-1" points="12.42 36.65 35.97 36.65 35.97 18.45 33.02 15.73 33.02 33.7 9.22 33.7 12.42 36.65"/><polygon class="cls-1" points="2.95 20.64 2.95 2.95 19.15 2.95 15.95 0 0 0 0 17.92 2.95 20.64"/><path class="cls-2" d="M10.15,20.33H7.6a2.06,2.06,0,0,1-2.06-2V8.57A2.06,2.06,0,0,1,7.6,6.52H24A2.05,2.05,0,0,1,26,8.57v8.69H25V8.57a1,1,0,0,0-1-1H7.6a1,1,0,0,0-1,1v9.71a1,1,0,0,0,1,1h2.55Z"/><path class="cls-2" d="M28,30.56H11.72a2.08,2.08,0,0,1-2.08-2.08V18.83a2.08,2.08,0,0,1,2.08-2.08H28a2.08,2.08,0,0,1,2.08,2.08v9.65A2.08,2.08,0,0,1,28,30.56ZM11.72,17.77a1.07,1.07,0,0,0-1.06,1.06v9.65a1.06,1.06,0,0,0,1.06,1.06H28a1.05,1.05,0,0,0,1.06-1.06V18.83A1.06,1.06,0,0,0,28,17.77Z"/><path class="cls-2" d="M25.76,23.4a2.3,2.3,0,1,1,2.3-2.3A2.31,2.31,0,0,1,25.76,23.4Zm0-3.58A1.28,1.28,0,1,0,27,21.1,1.28,1.28,0,0,0,25.76,19.82Z"/><path class="cls-2" d="M21.92,22.38H11.68V19.82H21.92Zm-9.21-.82h8.18v-.92H12.71Z"/><rect class="cls-2" x="11.68" y="24.94" width="2.05" height="1.02"/><rect class="cls-2" x="15.27" y="24.94" width="2.05" height="1.02"/><rect class="cls-2" x="18.85" y="24.94" width="2.05" height="1.02"/><rect class="cls-2" x="22.43" y="24.94" width="2.05" height="1.02"/><rect class="cls-2" x="26.01" y="24.94" width="2.05" height="1.02"/><rect class="cls-2" x="24.48" y="26.98" width="3.58" height="1.02"/><rect class="cls-2" x="18.85" y="26.98" width="3.58" height="1.02"/><rect class="cls-2" x="6.06" y="10.1" width="19.44" height="1.02"/><rect class="cls-2" x="6.06" y="12.66" width="19.44" height="1.02"/></g></g></svg>