<svg xmlns="http://www.w3.org/2000/svg" viewBox="0 0 35.97 36.65"><defs><style>.cls-1,.cls-4,.cls-6{fill:#004a98;}.cls-2,.cls-3,.cls-5{fill:none;}.cls-2,.cls-3,.cls-4,.cls-5,.cls-6{stroke:#004a98;}.cls-2,.cls-4,.cls-6{stroke-miterlimit:10;}.cls-2,.cls-3{stroke-width:1.57px;}.cls-3,.cls-5{stroke-linecap:round;stroke-linejoin:round;}.cls-4{stroke-width:0.79px;}.cls-5{stroke-width:0.58px;}.cls-6{stroke-width:0.2px;}</style></defs><g id="Layer_2" data-name="Layer 2"><g id="Layer_1-2" data-name="Layer 1"><polygon class="cls-1" points="23.51 2.95 33.02 2.95 33.02 11.72 35.97 14.44 35.97 0 20.31 0 23.51 2.95"/><polygon class="cls-1" points="12.46 33.7 2.95 33.7 2.95 15.88 0 13.16 0 36.65 15.66 36.65 12.46 33.7"/><polygon class="cls-1" points="12.42 36.65 35.97 36.65 35.97 18.45 33.02 15.73 33.02 33.7 9.22 33.7 12.42 36.65"/><polygon class="cls-1" points="2.95 20.64 2.95 2.95 19.15 2.95 15.95 0 0 0 0 17.92 2.95 20.64"/><rect class="cls-2" x="5.76" y="11.59" width="24.45" height="15.33" rx="3.31"/><rect class="cls-3" x="8.18" y="18.95" width="4.05" height="5.55"/><rect class="cls-4" x="21.74" y="21.74" width="5.33" height="0.85"/><rect class="cls-4" x="14.27" y="14.92" width="12.8" height="0.85"/><rect class="cls-4" x="14.27" y="16.87" width="12.8" height="0.85"/><rect class="cls-4" x="21.74" y="23.45" width="5.33" height="0.85"/><rect class="cls-4" x="14.62" y="21.74" width="5.33" height="0.85"/><rect class="cls-4" x="14.62" y="23.45" width="5.33" height="0.85"/><rect class="cls-5" x="8.53" y="14.02" width="3.22" height="3.22"/><rect class="cls-5" x="8.53" y="14.02" width="3.22" height="3.22" transform="translate(-8.08 11.75) rotate(-45)"/><path class="cls-6" d="M11.91,24.41a1.85,1.85,0,0,0-1.17-1.62,1.28,1.28,0,0,0,.61-1.09,1.3,1.3,0,1,0-2.59,0,1.28,1.28,0,0,0,.61,1.09A1.88,1.88,0,0,0,8.2,24.41a.32.32,0,0,0,.08.2.27.27,0,0,0,.19.08h3.17a.28.28,0,0,0,.2-.08A.29.29,0,0,0,11.91,24.41ZM9.11,21.7a.95.95,0,1,1,1,.94A.94.94,0,0,1,9.11,21.7Zm-.55,2.64a1.51,1.51,0,0,1,3,0Z"/></g></g></svg>