<svg xmlns="http://www.w3.org/2000/svg" viewBox="0 0 35.97 36.65"><defs><style>.cls-1,.cls-2,.cls-3,.cls-4,.cls-5{fill:#004a98;}.cls-2,.cls-3,.cls-4,.cls-5{stroke:#004a98;stroke-miterlimit:10;}.cls-2{stroke-width:0.39px;}.cls-3{stroke-width:0.5px;}.cls-4{stroke-width:0.52px;}.cls-5{stroke-width:0.51px;}</style></defs><g id="Layer_2" data-name="Layer 2"><g id="Layer_1-2" data-name="Layer 1"><polygon class="cls-1" points="23.51 2.95 33.02 2.95 33.02 11.72 35.97 14.44 35.97 0 20.31 0 23.51 2.95"/><polygon class="cls-1" points="12.46 33.7 2.95 33.7 2.95 15.88 0 13.16 0 36.65 15.66 36.65 12.46 33.7"/><polygon class="cls-1" points="12.42 36.65 35.97 36.65 35.97 18.45 33.02 15.73 33.02 33.7 9.22 33.7 12.42 36.65"/><polygon class="cls-1" points="2.95 20.64 2.95 2.95 19.15 2.95 15.95 0 0 0 0 17.92 2.95 20.64"/><path class="cls-2" d="M26.49,20.45a.6.6,0,0,0-.6-.59.32.32,0,0,1-.2-.08.59.59,0,0,0-.83,0,.32.32,0,0,1-.2.08.6.6,0,0,0-.6.59.24.24,0,0,1-.08.2.6.6,0,0,0,0,.84.24.24,0,0,1,.08.2.6.6,0,0,0,.6.59.32.32,0,0,1,.2.08.54.54,0,0,0,.41.17.55.55,0,0,0,.42-.17.32.32,0,0,1,.2-.08.6.6,0,0,0,.6-.59.24.24,0,0,1,.08-.2.6.6,0,0,0,0-.84A.24.24,0,0,1,26.49,20.45Zm-.15.82a.59.59,0,0,0-.17.42.27.27,0,0,1-.28.27.6.6,0,0,0-.42.18.27.27,0,0,1-.39,0,.6.6,0,0,0-.42-.18.27.27,0,0,1-.28-.27.59.59,0,0,0-.17-.42.28.28,0,0,1-.09-.2.25.25,0,0,1,.09-.2.59.59,0,0,0,.17-.42.28.28,0,0,1,.28-.28.59.59,0,0,0,.42-.17.27.27,0,0,1,.19-.08.28.28,0,0,1,.2.08.59.59,0,0,0,.42.17.28.28,0,0,1,.28.28.59.59,0,0,0,.17.42.25.25,0,0,1,.09.2A.28.28,0,0,1,26.34,21.27Z"/><path class="cls-3" d="M27.59,19.83a1.07,1.07,0,0,0-1.08-1.07.63.63,0,0,1-.47-.2,1.07,1.07,0,0,0-1.53,0,.63.63,0,0,1-.47.2A1.07,1.07,0,0,0,23,19.83a.67.67,0,0,1-.2.48,1.09,1.09,0,0,0,0,1.52.67.67,0,0,1,.2.48,1.08,1.08,0,0,0,.81,1L23.16,25a.19.19,0,0,0,.05.2.19.19,0,0,0,.2.06l.61-.19.35.53a.2.2,0,0,0,.17.09h0a.21.21,0,0,0,.17-.13l.47-1.31.47,1.31a.21.21,0,0,0,.17.13h0a.2.2,0,0,0,.17-.09l.35-.53.61.19a.19.19,0,0,0,.2-.06.19.19,0,0,0,0-.2l-.6-1.67a1.07,1.07,0,0,0,.95-1.06.67.67,0,0,1,.2-.48,1.09,1.09,0,0,0,0-1.52A.67.67,0,0,1,27.59,19.83Zm-3.11,5.26-.21-.32a.18.18,0,0,0-.22-.08l-.37.11.5-1.4a.6.6,0,0,1,.33.18,1.09,1.09,0,0,0,.42.26Zm2.24-.29-.37-.11a.18.18,0,0,0-.22.08l-.21.32-.44-1.21a1.14,1.14,0,0,0,.56-.3.48.48,0,0,1,.2-.14Zm.78-3.25a1.07,1.07,0,0,0-.31.76.68.68,0,0,1-.68.67,1.05,1.05,0,0,0-.76.32.69.69,0,0,1-.95,0A1.05,1.05,0,0,0,24,23a.68.68,0,0,1-.68-.67,1.07,1.07,0,0,0-.31-.76.68.68,0,0,1,0-1,1.07,1.07,0,0,0,.31-.76.68.68,0,0,1,.68-.67,1.05,1.05,0,0,0,.76-.32.69.69,0,0,1,.95,0,1.05,1.05,0,0,0,.76.32.68.68,0,0,1,.68.67,1.07,1.07,0,0,0,.31.76.68.68,0,0,1,0,1Z"/><path class="cls-4" d="M29.87,9.52H6.13a.34.34,0,0,0-.32.35V27.5a.34.34,0,0,0,.32.35H29.87a.34.34,0,0,0,.32-.35V9.87A.34.34,0,0,0,29.87,9.52Zm-.32,17.63H6.45V10.22h23.1Z"/><path class="cls-5" d="M7.91,24.2a1.19,1.19,0,0,1,1.15,1.22.33.33,0,0,0,.32.34H22.24a.33.33,0,0,0,.32-.34.34.34,0,0,0-.32-.34H9.68a1.87,1.87,0,0,0-1.45-1.52V13.81a1.87,1.87,0,0,0,1.45-1.53H26.32a1.84,1.84,0,0,0,1.45,1.53v4.62a.32.32,0,1,0,.64,0V13.5a.33.33,0,0,0-.32-.34,1.19,1.19,0,0,1-1.16-1.22.33.33,0,0,0-.32-.34H9.38a.34.34,0,0,0-.32.34,1.19,1.19,0,0,1-1.15,1.22.34.34,0,0,0-.33.34V23.87A.33.33,0,0,0,7.91,24.2Z"/><path class="cls-3" d="M21.74,14.91a.32.32,0,0,0,0-.64H13.62a.32.32,0,0,0,0,.64Z"/><path class="cls-3" d="M26,16.64a.33.33,0,0,0-.33-.33H9.74a.33.33,0,0,0,0,.65H25.62A.33.33,0,0,0,26,16.64Z"/><path class="cls-3" d="M21.05,18.36H9.67a.32.32,0,0,0-.32.32.32.32,0,0,0,.32.32H21.05a.32.32,0,0,0,.32-.32A.32.32,0,0,0,21.05,18.36Z"/><path class="cls-3" d="M21.05,20.41H9.67a.32.32,0,1,0,0,.64H21.05a.32.32,0,0,0,0-.64Z"/><path class="cls-3" d="M21.05,22.45H14.31a.33.33,0,0,0,0,.65h6.74a.33.33,0,0,0,0-.65Z"/></g></g></svg>