<svg xmlns="http://www.w3.org/2000/svg" viewBox="0 0 35.92 36.6"><defs><style>.cls-1{fill:none;}.cls-1,.cls-3{stroke:#004a98;stroke-miterlimit:10;stroke-width:2px;}.cls-2{fill:#004a98;}.cls-3{fill:#fff;}</style></defs><g id="Layer_2" data-name="Layer 2"><g id="Layer_1-2" data-name="Layer 1"><rect class="cls-1" x="7.34" y="15.1" width="12.47" height="9.28"/><polygon class="cls-2" points="23.47 2.95 32.97 2.95 32.97 11.7 35.92 14.41 35.92 0 20.28 0 23.47 2.95"/><polygon class="cls-2" points="12.44 33.65 2.95 33.65 2.95 15.86 0 13.14 0 36.6 15.64 36.6 12.44 33.65"/><polygon class="cls-2" points="12.4 36.6 35.92 36.6 35.92 18.42 32.97 15.71 32.97 33.65 9.2 33.65 12.4 36.6"/><polygon class="cls-2" points="2.95 20.61 2.95 2.95 19.13 2.95 15.93 0 0 0 0 17.89 2.95 20.61"/><rect class="cls-3" x="12.79" y="8.09" width="14.66" height="10.91"/><polygon class="cls-2" points="6.36 31.27 6.36 24.45 10.11 24.45 6.36 31.27"/><polygon class="cls-2" points="28.45 26.27 28.45 19.45 24.7 19.45 28.45 26.27"/><rect class="cls-2" x="22.24" y="12.48" width="2.37" height="2.37"/><rect class="cls-2" x="18.88" y="12.48" width="2.37" height="2.37"/><rect class="cls-2" x="15.52" y="12.48" width="2.37" height="2.37"/></g></g></svg>