<svg xmlns="http://www.w3.org/2000/svg" viewBox="0 0 35.92 36.6"><defs><style>.cls-1{fill:#004a98;}.cls-2{fill:none;}.cls-2,.cls-3,.cls-4{stroke:#004a98;stroke-miterlimit:10;}.cls-2,.cls-3{stroke-width:2px;}.cls-3,.cls-4{fill:#fff;}.cls-4{stroke-width:1.05px;}</style></defs><g id="Layer_2" data-name="Layer 2"><g id="Layer_1-2" data-name="Layer 1"><polygon class="cls-1" points="23.47 2.95 32.97 2.95 32.97 11.7 35.92 14.41 35.92 0 20.28 0 23.47 2.95"/><polygon class="cls-1" points="12.44 33.65 2.95 33.65 2.95 15.86 0 13.14 0 36.6 15.64 36.6 12.44 33.65"/><polygon class="cls-1" points="12.4 36.6 35.92 36.6 35.92 18.42 32.97 15.71 32.97 33.65 9.2 33.65 12.4 36.6"/><polygon class="cls-1" points="2.95 20.61 2.95 2.95 19.13 2.95 15.93 0 0 0 0 17.89 2.95 20.61"/><polygon class="cls-2" points="10.35 27.99 25.38 27.99 25.38 14 20.2 14 20.2 8.82 10.35 8.82 10.35 27.99"/><polygon class="cls-1" points="21.18 7.84 20.2 14 26.34 13.05 21.18 7.84"/><rect class="cls-1" x="13.02" y="12.83" width="4.27" height="1.81"/><rect class="cls-1" x="13.02" y="16.33" width="9.07" height="1.81"/><rect class="cls-1" x="13.02" y="19.83" width="9.07" height="1.81"/><rect class="cls-1" x="13.02" y="23.32" width="9.07" height="1.81"/><rect class="cls-3" x="20.61" y="22.35" width="7.84" height="7.84"/><polyline class="cls-4" points="26.44 24.56 23.68 27.32 22.9 24.98"/></g></g></svg>