<svg xmlns="http://www.w3.org/2000/svg" viewBox="0 0 35.97 36.65"><defs><style>.cls-1,.cls-2{fill:#004a98;}.cls-2{stroke:#004a98;stroke-miterlimit:10;stroke-width:0.5px;}.cls-3{fill:#fff;}</style></defs><g id="Layer_2" data-name="Layer 2"><g id="Layer_1-2" data-name="Layer 1"><polygon class="cls-1" points="23.51 2.95 33.02 2.95 33.02 11.72 35.97 14.44 35.97 0 20.31 0 23.51 2.95"/><polygon class="cls-1" points="12.46 33.7 2.95 33.7 2.95 15.88 0 13.16 0 36.65 15.66 36.65 12.46 33.7"/><polygon class="cls-1" points="12.42 36.65 35.97 36.65 35.97 18.45 33.02 15.73 33.02 33.7 9.22 33.7 12.42 36.65"/><polygon class="cls-1" points="2.95 20.64 2.95 2.95 19.15 2.95 15.95 0 0 0 0 17.92 2.95 20.64"/><path class="cls-2" d="M5.35,24.05A.16.16,0,0,1,5.23,24a.18.18,0,0,1,0-.25A7.62,7.62,0,0,1,8,22.21v-3l-.1,0c-.17,0-.19-.13-.18-.2a.17.17,0,0,1,.18-.16h3a.18.18,0,0,1,.18.16c0,.17-.15.19-.21.2l-.22,0v3a8,8,0,0,1,2.84,1.54.18.18,0,0,1,0,.25.18.18,0,0,1-.25,0,7.55,7.55,0,0,0-2.82-1.49.18.18,0,0,1-.12-.17V19.19H8.39v3.15a.18.18,0,0,1-.12.17A7.75,7.75,0,0,0,5.48,24,.19.19,0,0,1,5.35,24.05Z"/><path class="cls-3" d="M5.62,18.06v0S5.56,18,5.62,18.06Z"/><path class="cls-2" d="M5.83,18.34l-.28-.12A.19.19,0,0,1,5.42,18a.18.18,0,0,1,.21-.14h.15Zm-.21-.28v.15a.17.17,0,0,0,.15-.13.16.16,0,0,0-.07-.18l-.07.16Z"/><path class="cls-3" d="M13.76,19.07a.84.84,0,0,1-.94.69c-.07,0,0,0-.08,0A2.47,2.47,0,0,1,12,21a3.78,3.78,0,0,1-2.59,1,3.85,3.85,0,0,1-2.48-.92A2.6,2.6,0,0,1,6,19.7s0,0-.08,0A.87.87,0,0,1,5,19a.77.77,0,0,1,.61-1c.08,0,0,0,0,0s0-.08,0-.13h0a3.84,3.84,0,0,1,.46-3.47c1.35-2,5.35-2,6.68,0a4.47,4.47,0,0,1,.37,3.62h0s-.1.05,0,.07h0A.82.82,0,0,1,13.76,19.07Z"/><path class="cls-2" d="M9.38,22.16a4,4,0,0,1-2.6-1,2.7,2.7,0,0,1-.87-1.29,1.08,1.08,0,0,1-1.08-.85A1,1,0,0,1,5,18.29a1,1,0,0,1,.46-.36,4,4,0,0,1,.5-3.6,4.22,4.22,0,0,1,3.54-1.56,4.1,4.1,0,0,1,3.43,1.56A4.54,4.54,0,0,1,13.32,18a1,1,0,0,1,.47.37,1,1,0,0,1,.14.75,1,1,0,0,1-1.07.84,2.67,2.67,0,0,1-.76,1.15A4,4,0,0,1,9.38,22.16Zm-3.22-2.7,0,.19A2.42,2.42,0,0,0,7,20.93a3.66,3.66,0,0,0,2.36.87,3.59,3.59,0,0,0,2.46-.94,2.35,2.35,0,0,0,.73-1.16l.06-.2.17.08h0a.67.67,0,0,0,.74-.55h0a.63.63,0,0,0-.1-.48.59.59,0,0,0-.4-.27H13l-.21.08.09-.24h0A.19.19,0,0,1,13,18a4.19,4.19,0,0,0-.36-3.42,3.76,3.76,0,0,0-3.14-1.4,3.88,3.88,0,0,0-3.24,1.4,3.65,3.65,0,0,0-.45,3.3l0,0v0h0a.18.18,0,0,1,0,.13s0,.17-.19.2a.58.58,0,0,0-.39.25.62.62,0,0,0-.08.48.71.71,0,0,0,.75.57H6Zm7-1.39.05.12a.11.11,0,0,0,0-.09Z"/><path class="cls-2" d="M9.38,23.9a1.91,1.91,0,0,1-1.81-1.14.18.18,0,0,1,.34-.12,1.52,1.52,0,0,0,1.47.9,1.55,1.55,0,0,0,1.48-.9.18.18,0,1,1,.33.12A1.9,1.9,0,0,1,9.38,23.9Z"/><path class="cls-3" d="M13.11,18.11l-.16.08a4.8,4.8,0,0,0-.78-3c-.9-1.08-1.59-.89-1.59-.89L9,14.08a2.74,2.74,0,0,0-2.38,1,4.36,4.36,0,0,0-.88,3.06l-.12-.23h0A4,4,0,0,1,6,14.25c1.34-1.95,5.34-2.12,6.83,0a4.56,4.56,0,0,1,.31,3.76h0S13,18.09,13.11,18.11Z"/><path class="cls-2" d="M13,18.36a.19.19,0,0,1-.1,0,.16.16,0,0,1-.07-.16A4.66,4.66,0,0,0,12,15.32c-.81-1-1.41-.83-1.41-.82h-.08L9,14.25a2.53,2.53,0,0,0-2.21.93,4.15,4.15,0,0,0-.84,2.93.18.18,0,0,1-.13.19.18.18,0,0,1-.21-.08L5.45,18v0a4.19,4.19,0,0,1-.27-1.21,4,4,0,0,1,.66-2.6,4.34,4.34,0,0,1,3.57-1.6h0A4.24,4.24,0,0,1,13,14.19,4.67,4.67,0,0,1,13.32,18a.18.18,0,0,1,0,.14.17.17,0,0,1-.1.12l-.15.07A.11.11,0,0,1,13,18.36Zm-2.24-4.23a2.21,2.21,0,0,1,1.6,1,4,4,0,0,1,.8,2.25,3.92,3.92,0,0,0-.44-3A3.89,3.89,0,0,0,9.41,12.9h0a4,4,0,0,0-3.28,1.45,3.72,3.72,0,0,0-.55,2.77A4.1,4.1,0,0,1,6.48,15,2.91,2.91,0,0,1,9,13.9l1.57.24Z"/><path class="cls-2" d="M9.37,20.86a1.09,1.09,0,0,1-.58-.17.17.17,0,1,1,.18-.3.8.8,0,0,0,.87,0,.17.17,0,0,1,.24,0,.17.17,0,0,1,0,.25A1.08,1.08,0,0,1,9.37,20.86Z"/><path class="cls-2" d="M9.39,19.83a.85.85,0,0,1-.41-.1.18.18,0,0,1,.17-.31.58.58,0,0,0,.47,0,.17.17,0,0,1,.23.08.16.16,0,0,1-.07.23A.82.82,0,0,1,9.39,19.83Z"/><path class="cls-3" d="M7.55,13.76a2.52,2.52,0,0,0,1.62,1.11,2.54,2.54,0,0,0,1.74-.09l-.64-.66a1.08,1.08,0,0,0,1.21-.07c.52-.38.23-1.41.23-1.41s-.11.61-.89.11a2.46,2.46,0,0,0-3.43.4"/><path class="cls-2" d="M10,15.15A3.2,3.2,0,0,1,9.13,15a2.69,2.69,0,0,1-1.74-1.2.18.18,0,0,1,.08-.23.17.17,0,0,1,.24.08,2.42,2.42,0,0,0,1.51,1,2.45,2.45,0,0,0,1.38,0l-.46-.47a.18.18,0,0,1,0-.23.19.19,0,0,1,.24,0,.91.91,0,0,0,1-.06,1,1,0,0,0,.24-.85l0,0a.88.88,0,0,1-.83-.19,2.3,2.3,0,0,0-3.2.37A.18.18,0,0,1,7.25,13a2.66,2.66,0,0,1,3.67-.43c.3.19.45.18.51.16a.25.25,0,0,0,.11-.16.16.16,0,0,1,.16-.14.17.17,0,0,1,.18.13c0,.05.32,1.15-.3,1.61a1.24,1.24,0,0,1-.74.25l.2.21a.2.2,0,0,1,.05.15.17.17,0,0,1-.1.12A2.17,2.17,0,0,1,10,15.15Z"/><path class="cls-2" d="M7.25,17.55a.18.18,0,0,1-.15-.1.17.17,0,0,1,.07-.24,1.33,1.33,0,0,1,1.13,0,.18.18,0,0,1,.07.24.18.18,0,0,1-.24.07.91.91,0,0,0-.79,0Z"/><path class="cls-2" d="M10.54,17.55a.18.18,0,0,1-.16-.1.19.19,0,0,1,.08-.24,1.3,1.3,0,0,1,1.12,0,.17.17,0,0,1-.16.31.93.93,0,0,0-.8,0Z"/><ellipse class="cls-2" cx="7.76" cy="18.36" rx="0.47" ry="0.48"/><ellipse class="cls-2" cx="11.04" cy="18.36" rx="0.47" ry="0.48"/><path class="cls-2" d="M22.56,24.05a.15.15,0,0,1-.12-.05.18.18,0,0,1,0-.25,7.78,7.78,0,0,1,2.81-1.54v-3l-.1,0c-.16,0-.19-.13-.18-.2a.18.18,0,0,1,.18-.16h3a.17.17,0,0,1,.18.16c0,.17-.15.19-.2.2l-.23,0v3a7.8,7.8,0,0,1,2.84,1.54.18.18,0,0,1-.25.25,7.55,7.55,0,0,0-2.82-1.49.18.18,0,0,1-.12-.17V19.19H25.6v3.15a.18.18,0,0,1-.12.17A7.75,7.75,0,0,0,22.69,24,.21.21,0,0,1,22.56,24.05Z"/><path class="cls-3" d="M22.83,18.06v0S22.77,18,22.83,18.06Z"/><path class="cls-2" d="M23,18.34l-.28-.12a.2.2,0,0,1-.14-.23.2.2,0,0,1,.22-.14H23Zm-.22-.28v.15a.17.17,0,0,0,.09-.31l-.07.16Z"/><path class="cls-3" d="M31,19.07a.84.84,0,0,1-.94.69c-.07,0,0,0-.08,0A2.54,2.54,0,0,1,29.18,21a3.79,3.79,0,0,1-2.59,1,3.85,3.85,0,0,1-2.48-.92,2.54,2.54,0,0,1-.86-1.36c-.05,0,0,0-.08,0a.88.88,0,0,1-1-.7.79.79,0,0,1,.62-1c.08,0,0,0,0,0s0-.08,0-.13h0a3.82,3.82,0,0,1,.47-3.47c1.34-2,5.35-2,6.67,0a4.43,4.43,0,0,1,.37,3.62h0s-.1.05,0,.07h0A.82.82,0,0,1,31,19.07Z"/><path class="cls-2" d="M26.59,22.16a4.06,4.06,0,0,1-2.61-1,2.76,2.76,0,0,1-.86-1.29A1.07,1.07,0,0,1,22,19.05a1,1,0,0,1,.14-.76,1,1,0,0,1,.46-.36,4,4,0,0,1,.49-3.6,4.25,4.25,0,0,1,3.54-1.56,4.07,4.07,0,0,1,3.43,1.56A4.55,4.55,0,0,1,30.53,18a1,1,0,0,1,.46.37,1,1,0,0,1,.15.75,1,1,0,0,1-1.07.84,2.67,2.67,0,0,1-.76,1.15A4,4,0,0,1,26.59,22.16Zm-3.23-2.7.06.19a2.36,2.36,0,0,0,.81,1.28,3.66,3.66,0,0,0,2.36.87,3.61,3.61,0,0,0,2.46-.94,2.35,2.35,0,0,0,.73-1.16l0-.2.18.08h0a.67.67,0,0,0,.73-.55h0a.58.58,0,0,0-.09-.48.61.61,0,0,0-.4-.27h-.06l-.21.08.08-.24h0a.2.2,0,0,1,.06-.16,4.19,4.19,0,0,0-.36-3.42,3.77,3.77,0,0,0-3.14-1.4,3.88,3.88,0,0,0-3.24,1.4,3.65,3.65,0,0,0-.45,3.3v.07h0a.2.2,0,0,1,.06.13.2.2,0,0,1-.19.2.54.54,0,0,0-.39.25.62.62,0,0,0-.08.48.7.7,0,0,0,.75.57h0Zm7-1.39.06.12a.16.16,0,0,0,0-.09Z"/><path class="cls-2" d="M26.59,23.9a1.9,1.9,0,0,1-1.81-1.14.17.17,0,0,1,.1-.22.17.17,0,0,1,.23.1,1.55,1.55,0,0,0,1.48.9,1.52,1.52,0,0,0,1.47-.9.18.18,0,0,1,.34.12A1.91,1.91,0,0,1,26.59,23.9Z"/><path class="cls-3" d="M30.31,18.11l-.15.08a4.8,4.8,0,0,0-.78-3c-.91-1.08-1.59-.89-1.59-.89l-1.6-.24a2.72,2.72,0,0,0-2.37,1,4.36,4.36,0,0,0-.88,3.06l-.13-.23h0a4,4,0,0,1,.37-3.65c1.34-1.95,5.35-2.12,6.84,0a4.58,4.58,0,0,1,.3,3.76h0S30.25,18.09,30.31,18.11Z"/><path class="cls-2" d="M30.16,18.36a.17.17,0,0,1-.1,0,.18.18,0,0,1-.08-.16,4.59,4.59,0,0,0-.74-2.85c-.8-1-1.4-.83-1.41-.82h-.07l-1.6-.25a2.54,2.54,0,0,0-2.21.93,4.21,4.21,0,0,0-.84,2.93.18.18,0,0,1-.12.19.18.18,0,0,1-.21-.08L22.66,18a0,0,0,0,1,0,0,4.42,4.42,0,0,1-.28-1.21,3.93,3.93,0,0,1,.67-2.6,4.31,4.31,0,0,1,3.57-1.6h0a4.21,4.21,0,0,1,3.55,1.64A4.59,4.59,0,0,1,30.52,18a.15.15,0,0,1,0,.14.16.16,0,0,1-.09.12l-.15.07A.12.12,0,0,1,30.16,18.36Zm-2.24-4.23a2.21,2.21,0,0,1,1.6,1,4.11,4.11,0,0,1,.8,2.25,4,4,0,0,0-.45-3,3.89,3.89,0,0,0-3.26-1.49h0a4,4,0,0,0-3.28,1.45,3.72,3.72,0,0,0-.55,2.77,4.16,4.16,0,0,1,.9-2.17,2.92,2.92,0,0,1,2.54-1l1.56.24Z"/><path class="cls-2" d="M26.58,20.86a1.06,1.06,0,0,1-.58-.17.17.17,0,0,1-.07-.24.19.19,0,0,1,.25-.06.77.77,0,0,0,.86,0,.18.18,0,0,1,.23.27A1.11,1.11,0,0,1,26.58,20.86Z"/><path class="cls-2" d="M26.59,19.83a.79.79,0,0,1-.4-.1.18.18,0,0,1-.08-.24.18.18,0,0,1,.24-.07.58.58,0,0,0,.47,0,.18.18,0,0,1,.24.08.17.17,0,0,1-.07.23A.88.88,0,0,1,26.59,19.83Z"/><path class="cls-3" d="M24.76,13.76a2.89,2.89,0,0,0,3.36,1l-.64-.66a1.06,1.06,0,0,0,1.2-.07c.53-.38.24-1.41.24-1.41s-.12.61-.89.11a2.46,2.46,0,0,0-3.43.4"/><path class="cls-2" d="M27.16,15.15a3.33,3.33,0,0,1-.83-.11,2.65,2.65,0,0,1-1.73-1.2.17.17,0,0,1,.08-.23.17.17,0,0,1,.24.08,2.83,2.83,0,0,0,2.88,1l-.45-.47a.17.17,0,0,1,0-.23.17.17,0,0,1,.23,0,.92.92,0,0,0,1-.06,1,1,0,0,0,.23-.85l0,0a.9.9,0,0,1-.84-.19,2.29,2.29,0,0,0-3.19.37.18.18,0,0,1-.28-.23,2.66,2.66,0,0,1,3.67-.43c.3.19.44.18.5.16a.21.21,0,0,0,.11-.16.18.18,0,0,1,.17-.14.18.18,0,0,1,.18.13c0,.05.31,1.15-.3,1.61a1.24,1.24,0,0,1-.74.25l.19.21a.17.17,0,0,1,.05.15.16.16,0,0,1-.09.12A2.22,2.22,0,0,1,27.16,15.15Z"/><path class="cls-2" d="M24.46,17.55a.19.19,0,0,1-.16-.1.19.19,0,0,1,.08-.24,1.3,1.3,0,0,1,1.12,0,.18.18,0,0,1,.08.24.18.18,0,0,1-.24.07.93.93,0,0,0-.8,0Z"/><path class="cls-2" d="M27.74,17.55a.18.18,0,0,1-.15-.1.18.18,0,0,1,.07-.24,1.32,1.32,0,0,1,1.13,0,.18.18,0,1,1-.17.31.91.91,0,0,0-.79,0Z"/><ellipse class="cls-2" cx="24.96" cy="18.36" rx="0.47" ry="0.48"/><ellipse class="cls-2" cx="28.25" cy="18.36" rx="0.47" ry="0.48"/><path class="cls-2" d="M12.67,27.06A.28.28,0,0,1,12.5,27a.26.26,0,0,1,0-.36,10.8,10.8,0,0,1,4-2.16V20.25l-.15,0c-.23-.06-.26-.19-.25-.29a.25.25,0,0,1,.26-.22h4.24a.24.24,0,0,1,.25.23c0,.23-.21.27-.28.28l-.32.05v4.2a11,11,0,0,1,4,2.16.25.25,0,1,1-.36.35,10.72,10.72,0,0,0-4-2.1.25.25,0,0,1-.17-.24V20.21H17v4.43a.24.24,0,0,1-.17.24A11,11,0,0,0,12.85,27,.25.25,0,0,1,12.67,27.06Z"/><path class="cls-3" d="M13.05,18.61v0S13,18.57,13.05,18.61Z"/><path class="cls-2" d="M13.35,19,13,18.84a.28.28,0,0,1-.2-.32.27.27,0,0,1,.31-.2h.21Zm-.3-.4,0,.21a.23.23,0,0,0,.21-.18.23.23,0,0,0-.09-.26l-.1.23Z"/><path class="cls-3" d="M24.53,20a1.21,1.21,0,0,1-1.33,1c-.09,0,0,0-.11,0A3.6,3.6,0,0,1,22,22.73a5.38,5.38,0,0,1-3.65,1.41,5.47,5.47,0,0,1-3.5-1.3,3.66,3.66,0,0,1-1.21-1.92c-.07,0,0,0-.11,0a1.24,1.24,0,0,1-1.34-1,1.09,1.09,0,0,1,.86-1.34c.11,0,0,0,0,0s0-.12,0-.18h0a5.39,5.39,0,0,1,.66-4.89c1.89-2.76,7.54-2.8,9.41,0a6.3,6.3,0,0,1,.52,5.1h0s-.14.07-.06.1h0A1.14,1.14,0,0,1,24.53,20Z"/><path class="cls-2" d="M18.35,24.39A5.7,5.7,0,0,1,14.68,23a3.88,3.88,0,0,1-1.22-1.82A1.51,1.51,0,0,1,11.94,20a1.34,1.34,0,0,1,.19-1.07,1.38,1.38,0,0,1,.65-.52,5.61,5.61,0,0,1,.7-5.07,5.94,5.94,0,0,1,5-2.19,5.74,5.74,0,0,1,4.84,2.19,6.45,6.45,0,0,1,.6,5.15,1.54,1.54,0,0,1,.66.53,1.37,1.37,0,0,1,.2,1.06,1.47,1.47,0,0,1-1.51,1.18,3.81,3.81,0,0,1-1.07,1.63A5.61,5.61,0,0,1,18.35,24.39Zm-4.54-3.81.07.27A3.4,3.4,0,0,0,15,22.66a5.14,5.14,0,0,0,6.79-.1,3.33,3.33,0,0,0,1-1.64l.08-.28.25.12h.06a.94.94,0,0,0,1-.78h0a.84.84,0,0,0-.13-.67.87.87,0,0,0-.56-.38H23.5l-.3.11.12-.34h0a.25.25,0,0,1,.08-.22,5.91,5.91,0,0,0-.51-4.83,5.29,5.29,0,0,0-4.42-2,5.43,5.43,0,0,0-4.57,2,5.17,5.17,0,0,0-.64,4.66l0,0v.07a.26.26,0,0,1,.08.18c0,.05,0,.23-.27.28a.81.81,0,0,0-.54.35.82.82,0,0,0-.12.68,1,1,0,0,0,1.06.8h.06Zm9.88-2,.08.18a.25.25,0,0,0,.05-.13Z"/><path class="cls-2" d="M18.35,26.84a2.69,2.69,0,0,1-2.55-1.6.26.26,0,0,1,.15-.32.24.24,0,0,1,.32.14,2.18,2.18,0,0,0,2.08,1.28,2.16,2.16,0,0,0,2.08-1.28.25.25,0,0,1,.33-.14.24.24,0,0,1,.14.32A2.68,2.68,0,0,1,18.35,26.84Z"/><path class="cls-3" d="M23.6,18.68l-.21.11a6.74,6.74,0,0,0-1.1-4.2C21,13.07,20,13.34,20,13.34L17.79,13a3.86,3.86,0,0,0-3.34,1.4,6.13,6.13,0,0,0-1.25,4.32L13,18.39h0a5.66,5.66,0,0,1,.52-5.14c1.89-2.76,7.54-3,9.64,0,1.54,2.24.44,5.25.43,5.3h0S23.52,18.65,23.6,18.68Z"/><path class="cls-2" d="M23.39,19a.23.23,0,0,1-.14,0,.22.22,0,0,1-.11-.22,6.58,6.58,0,0,0-1-4c-1.14-1.36-2-1.17-2-1.17H20l-2.24-.35a3.6,3.6,0,0,0-3.12,1.31,5.93,5.93,0,0,0-1.19,4.13.25.25,0,0,1-.17.27.28.28,0,0,1-.3-.12l-.17-.32,0-.05a6.32,6.32,0,0,1-.38-1.71,5.58,5.58,0,0,1,.93-3.65,6.1,6.1,0,0,1,5-2.26h0a5.94,5.94,0,0,1,5,2.31c1.42,2.06.73,4.69.51,5.38a.23.23,0,0,1,0,.21.25.25,0,0,1-.14.16L23.5,19A.22.22,0,0,1,23.39,19Zm-3.16-6a3,3,0,0,1,2.25,1.36,5.88,5.88,0,0,1,1.14,3.18A5.62,5.62,0,0,0,23,13.43a5.47,5.47,0,0,0-4.59-2.09h0a5.56,5.56,0,0,0-4.62,2,5.19,5.19,0,0,0-.78,3.9,5.8,5.8,0,0,1,1.28-3.05,4.09,4.09,0,0,1,3.57-1.49l2.21.35Z"/><path class="cls-2" d="M18.34,22.56a1.55,1.55,0,0,1-.82-.24.25.25,0,1,1,.25-.43A1.1,1.1,0,0,0,19,21.84a.25.25,0,0,1,.35,0,.24.24,0,0,1,0,.35A1.59,1.59,0,0,1,18.34,22.56Z"/><path class="cls-2" d="M18.36,21.11a1.29,1.29,0,0,1-.57-.14.25.25,0,0,1,.23-.45.73.73,0,0,0,.66,0,.26.26,0,0,1,.34.11.24.24,0,0,1-.11.33A1.17,1.17,0,0,1,18.36,21.11Z"/><path class="cls-3" d="M15.77,12.55a3.55,3.55,0,0,0,2.29,1.55A3.5,3.5,0,0,0,20.51,14l-.9-.93a1.52,1.52,0,0,0,1.7-.09c.73-.55.33-2,.33-2s-.16.87-1.25.16a3.48,3.48,0,0,0-4.84.56"/><path class="cls-2" d="M19.16,14.51A4.35,4.35,0,0,1,18,14.34a3.73,3.73,0,0,1-2.44-1.68.25.25,0,0,1,.11-.33.26.26,0,0,1,.34.11,3.36,3.36,0,0,0,2.13,1.42,3.48,3.48,0,0,0,1.94,0l-.64-.66a.25.25,0,0,1,0-.33.25.25,0,0,1,.33-.05,1.28,1.28,0,0,0,1.42-.08,1.37,1.37,0,0,0,.33-1.2l-.06,0a1.31,1.31,0,0,1-1.18-.26,3.21,3.21,0,0,0-4.51.51.24.24,0,0,1-.35,0,.25.25,0,0,1,0-.35,3.74,3.74,0,0,1,5.17-.61c.43.27.63.25.71.22a.3.3,0,0,0,.16-.21.25.25,0,0,1,.49,0c0,.07.44,1.63-.42,2.27a1.77,1.77,0,0,1-1.05.36l.28.29a.26.26,0,0,1,.07.21.27.27,0,0,1-.13.18A3.3,3.3,0,0,1,19.16,14.51Z"/><path class="cls-2" d="M15.35,17.89a.25.25,0,0,1-.22-.14.24.24,0,0,1,.11-.33,1.83,1.83,0,0,1,1.58,0,.25.25,0,1,1-.23.45,1.24,1.24,0,0,0-1.12,0A.27.27,0,0,1,15.35,17.89Z"/><path class="cls-2" d="M20,17.89a.25.25,0,0,1-.11-.47,1.83,1.83,0,0,1,1.58,0,.25.25,0,1,1-.23.45,1.24,1.24,0,0,0-1.12,0A.27.27,0,0,1,20,17.89Z"/><ellipse class="cls-2" cx="16.06" cy="19.03" rx="0.66" ry="0.68"/><ellipse class="cls-2" cx="20.69" cy="19.03" rx="0.66" ry="0.68"/></g></g></svg>