<svg xmlns="http://www.w3.org/2000/svg" viewBox="0 0 35.97 36.65"><defs><style>.cls-1,.cls-2{fill:#004a98;}.cls-2{stroke:#004a98;stroke-miterlimit:10;stroke-width:0.5px;}.cls-3{fill:#fff;}</style></defs><g id="Layer_2" data-name="Layer 2"><g id="Layer_1-2" data-name="Layer 1"><polygon class="cls-1" points="23.51 2.95 33.02 2.95 33.02 11.72 35.97 14.44 35.97 0 20.31 0 23.51 2.95"/><polygon class="cls-1" points="12.46 33.7 2.95 33.7 2.95 15.88 0 13.16 0 36.65 15.66 36.65 12.46 33.7"/><polygon class="cls-1" points="12.42 36.65 35.97 36.65 35.97 18.45 33.02 15.73 33.02 33.7 9.22 33.7 12.42 36.65"/><polygon class="cls-1" points="2.95 20.64 2.95 2.95 19.15 2.95 15.95 0 0 0 0 17.92 2.95 20.64"/><path class="cls-2" d="M9.57,30.42a.35.35,0,0,1-.25-.1.37.37,0,0,1,0-.53,16.17,16.17,0,0,1,5.86-3.21V20.34l-.2-.05c-.35-.08-.4-.27-.38-.43a.37.37,0,0,1,.38-.33h6.29a.37.37,0,0,1,.37.35c0,.34-.31.39-.42.41l-.48.08v6.21c2,.69,4.55,1.78,5.93,3.21a.38.38,0,0,1,0,.53.37.37,0,0,1-.52,0c-1.34-1.39-3.94-2.46-5.89-3.11a.37.37,0,0,1-.25-.35V20.27H15.91v6.58a.37.37,0,0,1-.25.35c-1.55.52-4.38,1.62-5.82,3.11A.39.39,0,0,1,9.57,30.42Z"/><path class="cls-3" d="M10.14,17.91v-.07C10.06,17.84,10,17.85,10.14,17.91Z"/><path class="cls-2" d="M10.58,18.5,10,18.25a.41.41,0,0,1-.29-.48.4.4,0,0,1,.46-.29l.3,0Zm-.45-.59,0,.3a.34.34,0,0,0,.32-.25.35.35,0,0,0-.14-.39l-.14.34Z"/><path class="cls-3" d="M27.13,20a1.78,1.78,0,0,1-2,1.44c-.13,0,0,0-.16,0A5.24,5.24,0,0,1,23.39,24,7.92,7.92,0,0,1,18,26.09a8,8,0,0,1-5.18-1.92A5.28,5.28,0,0,1,11,21.33c-.11,0,0,0-.17,0a1.83,1.83,0,0,1-2-1.47,1.61,1.61,0,0,1,1.29-2c.16,0,.07-.06,0-.07l0-.26h0a8,8,0,0,1,1-7.26c2.8-4.08,11.17-4.14,13.94,0,2.24,3.35.79,7.49.76,7.57l.06,0c-.05,0-.21.11-.08.15h0A1.69,1.69,0,0,1,27.13,20Z"/><path class="cls-2" d="M18,26.46a8.37,8.37,0,0,1-5.43-2,5.7,5.7,0,0,1-1.81-2.68A2.25,2.25,0,0,1,8.49,20a2,2,0,0,1,.28-1.59,2,2,0,0,1,1-.75,8.34,8.34,0,0,1,1-7.53c1.39-2,4.22-3.26,7.39-3.24S24,8.1,25.32,10.11c2,3,1.18,6.65.89,7.64a2.08,2.08,0,0,1,1,.78,2,2,0,0,1,.3,1.57,2.16,2.16,0,0,1-2.23,1.75,5.77,5.77,0,0,1-1.6,2.42A8.33,8.33,0,0,1,18,26.46Zm-6.73-5.63.11.4a5,5,0,0,0,1.7,2.67,7.65,7.65,0,0,0,10.07-.14,4.92,4.92,0,0,0,1.51-2.43l.13-.42.36.18h.1A1.41,1.41,0,0,0,26.77,20h0a1.34,1.34,0,0,0-.2-1,1.32,1.32,0,0,0-.83-.56h-.08l-.05,0-.44.16.18-.49h0a.39.39,0,0,1,.12-.32c.19-.59,1.23-4.2-.75-7.16-1.19-1.79-3.7-2.9-6.55-2.92s-5.53,1.1-6.78,2.92a7.68,7.68,0,0,0-.94,6.9l0,.07v.1a.47.47,0,0,1,.12.26c0,.08,0,.35-.4.41a1.22,1.22,0,0,0-.81.54,1.26,1.26,0,0,0-.18,1A1.48,1.48,0,0,0,10.78,21h.09Zm14.64-2.91.11.27a.28.28,0,0,0,.08-.2Z"/><path class="cls-2" d="M18,30.09a4,4,0,0,1-3.77-2.36.37.37,0,1,1,.69-.26A3.21,3.21,0,0,0,18,29.35a3.22,3.22,0,0,0,3.09-1.88.37.37,0,1,1,.69.26A4,4,0,0,1,18,30.09Z"/><path class="cls-3" d="M25.76,18l-.32.16s.3-3.92-1.62-6.22-3.33-1.85-3.33-1.85l-3.33-.51a5.73,5.73,0,0,0-5,2.07,9.11,9.11,0,0,0-1.84,6.4l-.26-.48h0A8.42,8.42,0,0,1,10.87,10C13.68,5.87,22,5.52,25.15,10c2.28,3.32.66,7.78.63,7.86l.06,0C25.79,17.89,25.63,18,25.76,18Z"/><path class="cls-2" d="M25.44,18.54a.31.31,0,0,1-.2-.07.36.36,0,0,1-.16-.33s.26-3.8-1.55-6-2.94-1.73-3-1.73a.26.26,0,0,1-.15,0L17.1,10a5.35,5.35,0,0,0-4.62,2A8.72,8.72,0,0,0,10.73,18a.37.37,0,0,1-.7.22l-.25-.47,0-.07a8.71,8.71,0,0,1-.57-2.53,8.15,8.15,0,0,1,1.39-5.41C12,7.68,14.84,6.4,18,6.4h0a8.83,8.83,0,0,1,7.41,3.42c2.1,3,1.08,7,.75,8a.35.35,0,0,1-.08.31.31.31,0,0,1-.19.24l-.32.16A.33.33,0,0,1,25.44,18.54ZM20.76,9.71c.61,0,1.87.25,3.34,2a8.56,8.56,0,0,1,1.68,4.71,8.25,8.25,0,0,0-.94-6.19A8.1,8.1,0,0,0,18,7.14h0c-3,0-5.57,1.16-6.86,3A7.66,7.66,0,0,0,10,15.93a8.55,8.55,0,0,1,1.89-4.51,6.08,6.08,0,0,1,5.3-2.2l3.26.51Z"/><path class="cls-2" d="M18,23.75a2.43,2.43,0,0,1-1.22-.34.36.36,0,0,1-.13-.51.37.37,0,0,1,.5-.13,1.61,1.61,0,0,0,1.81-.08.37.37,0,0,1,.52,0,.37.37,0,0,1,0,.52A2.43,2.43,0,0,1,18,23.75Z"/><path class="cls-2" d="M18,21.61a1.76,1.76,0,0,1-.84-.21.36.36,0,0,1-.15-.5.37.37,0,0,1,.5-.16,1.15,1.15,0,0,0,1,0,.36.36,0,0,1,.49.16.35.35,0,0,1-.15.49A1.75,1.75,0,0,1,18,21.61Z"/><path class="cls-3" d="M14.16,8.93a5.27,5.27,0,0,0,3.39,2.3,5.16,5.16,0,0,0,3.63-.18L19.84,9.67a2.28,2.28,0,0,0,2.52-.13c1.09-.81.49-3,.49-3s-.24,1.29-1.85.23c-2-1.33-5-1.79-7.17.83"/><path class="cls-2" d="M19.18,11.83a6.34,6.34,0,0,1-1.73-.24A5.55,5.55,0,0,1,13.83,9.1.38.38,0,0,1,14,8.6a.37.37,0,0,1,.49.17,5,5,0,0,0,3.16,2.11,5.26,5.26,0,0,0,2.87,0l-.94-1A.37.37,0,0,1,20,9.36a1.87,1.87,0,0,0,2.1-.12,2,2,0,0,0,.49-1.77l-.09,0a1.89,1.89,0,0,1-1.74-.39c-1.91-1.25-4.67-1.71-6.68.76a.37.37,0,0,1-.58-.47c2.33-2.85,5.58-2.27,7.66-.91.63.41.93.38,1.05.33a.5.5,0,0,0,.24-.32.37.37,0,0,1,.72,0c0,.1.65,2.4-.63,3.36a2.56,2.56,0,0,1-1.55.53l.41.43a.36.36,0,0,1,.1.31.33.33,0,0,1-.19.27A5,5,0,0,1,19.18,11.83Z"/><path class="cls-2" d="M13.54,16.84a.37.37,0,0,1-.17-.7,2.66,2.66,0,0,1,2.35,0,.35.35,0,0,1,.15.49.36.36,0,0,1-.5.16,1.91,1.91,0,0,0-1.66,0A.33.33,0,0,1,13.54,16.84Z"/><path class="cls-2" d="M20.4,16.84a.37.37,0,0,1-.17-.7,2.66,2.66,0,0,1,2.35,0,.35.35,0,0,1,.15.49.36.36,0,0,1-.5.16,1.91,1.91,0,0,0-1.66,0A.33.33,0,0,1,20.4,16.84Z"/><ellipse class="cls-2" cx="14.59" cy="18.53" rx="0.98" ry="1.01"/><ellipse class="cls-2" cx="21.45" cy="18.53" rx="0.98" ry="1.01"/></g></g></svg>