<svg xmlns="http://www.w3.org/2000/svg" viewBox="0 0 35.92 36.6"><defs><style>.cls-1{fill:#004a98;}.cls-2{fill:none;stroke:#004a98;stroke-miterlimit:10;stroke-width:2px;}</style></defs><g id="Layer_2" data-name="Layer 2"><g id="Layer_1-2" data-name="Layer 1"><polygon class="cls-1" points="23.47 2.95 32.97 2.95 32.97 11.7 35.92 14.41 35.92 0 20.28 0 23.47 2.95"/><polygon class="cls-1" points="12.44 33.65 2.95 33.65 2.95 15.86 0 13.14 0 36.6 15.64 36.6 12.44 33.65"/><polygon class="cls-1" points="12.4 36.6 35.92 36.6 35.92 18.42 32.97 15.71 32.97 33.65 9.2 33.65 12.4 36.6"/><polygon class="cls-1" points="2.95 20.61 2.95 2.95 19.13 2.95 15.93 0 0 0 0 17.89 2.95 20.61"/><path class="cls-1" d="M12.24,25.58v-1.3L14.76,20a3.3,3.3,0,0,0,.57-1.53.69.69,0,0,0-.09-.36.45.45,0,0,0-.41-.23c-.35,0-.52.25-.52.76v1H12.24V19a3.42,3.42,0,0,1,.19-1.19A2,2,0,0,1,13,17a2.72,2.72,0,0,1,1.88-.59,3.26,3.26,0,0,1,1.62.38,2,2,0,0,1,1,1.86,3.67,3.67,0,0,1-.58,1.9l-2.08,3.52h2.54v1.51Z"/><path class="cls-1" d="M23.46,22.44V24h-.71v1.63H20.59V24H18V22.53l2-5.93h2.8v5.84Zm-3.9,0h1.12V17.89h0Z"/><rect class="cls-2" x="6.9" y="11.83" width="21.78" height="17.7"/><polygon class="cls-1" points="24.35 14.87 21.77 14.87 21.77 6.11 24.35 8.36 24.35 14.87"/><polygon class="cls-1" points="14.15 14.87 11.57 14.87 11.57 6.11 14.15 8.36 14.15 14.87"/></g></g></svg>