<svg xmlns="http://www.w3.org/2000/svg" viewBox="0 0 35.97 36.65"><defs><style>.cls-1,.cls-2{fill:#004a98;}.cls-2{stroke:#004a98;stroke-miterlimit:10;stroke-width:0.5px;}</style></defs><g id="Layer_2" data-name="Layer 2"><g id="Layer_1-2" data-name="Layer 1"><polygon class="cls-1" points="23.51 2.95 33.02 2.95 33.02 11.72 35.97 14.44 35.97 0 20.31 0 23.51 2.95"/><polygon class="cls-1" points="12.46 33.7 2.95 33.7 2.95 15.88 0 13.16 0 36.65 15.66 36.65 12.46 33.7"/><polygon class="cls-1" points="12.42 36.65 35.97 36.65 35.97 18.45 33.02 15.73 33.02 33.7 9.22 33.7 12.42 36.65"/><polygon class="cls-1" points="2.95 20.64 2.95 2.95 19.15 2.95 15.95 0 0 0 0 17.92 2.95 20.64"/><path class="cls-2" d="M8.86,22.57H5.47a.87.87,0,0,1-.87-.87V13.26a.87.87,0,0,1,.87-.87H8.86a.87.87,0,0,1,.87.87V21.7A.87.87,0,0,1,8.86,22.57ZM5.67,21.5h3v-8h-3Z"/><path class="cls-2" d="M30.35,23.35H27a.86.86,0,0,1-.87-.86V14.05a.87.87,0,0,1,.87-.87h3.39a.87.87,0,0,1,.87.87v8.44A.86.86,0,0,1,30.35,23.35Zm-3.19-1.06h3v-8h-3Z"/><path class="cls-2" d="M24.55,24.67a2,2,0,0,1-1-.28l-4.49-2.73a.52.52,0,0,1-.17-.73.53.53,0,0,1,.73-.18l4.49,2.73a.86.86,0,0,0,1.11-.19.89.89,0,0,0,.2-.68A.87.87,0,0,0,25,22l-7.89-5.23a6.5,6.5,0,0,1-4.9.43,2.41,2.41,0,0,1-1.76-2.31.53.53,0,0,1,.32-.49c.22-.1,5.38-2.25,8.33-2.25a19.19,19.19,0,0,1,5.4,1.09,10.57,10.57,0,0,0,2.09.52.54.54,0,1,1,0,1.07,10.1,10.1,0,0,1-2.4-.57,18.37,18.37,0,0,0-5.09-1c-2.3,0-6.31,1.53-7.54,2a1.34,1.34,0,0,0,.93.94,5.38,5.38,0,0,0,4.36-.48.57.57,0,0,1,.58,0l8.15,5.41A1.93,1.93,0,0,1,26,24,1.91,1.91,0,0,1,24.55,24.67Z"/><path class="cls-2" d="M9.2,14a.54.54,0,1,1,0-1.07,9.79,9.79,0,0,0,2.66-.87,13.52,13.52,0,0,1,4.66-1.34c3.66,0,4.69,1.1,4.91,2a.54.54,0,0,1-.39.65.55.55,0,0,1-.65-.4c-.17-.75-1.62-1.19-3.87-1.19A12.89,12.89,0,0,0,12.27,13,9.9,9.9,0,0,1,9.2,14Z"/><path class="cls-2" d="M16.87,28.15a1.32,1.32,0,0,1-.64-.16l-2.52-1.27a9.78,9.78,0,0,1-2.76-2L8.81,22.4a.53.53,0,0,1,0-.75.53.53,0,0,1,.75,0l2.14,2.26a8.57,8.57,0,0,0,2.47,1.84L16.71,27a.35.35,0,0,0,.33-.62l-1.21-.69a.54.54,0,1,1,.53-.93l1.21.69a1.44,1.44,0,0,1,.71,1.09,1.42,1.42,0,0,1-.47,1.21A1.4,1.4,0,0,1,16.87,28.15Z"/><path class="cls-2" d="M20,27.66a1.49,1.49,0,0,1-.65-.14l-2.67-1.29a.55.55,0,0,1-.25-.71.53.53,0,0,1,.71-.25l2.68,1.29a.42.42,0,0,0,.5-.11.43.43,0,0,0,.1-.34.4.4,0,0,0-.2-.3l-2.93-1.74a.54.54,0,0,1,.55-.92l2.92,1.75a1.46,1.46,0,0,1,.71,1,1.49,1.49,0,0,1-.34,1.21A1.51,1.51,0,0,1,20,27.66Z"/><path class="cls-2" d="M21.81,26.13a1.92,1.92,0,0,1-.74-.15l-1.89-.81a.53.53,0,0,1,.42-1l1.89.81a.81.81,0,0,0,1-.31.82.82,0,0,0,.1-.61.78.78,0,0,0-.37-.5l-1.41-.86a.53.53,0,1,1,.55-.91l1.42.86a1.87,1.87,0,0,1,.61,2.58A1.86,1.86,0,0,1,21.81,26.13Z"/></g></g></svg>