<svg xmlns="http://www.w3.org/2000/svg" viewBox="0 0 35.97 36.65"><defs><style>.cls-1,.cls-4{fill:#004a98;}.cls-2,.cls-3{fill:none;}.cls-2,.cls-3,.cls-4{stroke:#004a98;stroke-miterlimit:10;}.cls-3{fill-rule:evenodd;}.cls-4{stroke-width:0.5px;}</style></defs><g id="Layer_2" data-name="Layer 2"><g id="Layer_1-2" data-name="Layer 1"><polygon class="cls-1" points="23.51 2.95 33.02 2.95 33.02 11.72 35.97 14.44 35.97 0 20.31 0 23.51 2.95"/><polygon class="cls-1" points="12.46 33.7 2.95 33.7 2.95 15.88 0 13.16 0 36.65 15.66 36.65 12.46 33.7"/><polygon class="cls-1" points="12.42 36.65 35.97 36.65 35.97 18.45 33.02 15.73 33.02 33.7 9.22 33.7 12.42 36.65"/><polygon class="cls-1" points="2.95 20.64 2.95 2.95 19.15 2.95 15.95 0 0 0 0 17.92 2.95 20.64"/><path class="cls-2" d="M11.68,18.41a5.16,5.16,0,0,1-.5,1.8"/><path class="cls-3" d="M9.81,12.91A11.12,11.12,0,0,0,12.32,19a3.54,3.54,0,0,0,2.22.56h.07"/><path class="cls-3" d="M18.55,8.66a4.51,4.51,0,0,0-3.94-2,4.48,4.48,0,0,0-3.94,2"/><path class="cls-3" d="M14.61,19.57h.07A3.54,3.54,0,0,0,16.9,19a11.12,11.12,0,0,0,2.51-6.1"/><path class="cls-2" d="M5.3,28.19a16.12,16.12,0,0,1,.32-4.51c.52-2,5.56-3.47,5.56-3.47S11.89,22,14.61,22,18,20.21,18,20.21a4.61,4.61,0,0,1-.57-1.76"/><path class="cls-2" d="M10.15,8.69A29.7,29.7,0,0,0,14.52,9a29.88,29.88,0,0,0,4.37-.33"/><path class="cls-2" d="M20.27,21c.56-.83,1.35-5.16.3-6.51s-1.48-3-2.81-2.95c-3.3.21-3.1-1.51-5.85-.53-1.64.58-2.12,2-3.27,3.48s-.26,5.68.3,6.51"/><line class="cls-2" x1="15.36" y1="24.77" x2="15.36" y2="25"/><line class="cls-2" x1="15.36" y1="27.1" x2="15.36" y2="27.33"/><path class="cls-2" d="M8.31,15.24a16.36,16.36,0,0,1,2.35-6.58"/><path class="cls-2" d="M20.9,15.24a16.36,16.36,0,0,0-2.35-6.58"/><path class="cls-2" d="M18.9,15.38a11.73,11.73,0,0,1-2.12,1.77c-.72.32-.51-.67-2.17-.67s-1.46,1-2.18.67a11.56,11.56,0,0,1-2.12-1.8"/><path class="cls-2" d="M15.19,17.89a1.82,1.82,0,0,0-.55-.07,1.94,1.94,0,0,0-.56.07"/><path class="cls-4" d="M25.13,28.41a.23.23,0,0,1-.15-.07l-4.21-3.93a.2.2,0,0,1-.07-.16.22.22,0,0,1,.07-.17l2.33-2.17a.23.23,0,0,1,.31,0l4.21,3.93a.24.24,0,0,1,.07.16.24.24,0,0,1-.07.17l-2.33,2.17A.26.26,0,0,1,25.13,28.41Zm-3.88-4.16,3.88,3.62,2-1.87-3.88-3.62Z"/><path class="cls-4" d="M24.24,29.24h-2a.22.22,0,0,1-.15-.06l-3.19-3a.21.21,0,0,1-.07-.17.2.2,0,0,1,.07-.16L25,20.12a.23.23,0,0,1,.31,0l4.21,3.93a.24.24,0,0,1,.07.17.24.24,0,0,1-.07.16l-5.14,4.8A.22.22,0,0,1,24.24,29.24Zm-1.95-.45h1.86L29,24.22l-3.87-3.63L19.34,26Z"/><path class="cls-4" d="M22.34,30.57a.22.22,0,0,1-.13,0,.24.24,0,0,1-.05-.32l.37-.5a.22.22,0,0,1,.31-.05.23.23,0,0,1,.05.32l-.36.5A.25.25,0,0,1,22.34,30.57Z"/><path class="cls-4" d="M26,30.82a.24.24,0,0,1-.18-.09l-.38-.49a.23.23,0,0,1,.36-.28l.38.49a.23.23,0,0,1,0,.32A.24.24,0,0,1,26,30.82Z"/><path class="cls-4" d="M24,30.87h0a.23.23,0,0,1-.2-.25l.07-.6a.23.23,0,0,1,.45.05l-.07.6A.22.22,0,0,1,24,30.87Z"/><path class="cls-4" d="M29.37,29.24H19a.22.22,0,0,1-.22-.22.22.22,0,0,1,.22-.23H29.37a.23.23,0,1,1,0,.45Z"/></g></g></svg>