<svg xmlns="http://www.w3.org/2000/svg" viewBox="0 0 35.97 36.65"><defs><style>.cls-1,.cls-4,.cls-5{fill:#004a98;}.cls-2{fill:none;stroke-linecap:square;stroke-linejoin:round;stroke-width:1.57px;}.cls-2,.cls-4,.cls-5{stroke:#004a98;}.cls-3{fill:#fff;}.cls-4,.cls-5{stroke-miterlimit:10;stroke-width:0.79px;}.cls-5{fill-rule:evenodd;}</style></defs><g id="Layer_2" data-name="Layer 2"><g id="Layer_1-2" data-name="Layer 1"><polygon class="cls-1" points="23.51 2.95 33.02 2.95 33.02 11.72 35.97 14.44 35.97 0 20.31 0 23.51 2.95"/><polygon class="cls-1" points="12.46 33.7 2.95 33.7 2.95 15.88 0 13.16 0 36.65 15.66 36.65 12.46 33.7"/><polygon class="cls-1" points="12.42 36.65 35.97 36.65 35.97 18.45 33.02 15.73 33.02 33.7 9.22 33.7 12.42 36.65"/><polygon class="cls-1" points="2.95 20.64 2.95 2.95 19.15 2.95 15.95 0 0 0 0 17.92 2.95 20.64"/><polyline class="cls-2" points="24.11 16.27 24.11 7.64 15.32 7.64 11.8 11.18 11.8 16.27"/><polygon class="cls-1" points="15.32 11.18 15.32 7.64 11.8 11.18 15.32 11.18"/><line class="cls-2" x1="11.8" y1="11.18" x2="11.79" y2="11.19"/><line class="cls-2" x1="21.98" y1="10.25" x2="16.92" y2="10.25"/><line class="cls-2" x1="21.98" y1="12.53" x2="13.93" y2="12.53"/><line class="cls-2" x1="21.98" y1="14.8" x2="13.93" y2="14.8"/><path class="cls-2" d="M26.93,27.09a1.08,1.08,0,0,1-1,.83H9.68A.67.67,0,0,1,9,27.09l2-10a1.11,1.11,0,0,1,1-.84H28.27a.67.67,0,0,1,.68.84Z"/><path class="cls-2" d="M25.28,13.08h.79a.83.83,0,0,1,.85.84v2.35"/><path class="cls-2" d="M9,27.29V11.89a.85.85,0,0,1,.85-.84h.68"/><rect class="cls-3" x="19.8" y="21.43" width="12.32" height="10.22"/><path class="cls-4" d="M30.32,27a.22.22,0,0,0-.23.23v3a.22.22,0,0,1-.23.23H21.59a.22.22,0,0,1-.23-.23v-3a.23.23,0,1,0-.46,0v3a.68.68,0,0,0,.69.69h8.27a.67.67,0,0,0,.68-.69v-3A.22.22,0,0,0,30.32,27Z"/><path class="cls-4" d="M29.86,30.89H21.59a.75.75,0,0,1-.52-.2.76.76,0,0,1-.21-.52v-3a.27.27,0,0,1,.54,0v3a.17.17,0,0,0,.19.19h8.27a.18.18,0,0,0,.19-.19v-3a.25.25,0,0,1,.27-.26.25.25,0,0,1,.26.26v3a.72.72,0,0,1-.21.52A.73.73,0,0,1,29.86,30.89ZM21.13,27a.18.18,0,0,0-.19.19v3a.64.64,0,0,0,.65.65h8.27a.64.64,0,0,0,.65-.65v-3a.18.18,0,0,0-.19-.19.19.19,0,0,0-.2.19v3a.25.25,0,0,1-.26.27H21.59a.26.26,0,0,1-.27-.27v-3A.18.18,0,0,0,21.13,27Z"/><path class="cls-4" d="M30.09,23.74H21.36a.68.68,0,0,0-.69.69V25.9a.68.68,0,0,0,.53.66l3.6.81v.73a.22.22,0,0,0,.23.23h1.38a.22.22,0,0,0,.23-.23v-.73l3.61-.81a.69.69,0,0,0,.52-.66V24.43A.67.67,0,0,0,30.09,23.74Zm-3.91,4.13h-.92V27h.92Zm4.14-2a.23.23,0,0,1-.19.23l-3.49.78v-.19a.22.22,0,0,0-.23-.23H25a.23.23,0,0,0-.23.23v.19l-3.49-.78a.23.23,0,0,1-.18-.23V24.43a.22.22,0,0,1,.23-.23h8.73a.22.22,0,0,1,.23.23Z"/><path class="cls-4" d="M26.41,28.37H25a.25.25,0,0,1-.26-.27v-.7l-3.58-.8a.74.74,0,0,1-.56-.7V24.43a.72.72,0,0,1,.73-.73h8.73a.74.74,0,0,1,.51.21.72.72,0,0,1,.21.52V25.9a.72.72,0,0,1-.56.7l-3.57.8v.7A.26.26,0,0,1,26.41,28.37Zm-5.05-4.59a.64.64,0,0,0-.65.65V25.9a.65.65,0,0,0,.5.63l3.63.81v.76a.18.18,0,0,0,.19.19h1.38a.17.17,0,0,0,.19-.19v-.76h0l3.61-.8a.65.65,0,0,0,.5-.63V24.43a.64.64,0,0,0-.65-.65Zm4.86,4.13h-1v-1h1Zm-.92-.07h.84V27H25.3ZM26.6,27v-.23a.18.18,0,0,0-.19-.19H25a.18.18,0,0,0-.19.19V27l-3.53-.79a.26.26,0,0,1-.22-.26V24.43a.26.26,0,0,1,.27-.27h8.73a.25.25,0,0,1,.26.27V25.9a.25.25,0,0,1-.21.26Zm-5.24-2.72a.18.18,0,0,0-.19.2V25.9a.18.18,0,0,0,.15.19l3.45.77v-.14a.25.25,0,0,1,.26-.26h1.38a.25.25,0,0,1,.27.26v.14l3.44-.77a.18.18,0,0,0,.16-.19V24.43a.19.19,0,0,0-.19-.2Z"/><path class="cls-4" d="M24.11,23.28a.22.22,0,0,0,.23-.23v-.23a.22.22,0,0,1,.23-.23h2.3a.22.22,0,0,1,.23.23v.23a.23.23,0,0,0,.46,0v-.23a.68.68,0,0,0-.69-.69h-2.3a.67.67,0,0,0-.68.69v.23A.21.21,0,0,0,24.11,23.28Z"/><path class="cls-4" d="M27.33,23.32a.26.26,0,0,1-.27-.27v-.23a.17.17,0,0,0-.19-.19h-2.3a.18.18,0,0,0-.19.19v.23a.27.27,0,1,1-.53,0v-.23a.72.72,0,0,1,.21-.52.74.74,0,0,1,.51-.21h2.3a.72.72,0,0,1,.73.73v.23A.26.26,0,0,1,27.33,23.32Zm-2.76-.77h2.3a.26.26,0,0,1,.27.27v.23a.19.19,0,0,0,.38,0v-.23a.64.64,0,0,0-.65-.65h-2.3a.64.64,0,0,0-.65.65v.23a.18.18,0,0,0,.19.19.18.18,0,0,0,.2-.19v-.23A.25.25,0,0,1,24.57,22.55Z"/><polygon class="cls-5" points="20.5 20.19 18.87 25.29 18.06 25.29 19.69 20.19 16.82 22.27 17.16 21.23 20.62 18.55 22.37 21.23 22.04 22.27 20.5 20.19"/></g></g></svg>