<svg xmlns="http://www.w3.org/2000/svg" viewBox="0 0 35.97 36.65"><defs><style>.cls-1,.cls-4{fill:#004a98;}.cls-2,.cls-3{fill:none;}.cls-2,.cls-3,.cls-4{stroke:#004a98;stroke-miterlimit:10;}.cls-3{fill-rule:evenodd;}.cls-4{stroke-width:0.5px;}</style></defs><g id="Layer_2" data-name="Layer 2"><g id="Layer_1-2" data-name="Layer 1"><polygon class="cls-1" points="23.51 2.95 33.02 2.95 33.02 11.72 35.97 14.44 35.97 0 20.31 0 23.51 2.95"/><polygon class="cls-1" points="12.46 33.7 2.95 33.7 2.95 15.88 0 13.16 0 36.65 15.66 36.65 12.46 33.7"/><polygon class="cls-1" points="12.42 36.65 35.97 36.65 35.97 18.45 33.02 15.73 33.02 33.7 9.22 33.7 12.42 36.65"/><polygon class="cls-1" points="2.95 20.64 2.95 2.95 19.15 2.95 15.95 0 0 0 0 17.92 2.95 20.64"/><path class="cls-2" d="M13.15,18.41a5.16,5.16,0,0,1-.5,1.8"/><path class="cls-3" d="M11.29,12.91A11,11,0,0,0,13.8,19a3.52,3.52,0,0,0,2.22.56h.06"/><path class="cls-3" d="M20,8.66a4.52,4.52,0,0,0-4-2,4.5,4.5,0,0,0-3.94,2"/><path class="cls-3" d="M16.08,19.57h.07A3.54,3.54,0,0,0,18.37,19a11,11,0,0,0,2.51-6.1"/><path class="cls-2" d="M6.77,28.19a16.32,16.32,0,0,1,.33-4.51c.51-2,5.55-3.47,5.55-3.47S13.37,22,16.08,22s3.42-1.77,3.42-1.77a4.45,4.45,0,0,1-.56-1.76"/><path class="cls-2" d="M11.63,8.69A29.65,29.65,0,0,0,16,9a29.7,29.7,0,0,0,4.37-.33"/><path class="cls-2" d="M21.74,21c.57-.83,1.35-5.16.31-6.51s-1.49-3-2.81-2.95c-3.3.21-3.11-1.51-5.85-.53-1.65.58-2.12,2-3.28,3.48s-.26,5.68.31,6.51"/><line class="cls-2" x1="16.84" y1="24.77" x2="16.84" y2="25"/><line class="cls-2" x1="16.84" y1="27.1" x2="16.84" y2="27.33"/><path class="cls-2" d="M9.78,15.24a16.36,16.36,0,0,1,2.35-6.58"/><path class="cls-2" d="M22.38,15.24A16.28,16.28,0,0,0,20,8.66"/><path class="cls-2" d="M20.38,15.38a11.9,11.9,0,0,1-2.13,1.77c-.72.32-.51-.67-2.17-.67s-1.45,1-2.17.67a11.72,11.72,0,0,1-2.13-1.8"/><path class="cls-2" d="M16.67,17.89a1.94,1.94,0,0,0-.56-.07,1.82,1.82,0,0,0-.55.07"/><path class="cls-4" d="M30.57,17.08l-.44-.9.16-.32a.23.23,0,0,0-.1-.3l-.2-.1.17-.33a.43.43,0,0,0-.19-.59l-.42-.21a.5.5,0,0,0-.34,0,.42.42,0,0,0-.25.22l-.17.33-.2-.1a.23.23,0,0,0-.3.1l-2.35,4.66a.22.22,0,0,0,0,.27l-3.32,6.57h0v0h0v0h0l-.54,2.68a.22.22,0,0,0,.12.24.19.19,0,0,0,.1,0,.25.25,0,0,0,.17-.08l1.83-2h0v0h0v0h0l3.32-6.57h.12a.28.28,0,0,0,.13-.11l1.94-3.84.25.49-1.51,3a.23.23,0,0,0,.1.3.18.18,0,0,0,.1,0,.22.22,0,0,0,.2-.12l1.55-3.08A.21.21,0,0,0,30.57,17.08Zm-1.22-2.35.41.21-.16.32-.42-.21Zm-1.71,5.4h-.18a0,0,0,0,1,0,0h0l0,0h0l0,0h0L24,27,22.7,28.39,23,26.77l.47.23a.18.18,0,0,0,.1,0,.22.22,0,0,0,.2-.12.23.23,0,0,0-.11-.3l-.53-.25L26.38,20l.54.26a.22.22,0,1,0,.19-.4l-.68-.33,2.16-4.26,1.2.61Z"/><path class="cls-4" d="M30,29.93H22.33a.22.22,0,1,0,0,.44H30a.22.22,0,1,0,0-.44Z"/></g></g></svg>