<svg xmlns="http://www.w3.org/2000/svg" viewBox="0 0 35.97 36.65"><defs><style>.cls-1,.cls-2{fill:#004a98;}.cls-2{stroke:#004a98;stroke-linecap:round;stroke-miterlimit:10;stroke-width:0.79px;}</style></defs><g id="Layer_2" data-name="Layer 2"><g id="Layer_1-2" data-name="Layer 1"><polygon class="cls-1" points="23.51 2.95 33.02 2.95 33.02 11.72 35.97 14.44 35.97 0 20.31 0 23.51 2.95"/><polygon class="cls-1" points="12.46 33.7 2.95 33.7 2.95 15.88 0 13.16 0 36.65 15.66 36.65 12.46 33.7"/><polygon class="cls-1" points="12.42 36.65 35.97 36.65 35.97 18.45 33.02 15.73 33.02 33.7 9.22 33.7 12.42 36.65"/><polygon class="cls-1" points="2.95 20.64 2.95 2.95 19.15 2.95 15.95 0 0 0 0 17.92 2.95 20.64"/><path class="cls-2" d="M13,19.33a.66.66,0,0,0-.45-.25l-1.94-.24L10,16.69a.89.89,0,0,0-.18-.33,1.69,1.69,0,0,0,.5.08,1.78,1.78,0,0,0,1.23-.51,1.75,1.75,0,1,0-2.66-.25l-.13-.07a1.54,1.54,0,0,0-1.2-.17,2.91,2.91,0,0,0-1.24,1.35,9.74,9.74,0,0,0-.86,2.34,4.36,4.36,0,0,0-.1,1.58,3.58,3.58,0,0,0,.23.88.76.76,0,0,1,.07.19l-.32,5.73a.89.89,0,0,0,.85.95h0a.92.92,0,0,0,.91-.86l.27-4.73h.1L8,25.08v2.51a.91.91,0,0,0,1.82,0V24.93l0-.17-.61-3.09a.45.45,0,0,0,0-.11A8.71,8.71,0,0,1,9,19.49a.89.89,0,0,0,.39.48.8.8,0,0,0,.32.13l2.12.25v8h.36v-8l.19,0a.67.67,0,0,0,.75-.59A.62.62,0,0,0,13,19.33Zm-2.68-6A1.38,1.38,0,1,1,9,14.7,1.38,1.38,0,0,1,10.33,13.32Zm2.47,6.47a.33.33,0,0,1-.36.28l-2.66-.33a.44.44,0,0,1-.16-.06h0a.5.5,0,0,1-.25-.3L9,18.2l-.19.54c-.05.12-.09.25-.14.37v0a9.14,9.14,0,0,0,.07,2.49h0a.64.64,0,0,0,0,.07l.61,3.11h0s0,.07,0,.1h0v0h0v2.6a.55.55,0,0,1-1.1,0V25.05l-.49-2.53H7.09L6.8,27.59a.56.56,0,0,1-.58.52.55.55,0,0,1-.51-.58L6,21.79H6a1,1,0,0,0-.09-.32,3.39,3.39,0,0,1-.12-2.24A9.87,9.87,0,0,1,6.64,17,2.5,2.5,0,0,1,7.7,15.78c.57-.22,1.45.48,1.71.7h0a.51.51,0,0,1,.23.29l.67,2.38,2.18.27A.32.32,0,0,1,12.8,19.79Z"/><path class="cls-2" d="M21.09,19.33a.66.66,0,0,0-.45-.25l-1.94-.24-.61-2.15a1.06,1.06,0,0,0-.18-.33,1.62,1.62,0,0,0,.49.08,1.74,1.74,0,0,0,1.74-1.74A1.74,1.74,0,0,0,18.4,13a1.69,1.69,0,0,0-1.22.51A1.74,1.74,0,0,0,17,15.68l-.12-.07a1.54,1.54,0,0,0-1.2-.17,2.93,2.93,0,0,0-1.25,1.35,9.74,9.74,0,0,0-.85,2.34,4.62,4.62,0,0,0-.11,1.58,3.12,3.12,0,0,0,.24.88.67.67,0,0,1,.06.19l-.32,5.73a.9.9,0,0,0,.86.95h.05a.92.92,0,0,0,.91-.86l.26-4.73h.11l.43,2.2v2.51a.91.91,0,1,0,1.81,0V24.93a.55.55,0,0,0,0-.17l-.6-3.09,0-.11a8.84,8.84,0,0,1-.1-2.07.86.86,0,0,0,.4.48.7.7,0,0,0,.32.13l2.11.25v8h.37v-8l.19,0a.67.67,0,0,0,.75-.59A.7.7,0,0,0,21.09,19.33Zm-2.69-6A1.38,1.38,0,1,1,17,14.7,1.38,1.38,0,0,1,18.4,13.32Zm2.47,6.47a.32.32,0,0,1-.35.28l-2.67-.33a.39.39,0,0,1-.15-.06h0a.48.48,0,0,1-.24-.3L17.1,18.2l-.19.54-.13.37v0a8.29,8.29,0,0,0,.07,2.49h0a.25.25,0,0,1,0,.07l.61,3.11h0s0,.07,0,.1h0v0h0v2.6a.55.55,0,1,1-1.09,0V25.05l-.5-2.53h-.74l-.28,5.07a.56.56,0,0,1-.58.52.56.56,0,0,1-.52-.58l.32-5.74h0a1,1,0,0,0-.09-.32,3.35,3.35,0,0,1-.11-2.24A9,9,0,0,1,14.72,17a2.54,2.54,0,0,1,1-1.18c.57-.22,1.46.48,1.72.7h0a.48.48,0,0,1,.23.29l.68,2.38,2.18.27A.31.31,0,0,1,20.87,19.79Z"/><path class="cls-2" d="M20.54,17.33a.88.88,0,0,0,1,.77l.25,0V28.5h.48V18L25,17.67a.9.9,0,0,0,.42-.16,1.12,1.12,0,0,0,.52-.63,11.33,11.33,0,0,1-.13,2.71l0,.13L25,23.78A.83.83,0,0,0,25,24v3.49a1.19,1.19,0,0,0,2.38,0V24.2l.57-2.88H28l.35,6.19a1.19,1.19,0,0,0,1.19,1.12h.06a1.17,1.17,0,0,0,1.12-1.25l-.42-7.5a2,2,0,0,1,.09-.25,4.32,4.32,0,0,0,.31-1.14,6,6,0,0,0-.14-2.07,12.49,12.49,0,0,0-1.12-3.06,3.75,3.75,0,0,0-1.63-1.77,2,2,0,0,0-1.57.22l-.16.09a2.28,2.28,0,1,0-1.88,1,2,2,0,0,0,.65-.1,1.24,1.24,0,0,0-.23.44L23.85,16l-2.54.31a.88.88,0,0,0-.59.33A.87.87,0,0,0,20.54,17.33ZM26,10.6a1.81,1.81,0,1,1-1.81-1.8A1.81,1.81,0,0,1,26,10.6Zm-4.68,6.21,2.86-.35.88-3.11a.65.65,0,0,1,.3-.39h0c.33-.29,1.49-1.2,2.24-.92a3.31,3.31,0,0,1,1.38,1.55,12,12,0,0,1,1.07,2.95A4.47,4.47,0,0,1,30,19.45a1.14,1.14,0,0,0-.12.41h0l.42,7.52a.72.72,0,0,1-1.43.08l-.37-6.63h-1l-.65,3.3v3.34a.72.72,0,0,1-1.44,0V24.08h0v0h0a.68.68,0,0,1,0-.14h0l.8-4.06s0-.07,0-.1v0h0a11.75,11.75,0,0,0,.1-3.26v-.05l-.18-.49-.24-.69-.43,1.5a.62.62,0,0,1-.32.4h0a.4.4,0,0,1-.2.09l-3.5.42a.41.41,0,1,1-.1-.82Z"/></g></g></svg>