<svg xmlns="http://www.w3.org/2000/svg" viewBox="0 0 35.97 36.65"><defs><style>.cls-1,.cls-2{fill:#004a98;}.cls-2{stroke:#004a98;stroke-linecap:round;stroke-miterlimit:10;stroke-width:0.79px;}</style></defs><g id="Layer_2" data-name="Layer 2"><g id="Layer_1-2" data-name="Layer 1"><polygon class="cls-1" points="23.51 2.95 33.02 2.95 33.02 11.72 35.97 14.44 35.97 0 20.31 0 23.51 2.95"/><polygon class="cls-1" points="12.46 33.7 2.95 33.7 2.95 15.88 0 13.16 0 36.65 15.66 36.65 12.46 33.7"/><polygon class="cls-1" points="12.42 36.65 35.97 36.65 35.97 18.45 33.02 15.73 33.02 33.7 9.22 33.7 12.42 36.65"/><polygon class="cls-1" points="2.95 20.64 2.95 2.95 19.15 2.95 15.95 0 0 0 0 17.92 2.95 20.64"/><path class="cls-2" d="M24.6,15.71a1.21,1.21,0,0,0-.8-.45l-3.4-.41-1.07-3.77a1.61,1.61,0,0,0-.32-.59,2.82,2.82,0,0,0,.87.13,3,3,0,1,0-3.05-3,3,3,0,0,0,.54,1.72l-.21-.11A2.63,2.63,0,0,0,15,8.88a5.08,5.08,0,0,0-2.18,2.37,16.88,16.88,0,0,0-1.5,4.1,8,8,0,0,0-.19,2.78,6,6,0,0,0,.42,1.53,2.35,2.35,0,0,1,.12.33l-.57,10.06a1.6,1.6,0,0,0,1.5,1.68h.09a1.6,1.6,0,0,0,1.59-1.5l.47-8.3H15l.76,3.87v4.4a1.6,1.6,0,1,0,3.19,0V25.53a1.35,1.35,0,0,0,0-.29L17.8,19.8a1.8,1.8,0,0,0-.05-.19A15.17,15.17,0,0,1,17.58,16a1.49,1.49,0,0,0,.7.84,1.15,1.15,0,0,0,.56.23l3.7.45V31.56h.65v-14l.33,0a1.19,1.19,0,0,0,1.08-1.91ZM19.88,5.15a2.42,2.42,0,1,1-2.41,2.42A2.42,2.42,0,0,1,19.88,5.15Zm4.33,11.36a.55.55,0,0,1-.62.48l-4.68-.57a.57.57,0,0,1-.27-.11l0,0h0a.88.88,0,0,1-.43-.53l-.57-2-.33.93-.24.65v.07a15.25,15.25,0,0,0,.12,4.37v0l0,.13,1.07,5.45h0a.63.63,0,0,1,0,.19h0v.05h0V30.2a1,1,0,0,1-1.93,0V25.74l-.87-4.44h-1.3l-.5,8.89a1,1,0,1,1-1.92-.11L12.34,20h0v0a1.89,1.89,0,0,0-.16-.55A5.91,5.91,0,0,1,12,15.5a15.92,15.92,0,0,1,1.43-3.95,4.31,4.31,0,0,1,1.86-2.08c1-.38,2.55.84,3,1.23l0,0h0a.88.88,0,0,1,.4.52l1.19,4.17,3.82.47A.55.55,0,0,1,24.21,16.51Z"/></g></g></svg>