<svg xmlns="http://www.w3.org/2000/svg" viewBox="0 0 36 36.68"><defs><style>.cls-1{fill:#004a98;}</style></defs><g id="Layer_2" data-name="Layer 2"><g id="Layer_1-2" data-name="Layer 1"><polygon class="cls-1" points="23.53 2.95 33.05 2.95 33.05 11.73 36 14.45 36 0 20.32 0 23.53 2.95"/><polygon class="cls-1" points="0 36.68 15.68 36.68 12.47 33.73 2.95 33.73 2.95 15.89 0 13.17 0 36.68"/><polygon class="cls-1" points="33.05 33.73 9.22 33.73 12.43 36.68 36 36.68 36 18.46 33.05 15.74 33.05 33.73"/><polygon class="cls-1" points="0 0 0 17.93 2.95 20.66 2.95 2.95 19.17 2.95 15.96 0 0 0"/><path class="cls-1" d="M15.28,30.62V21.1c0-.63.08-.54-.56-.55-.94,0-1.87,0-2.8,0-.23,0-.3-.07-.3-.3q0-1.74,0-3.48c0-.24.07-.33.31-.32,1,0,2,0,3,0,.38,0,.38,0,.38-.37,0-1,0-2,0-2.93A6.12,6.12,0,0,1,16,10.27a4.66,4.66,0,0,1,3.74-2.39,14.24,14.24,0,0,1,3.8.2c.18,0,.23.11.23.28,0,1,0,2,0,3,0,.21-.09.26-.28.26H21.89a2.06,2.06,0,0,0-2.24,2.24c0,.78,0,1.55,0,2.33,0,.25.08.31.32.31h3.29c.34,0,.35,0,.3.35-.17,1.14-.36,2.28-.52,3.42,0,.24-.12.34-.38.34-.86,0-1.72,0-2.58,0-.42,0-.42,0-.42.42v9.65Z"/></g></g></svg>