<svg xmlns="http://www.w3.org/2000/svg" viewBox="0 0 35.97 36.65"><defs><style>.cls-1,.cls-2{fill:#004a98;}.cls-2{stroke:#004a98;stroke-linejoin:round;stroke-width:0.5px;}</style></defs><g id="Layer_2" data-name="Layer 2"><g id="Layer_1-2" data-name="Layer 1"><polygon class="cls-1" points="23.51 2.95 33.02 2.95 33.02 11.72 35.97 14.44 35.97 0 20.31 0 23.51 2.95"/><polygon class="cls-1" points="12.46 33.7 2.95 33.7 2.95 15.88 0 13.16 0 36.65 15.66 36.65 12.46 33.7"/><polygon class="cls-1" points="12.42 36.65 35.97 36.65 35.97 18.45 33.02 15.73 33.02 33.7 9.22 33.7 12.42 36.65"/><polygon class="cls-1" points="2.95 20.64 2.95 2.95 19.15 2.95 15.95 0 0 0 0 17.92 2.95 20.64"/><path class="cls-2" d="M14.32,12.51a3,3,0,1,1,3-3A3,3,0,0,1,14.32,12.51Zm0-5.31a2.29,2.29,0,1,0,2.29,2.28A2.28,2.28,0,0,0,14.32,7.2Z"/><path class="cls-2" d="M19.73,13.84a2.37,2.37,0,1,1,2.36-2.36A2.37,2.37,0,0,1,19.73,13.84Zm0-4a1.63,1.63,0,1,0,1.62,1.63A1.63,1.63,0,0,0,19.73,9.85Z"/><path class="cls-2" d="M16.77,22.22a2.52,2.52,0,1,1,2.52-2.52A2.52,2.52,0,0,1,16.77,22.22Zm0-4.3a1.78,1.78,0,1,0,1.78,1.78A1.78,1.78,0,0,0,16.77,17.92Z"/><path class="cls-2" d="M11,22.16a1.08,1.08,0,0,1-1.08-1.07V15a3.23,3.23,0,0,1,3.23-3.22h1.21a.36.36,0,0,1,.37.37.37.37,0,0,1-.37.37H13.11A2.48,2.48,0,0,0,10.63,15v6.1a.33.33,0,1,0,.66,0v-.85a.38.38,0,0,1,.75,0v.85A1.08,1.08,0,0,1,11,22.16Z"/><path class="cls-2" d="M21.43,30.9H11.66a.38.38,0,0,1-.37-.37V17A.38.38,0,0,1,12,17v13.2h9V24.54a.36.36,0,0,1,.37-.37h1.51L20.86,17a.53.53,0,0,1,1-.39L24.13,21a.63.63,0,0,0,.43.33.64.64,0,0,0,.52-.11.64.64,0,0,0,.2-.79l-2.45-5.21a2.29,2.29,0,0,0-2-1.3H17.66a.36.36,0,0,1-.37-.37,1,1,0,0,0-1-1H14.32a.38.38,0,0,1-.37-.37.37.37,0,0,1,.37-.37h1.93A1.78,1.78,0,0,1,18,13.17h2.79a3,3,0,0,1,2.72,1.72L26,20.1a1.4,1.4,0,0,1-.43,1.71,1.34,1.34,0,0,1-1.13.23,1.39,1.39,0,0,1-.92-.7l-1.32-2.52,1.64,5.62a.37.37,0,0,1-.06.32.38.38,0,0,1-.29.15H21.8v5.62A.38.38,0,0,1,21.43,30.9Z"/><path class="cls-2" d="M18.33,30.9a.38.38,0,0,1-.37-.37V26a.38.38,0,0,1,.37-.37H19V23.93a1.56,1.56,0,0,0-1.33-1.71H15.85a1.56,1.56,0,0,0-1.34,1.71v1.68h.7a.37.37,0,0,1,.37.37v4.55a.37.37,0,0,1-.37.37.38.38,0,0,1-.37-.37V26.35h-.7a.37.37,0,0,1-.37-.37V23.93a2.29,2.29,0,0,1,2.08-2.45H17.7a2.29,2.29,0,0,1,2.07,2.45V26a.36.36,0,0,1-.37.37h-.7v4.18A.37.37,0,0,1,18.33,30.9Z"/></g></g></svg>