<svg xmlns="http://www.w3.org/2000/svg" viewBox="0 0 35.97 36.65"><defs><style>.cls-1{fill:#004a98;}</style></defs><g id="Layer_2" data-name="Layer 2"><g id="Layer_1-2" data-name="Layer 1"><path class="cls-1" d="M18,6.07a2.7,2.7,0,1,1-2.69,2.7A2.7,2.7,0,0,1,18,6.07M16.55,26.81v8h2.86v-8h2.83l-.78-3.21h-7l-.78,3.21Zm-5.33-4,2.07-7h0c.17-.63,1.06-3.11,4.69-3.11s4.53,2.48,4.7,3.11h0l2.07,7L22,23.63l-2.07-7V16.6l0-.08s-.15-.91-1.92-.91-1.91.9-1.91.9l0,.09v.06l-2.07,7Z"/><polygon class="cls-1" points="20.31 0 23.51 2.95 33.02 2.95 33.02 11.72 35.97 14.44 35.97 0 20.31 0"/><polygon class="cls-1" points="33.02 33.7 12.46 33.7 9.22 33.7 2.95 33.7 2.95 20.64 2.95 15.88 2.95 2.95 19.15 2.95 15.95 0 0 0 0 13.16 0 17.92 0 36.65 12.42 36.65 15.66 36.65 35.97 36.65 35.97 18.45 33.02 15.73 33.02 33.7"/></g></g></svg>