<svg xmlns="http://www.w3.org/2000/svg" viewBox="0 0 35.97 36.65"><defs><style>.cls-1{fill:#004a98;}.cls-2,.cls-4{fill:none;}.cls-2,.cls-3,.cls-4,.cls-5{stroke:#004a98;stroke-linejoin:round;}.cls-2,.cls-3{stroke-linecap:round;stroke-width:0.5px;}.cls-3,.cls-5{fill:#fff;}.cls-4,.cls-5{stroke-width:0.75px;}</style></defs><g id="Layer_2" data-name="Layer 2"><g id="Layer_1-2" data-name="Layer 1"><polygon class="cls-1" points="23.51 2.95 33.02 2.95 33.02 11.72 35.97 14.44 35.97 0 20.31 0 23.51 2.95"/><polygon class="cls-1" points="12.46 33.7 2.95 33.7 2.95 15.88 0 13.16 0 36.65 15.66 36.65 12.46 33.7"/><polygon class="cls-1" points="12.42 36.65 35.97 36.65 35.97 18.45 33.02 15.73 33.02 33.7 9.22 33.7 12.42 36.65"/><polygon class="cls-1" points="2.95 20.64 2.95 2.95 19.15 2.95 15.95 0 0 0 0 17.92 2.95 20.64"/><path class="cls-2" d="M24.94,15.86l.76.48a1,1,0,0,0,.85,0l.68-.45"/><path class="cls-2" d="M24.27,13.36A1.81,1.81,0,0,0,25.39,12a3,3,0,0,0,2.51,1.27"/><path class="cls-2" d="M25,16v.65a.7.7,0,0,1-.51.68c-.57.17-1.23.34-1.86.5a1.2,1.2,0,0,0-.89.9L21,21.33"/><path class="cls-2" d="M24.27,13.36a1.3,1.3,0,0,0,0,.21c-.11-.06-.2,0-.2.26a7.72,7.72,0,0,0,.15.89.23.23,0,0,0,.23.19,1.67,1.67,0,0,0,.37.86l.08.09"/><path class="cls-2" d="M27.23,15.86l.08-.09a1.76,1.76,0,0,0,.37-.86.23.23,0,0,0,.23-.19,7.72,7.72,0,0,0,.15-.89c0-.26-.09-.32-.2-.26a1.67,1.67,0,0,0,.06-.4"/><path class="cls-2" d="M31.38,21.35l-.84-2.7a1.23,1.23,0,0,0-.89-.9c-.63-.16-1.44-.28-2-.45a.7.7,0,0,1-.51-.68V16"/><polyline class="cls-2" points="26.57 21.34 27.06 18.57 27.35 17.85"/><path class="cls-2" d="M27.08,21.34a9,9,0,0,0,1.37-2.4L28,18.65l.44-.16-.11-1"/><polyline class="cls-2" points="25.59 21.34 25.1 18.57 24.8 17.83"/><path class="cls-2" d="M25.09,21.34a8.68,8.68,0,0,1-1.37-2.4l.43-.29-.43-.16.11-1"/><path class="cls-2" d="M25.51,10.83s-1.3-.25-2,1.45c-.4.92,0,1.91.29,2.88.19.68,0,1-.33,1.08s-.46,0-.46,0a1.45,1.45,0,0,0,1.65.64"/><path class="cls-2" d="M27.63,16.92c.77,0,1.28-.15,1.46-.78,0,0-.1.28-.56.14s-.29-.44-.1-1.12a4.44,4.44,0,0,0,0-2.86c-1-2.55-2.9-1.47-2.9-1.47L25.39,12"/><path class="cls-3" d="M26.08,18.9l.44-1.64,1-.84c.33.15.44,1.08.33,1.54l-.15.37a.14.14,0,0,1-.27,0,.91.91,0,0,0-.33-.72l-.6-.3"/><path class="cls-3" d="M26.08,18.9l-.49-1.6-.74-.88A1.82,1.82,0,0,0,24.27,18l.18.44a.12.12,0,0,0,.24,0,1,1,0,0,1,.34-.79l.56-.26"/><path class="cls-2" d="M7.93,15.86l.77.48a1,1,0,0,0,.85,0l.68-.45"/><path class="cls-2" d="M7.26,13.36A1.83,1.83,0,0,0,8.39,12a3,3,0,0,0,2.51,1.27"/><path class="cls-2" d="M8,16v.65a.7.7,0,0,1-.51.68c-.57.17-1.23.34-1.86.5a1.21,1.21,0,0,0-.9.9L4,21.33"/><path class="cls-2" d="M7.26,13.36a1.3,1.3,0,0,0,0,.21c-.11-.06-.2,0-.2.26a8.79,8.79,0,0,0,.16.89.23.23,0,0,0,.23.19,1.67,1.67,0,0,0,.37.86l.07.09"/><path class="cls-2" d="M10.23,15.86l.07-.09a1.67,1.67,0,0,0,.37-.86.23.23,0,0,0,.23-.19,8.79,8.79,0,0,0,.16-.89c0-.26-.09-.32-.2-.26a1.37,1.37,0,0,0,.05-.4"/><polyline class="cls-2" points="9.57 21.34 10.06 18.57 10.35 17.85"/><path class="cls-2" d="M10.07,21.34a8.68,8.68,0,0,0,1.37-2.4L11,18.65l.43-.16-.1-1"/><polyline class="cls-2" points="8.59 21.34 8.1 18.57 7.8 17.83"/><path class="cls-2" d="M8.09,21.34a8.68,8.68,0,0,1-1.37-2.4l.43-.29-.43-.16.11-1"/><path class="cls-2" d="M8.5,10.83s-1.29-.25-2,1.45c-.39.92,0,1.91.3,2.88.19.68,0,1-.33,1.08s-.47,0-.47,0a1.46,1.46,0,0,0,1.65.64"/><path class="cls-2" d="M10.63,16.92c.76,0,1.28-.15,1.46-.78,0,0-.11.28-.57.14s-.28-.44-.09-1.12a4.51,4.51,0,0,0,0-2.86c-1-2.55-2.91-1.47-2.91-1.47L8.39,12"/><path class="cls-3" d="M9.08,18.9l.43-1.64,1-.84c.34.15.45,1.08.34,1.54l-.15.37a.14.14,0,0,1-.27,0,1,1,0,0,0-.33-.72l-.61-.3"/><path class="cls-3" d="M9.08,18.9l-.49-1.6-.75-.88A1.82,1.82,0,0,0,7.27,18l.18.44a.12.12,0,0,0,.24,0A1,1,0,0,1,8,17.56l.57-.26"/><path class="cls-4" d="M15.68,18.67l1.18.74a1.55,1.55,0,0,0,1.3,0l1-.7"/><path class="cls-4" d="M14.65,14.83a2.79,2.79,0,0,0,1.73-2.14s.87,1.72,3.85,2"/><path class="cls-4" d="M15.75,18.84v1a1.08,1.08,0,0,1-.78,1c-.88.26-1.89.52-2.86.76A1.9,1.9,0,0,0,10.74,23l-1.1,4"/><path class="cls-4" d="M14.65,14.83a2,2,0,0,0,.07.33c-.17-.1-.31,0-.31.4a12.26,12.26,0,0,0,.24,1.36.35.35,0,0,0,.35.3,2.51,2.51,0,0,0,.57,1.31l.11.14"/><path class="cls-4" d="M19.2,18.67l.12-.14a2.68,2.68,0,0,0,.57-1.31.36.36,0,0,0,.35-.3,11.32,11.32,0,0,0,.23-1.36c0-.41-.13-.5-.3-.4a2.56,2.56,0,0,0,.09-.62"/><path class="cls-4" d="M25.57,27.1,24.28,23a1.87,1.87,0,0,0-1.37-1.38c-1-.25-2.2-.43-3.08-.69a1.08,1.08,0,0,1-.78-1v-1"/><polyline class="cls-4" points="18.19 27.07 18.95 22.83 19.39 21.73"/><path class="cls-4" d="M19,27.07a13.43,13.43,0,0,0,2.11-3.67L20.4,23l.67-.25-.16-1.56"/><polyline class="cls-4" points="16.69 27.07 15.94 22.83 15.48 21.7"/><path class="cls-4" d="M15.92,27.07a13.24,13.24,0,0,1-2.1-3.67l.66-.45-.66-.25L14,21.15"/><path class="cls-4" d="M16.56,11s-2-.39-3.12,2.23c-.61,1.41,0,2.93.45,4.41.29,1,0,1.51-.5,1.67-.71.21-.71,0-.71,0,.44.87,1.33,1.13,2.53,1"/><path class="cls-4" d="M19.82,20.3c1.17,0,2-.24,2.24-1.2,0,0-.16.43-.87.21-.49-.15-.43-.68-.14-1.72a6.94,6.94,0,0,0,0-4.39C19.54,9.29,16.56,11,16.56,11l-.18,1.74"/><path class="cls-5" d="M17.44,23.33l.67-2.51,1.56-1.3c.51.24.68,1.67.52,2.38l-.23.56a.22.22,0,0,1-.42-.08,1.42,1.42,0,0,0-.51-1.1l-.92-.46"/><path class="cls-5" d="M17.44,23.33l-.75-2.44-1.15-1.37a2.85,2.85,0,0,0-.88,2.38l.28.67a.19.19,0,0,0,.37-.08,1.46,1.46,0,0,1,.51-1.21l.87-.39"/></g></g></svg>