<svg xmlns="http://www.w3.org/2000/svg" viewBox="0 0 35.97 36.65"><defs><style>.cls-1{fill:#004a98;}.cls-2{fill:none;}.cls-2,.cls-3{stroke:#004a98;stroke-linecap:round;stroke-miterlimit:10;}.cls-3{fill:#fff;}</style></defs><g id="Layer_2" data-name="Layer 2"><g id="Layer_1-2" data-name="Layer 1"><polygon class="cls-1" points="23.51 2.95 33.02 2.95 33.02 11.72 35.97 14.44 35.97 0 20.31 0 23.51 2.95"/><polygon class="cls-1" points="12.46 33.7 2.95 33.7 2.95 15.88 0 13.16 0 36.65 15.66 36.65 12.46 33.7"/><polygon class="cls-1" points="12.42 36.65 35.97 36.65 35.97 18.45 33.02 15.73 33.02 33.7 9.22 33.7 12.42 36.65"/><polygon class="cls-1" points="2.95 20.64 2.95 2.95 19.15 2.95 15.95 0 0 0 0 17.92 2.95 20.64"/><path class="cls-2" d="M15.09,17.92,16.87,19a2.36,2.36,0,0,0,2,0l1.58-1.06"/><path class="cls-2" d="M13.53,12.09a4.23,4.23,0,0,0,2.62-3.25s1.33,2.61,5.85,3"/><path class="cls-2" d="M15.19,18.17v1.52A1.64,1.64,0,0,1,14,21.27c-1.32.38-2.85.78-4.33,1.16a2.89,2.89,0,0,0-2.08,2.08L5.92,30.64"/><path class="cls-2" d="M13.53,12.09a3.28,3.28,0,0,0,.1.5c-.26-.15-.47,0-.47.6a18.85,18.85,0,0,0,.36,2.07.54.54,0,0,0,.53.45,3.93,3.93,0,0,0,.87,2l.17.21"/><path class="cls-2" d="M20.43,17.92l.18-.21a4,4,0,0,0,.86-2,.53.53,0,0,0,.53-.45,18.85,18.85,0,0,0,.36-2.07c0-.61-.21-.75-.46-.6a3.91,3.91,0,0,0,.13-.93"/><path class="cls-2" d="M30.09,30.7l-1.95-6.3a2.85,2.85,0,0,0-2.08-2.08c-1.48-.38-3.35-.67-4.67-1.05a1.64,1.64,0,0,1-1.19-1.58V18.17"/><polyline class="cls-2" points="18.9 30.66 20.04 24.23 20.72 22.56"/><path class="cls-2" d="M20.07,30.66a20.34,20.34,0,0,0,3.19-5.57l-1-.68,1-.39L23,21.66"/><polyline class="cls-2" points="16.62 30.66 15.48 24.23 14.78 22.5"/><path class="cls-2" d="M15.45,30.66a20.34,20.34,0,0,1-3.19-5.57l1-.68-1-.39.26-2.34"/><path class="cls-2" d="M16.42,6.21s-3-.59-4.73,3.38c-.92,2.14.06,4.44.69,6.69.44,1.58,0,2.29-.77,2.52-1.07.33-1.08.08-1.08.08.67,1.33,2,1.72,3.84,1.51"/><path class="cls-2" d="M21.37,20.39c1.77.06,3-.36,3.39-1.82,0,0-.24.65-1.31.31-.75-.23-.66-1-.22-2.6a10.4,10.4,0,0,0-.05-6.66C21,3.69,16.42,6.21,16.42,6.21l-.27,2.63"/><path class="cls-3" d="M17.76,25l1-3.81,2.37-2c.78.36,1,2.53.79,3.6l-.36.85a.33.33,0,0,1-.63-.12,2.09,2.09,0,0,0-.76-1.66l-1.41-.7"/><path class="cls-3" d="M17.76,25l-1.14-3.72-1.74-2.06c-.78.36-1.58,2.53-1.33,3.6l.42,1a.29.29,0,0,0,.56-.12,2.15,2.15,0,0,1,.77-1.83l1.32-.61"/></g></g></svg>