<svg xmlns="http://www.w3.org/2000/svg" viewBox="0 0 35.97 36.65"><defs><style>.cls-1,.cls-2{fill:#004a98;}.cls-2,.cls-3{stroke:#004a98;}.cls-2{stroke-miterlimit:10;stroke-width:0.79px;}.cls-3{fill:none;stroke-linejoin:round;stroke-width:1.57px;}</style></defs><g id="Layer_2" data-name="Layer 2"><g id="Layer_1-2" data-name="Layer 1"><polygon class="cls-1" points="23.51 2.95 33.02 2.95 33.02 11.72 35.97 14.44 35.97 0 20.31 0 23.51 2.95"/><polygon class="cls-1" points="12.46 33.7 2.95 33.7 2.95 15.88 0 13.16 0 36.65 15.66 36.65 12.46 33.7"/><polygon class="cls-1" points="12.42 36.65 35.97 36.65 35.97 18.45 33.02 15.73 33.02 33.7 9.22 33.7 12.42 36.65"/><polygon class="cls-1" points="2.95 20.64 2.95 2.95 19.15 2.95 15.95 0 0 0 0 17.92 2.95 20.64"/><path class="cls-2" d="M30.9,10.63l-1-.79V9.38a.29.29,0,0,0-.27-.29h-.29V8.6a.51.51,0,0,0-.16-.4A.61.61,0,0,0,28.8,8h-.6a.59.59,0,0,0-.4.15.5.5,0,0,0-.18.39v.49h-.29a.29.29,0,0,0-.29.28L26.87,16a.29.29,0,0,0,.21.28l-.23,9.45h0v0h0v0h0l.86,3.4a.3.3,0,0,0,.27.22.28.28,0,0,0,.13,0,.3.3,0,0,0,.15-.18l1-3.34h0s0,0,0,0h0v0h0l.23-9.45,0,0,.08,0a.28.28,0,0,0,.08-.2l.14-5.53.56.44-.1,4.29a.29.29,0,0,0,.27.29.28.28,0,0,0,.13,0,.29.29,0,0,0,.17-.25l.1-4.43A.3.3,0,0,0,30.9,10.63Zm-2.71-2h.6l0,.47h-.59Zm1,7.2h0l0,0h0l0,0h0l0,0h0l0,0h0l0,0h0l0,0h0s0,0,0,0h0s0,0,0,0h0l-.23,9.68L28,28.08l-.52-2h.68a.28.28,0,0,0,.13,0,.3.3,0,0,0,.16-.26.29.29,0,0,0-.28-.28h-.76l.22-9.15h.76A.28.28,0,0,0,28.7,16a.28.28,0,0,0-.28-.28h-1l.14-6.13,1.74.05Z"/><polyline class="cls-3" points="20.25 16.99 20.25 8.37 11.46 8.37 7.94 11.9 7.94 16.99"/><polygon class="cls-3" points="11.46 11.9 11.46 8.37 7.94 11.9 11.46 11.9"/><line class="cls-3" x1="7.94" y1="11.9" x2="7.93" y2="11.91"/><line class="cls-3" x1="18.13" y1="10.97" x2="13.06" y2="10.97"/><line class="cls-3" x1="18.13" y1="13.25" x2="10.07" y2="13.25"/><line class="cls-3" x1="18.13" y1="15.52" x2="10.07" y2="15.52"/><path class="cls-3" d="M23.08,27.81a1.09,1.09,0,0,1-1,.83H5.82a.67.67,0,0,1-.68-.83l2-10a1.08,1.08,0,0,1,1-.83H24.41a.67.67,0,0,1,.68.83Z"/><path class="cls-3" d="M21.42,13.8h.79a.84.84,0,0,1,.85.84V17"/><path class="cls-3" d="M5.12,28V12.61A.85.85,0,0,1,6,11.77h.68"/></g></g></svg>