<svg xmlns="http://www.w3.org/2000/svg" viewBox="0 0 35.97 36.65"><defs><style>.cls-1{fill:#004a98;}.cls-2{fill:none;}.cls-2,.cls-3{stroke:#004a98;stroke-miterlimit:10;stroke-width:1.31px;}.cls-3{fill:#fff;}</style></defs><g id="Layer_2" data-name="Layer 2"><g id="Layer_1-2" data-name="Layer 1"><polygon class="cls-1" points="23.51 2.95 33.02 2.95 33.02 11.72 35.97 14.44 35.97 0 20.31 0 23.51 2.95"/><polygon class="cls-1" points="12.46 33.7 2.95 33.7 2.95 15.88 0 13.16 0 36.65 15.66 36.65 12.46 33.7"/><polygon class="cls-1" points="12.42 36.65 35.97 36.65 35.97 18.45 33.02 15.73 33.02 33.7 9.22 33.7 12.42 36.65"/><polygon class="cls-1" points="2.95 20.64 2.95 2.95 19.15 2.95 15.95 0 0 0 0 17.92 2.95 20.64"/><path class="cls-1" d="M28.83,11.55a1,1,0,0,0-1-1,3.28,3.28,0,0,1-3.28-3.28,1,1,0,0,0-1-1H12.68a1,1,0,0,0-1,1A3.28,3.28,0,0,1,8.4,10.55a1,1,0,0,0-1,1s0,5,0,9.17c0,2.62,1.78,5.18,5.27,7.63a21.54,21.54,0,0,0,5.44,2.88h0a1,1,0,0,0,.39-.07c.42-.18,10.31-4.37,10.33-10.44C28.84,16.56,28.83,11.6,28.83,11.55Zm-2,9.16c0,3.76-6,7.21-8.73,8.43-2.23-1-8.69-4.47-8.7-8.43,0-3.09,0-6.62,0-8.25a5.31,5.31,0,0,0,4.19-4.19h9.05a5.31,5.31,0,0,0,4.19,4.19C26.83,14.09,26.84,17.62,26.83,20.71Z"/><polygon class="cls-2" points="10.37 22.88 16.71 22.88 16.71 21.2 15.32 19.68 11.72 19.68 10.37 21.12 10.37 22.88"/><circle class="cls-2" cx="13.42" cy="16.29" r="1.9"/><polygon class="cls-2" points="19.22 22.88 25.55 22.88 25.55 21.2 24.17 19.68 20.57 19.68 19.22 21.12 19.22 22.88"/><circle class="cls-2" cx="22.27" cy="16.29" r="1.9"/><polygon class="cls-3" points="13.07 23.97 22.26 23.97 22.26 21.54 20.25 19.33 15.03 19.33 13.07 21.43 13.07 23.97"/><circle class="cls-3" cx="17.5" cy="14.42" r="2.76"/></g></g></svg>