<svg xmlns="http://www.w3.org/2000/svg" viewBox="0 0 35.97 36.65"><defs><style>.cls-1,.cls-2{fill:#004a98;}.cls-2{stroke:#004a98;stroke-miterlimit:10;stroke-width:0.5px;}</style></defs><g id="Layer_2" data-name="Layer 2"><g id="Layer_1-2" data-name="Layer 1"><polygon class="cls-1" points="23.51 2.95 33.02 2.95 33.02 11.72 35.97 14.44 35.97 0 20.31 0 23.51 2.95"/><polygon class="cls-1" points="12.46 33.7 2.95 33.7 2.95 15.88 0 13.16 0 36.65 15.66 36.65 12.46 33.7"/><polygon class="cls-1" points="12.42 36.65 35.97 36.65 35.97 18.45 33.02 15.73 33.02 33.7 9.22 33.7 12.42 36.65"/><polygon class="cls-1" points="2.95 20.64 2.95 2.95 19.15 2.95 15.95 0 0 0 0 17.92 2.95 20.64"/><path class="cls-2" d="M14.77,28H10.63a.41.41,0,0,1-.41-.41V19.72a.41.41,0,1,1,.81,0v7.46h3.74a.41.41,0,0,1,.41.41A.42.42,0,0,1,14.77,28Z"/><path class="cls-2" d="M25.23,28H21.09a.42.42,0,0,1-.41-.41.41.41,0,0,1,.41-.41h3.74V19.72a.41.41,0,1,1,.81,0v7.87A.41.41,0,0,1,25.23,28Z"/><path class="cls-2" d="M26.46,21.35a.42.42,0,0,1-.29-.12L17.93,13,9.7,21.22a.41.41,0,0,1-.58,0L6.68,18.77a.41.41,0,0,1,0-.58l11-11a.55.55,0,0,1,.28-.12l.11,0a.35.35,0,0,1,.19.1l11,11a.41.41,0,0,1,0,.58l-2.45,2.44A.42.42,0,0,1,26.46,21.35ZM17.93,12a.42.42,0,0,1,.29.12l8.24,8.24,1.87-1.87L17.93,8.09,7.54,18.48l1.87,1.87,8.23-8.22A.4.4,0,0,1,17.93,12Z"/><path class="cls-2" d="M21.09,28a.42.42,0,0,1-.41-.41v-6a2.75,2.75,0,0,0-5.5,0v6a.42.42,0,0,1-.41.41.41.41,0,0,1-.41-.41v-6a3.57,3.57,0,0,1,7.14,0v6A.42.42,0,0,1,21.09,28Z"/></g></g></svg>