<svg xmlns="http://www.w3.org/2000/svg" viewBox="0 0 35.97 36.65"><defs><style>.cls-1,.cls-2{fill:#004a98;}.cls-2{stroke:#004a98;stroke-miterlimit:10;stroke-width:0.5px;fill-rule:evenodd;}</style></defs><g id="Layer_2" data-name="Layer 2"><g id="Layer_1-2" data-name="Layer 1"><polygon class="cls-1" points="23.51 2.95 33.02 2.95 33.02 11.72 35.97 14.44 35.97 0 20.31 0 23.51 2.95"/><polygon class="cls-1" points="12.46 33.7 2.95 33.7 2.95 15.88 0 13.16 0 36.65 15.66 36.65 12.46 33.7"/><polygon class="cls-1" points="12.42 36.65 35.97 36.65 35.97 18.45 33.02 15.73 33.02 33.7 9.22 33.7 12.42 36.65"/><polygon class="cls-1" points="2.95 20.64 2.95 2.95 19.15 2.95 15.95 0 0 0 0 17.92 2.95 20.64"/><path class="cls-2" d="M26.16,18.1a.69.69,0,0,0-.71.7v9.6h-5V24.48a.7.7,0,0,0-.68-.69h-3.6a.7.7,0,0,0-.71.69V28.4h-5V19.12a.69.69,0,0,0-1.37,0v10a.68.68,0,0,0,.67.68h6.39a.69.69,0,0,0,.68-.68V25.19h2.22v3.92a.69.69,0,0,0,.7.68h6.37a.68.68,0,0,0,.67-.68V18.8a.68.68,0,0,0-.67-.7Zm3.82.54-5.55-5.57V9.28a.7.7,0,0,0-.71-.7.68.68,0,0,0-.68.7v2.4l-4.58-4.6A.67.67,0,0,0,18,6.86a.7.7,0,0,0-.5.22L6,18.57a.71.71,0,0,0-.22.48v0a.65.65,0,0,0,.22.46.66.66,0,0,0,1,0l11-11L29,19.64a.65.65,0,0,0,.5.18.75.75,0,0,0,.5-.18.74.74,0,0,0,0-1Z"/></g></g></svg>