<svg xmlns="http://www.w3.org/2000/svg" viewBox="0 0 35.97 36.65"><defs><style>.cls-1,.cls-2{fill:#004a98;}.cls-2{stroke:#004a98;stroke-miterlimit:10;stroke-width:0.79px;}</style></defs><g id="Layer_2" data-name="Layer 2"><g id="Layer_1-2" data-name="Layer 1"><polygon class="cls-1" points="23.51 2.95 33.02 2.95 33.02 11.72 35.97 14.44 35.97 0 20.31 0 23.51 2.95"/><polygon class="cls-1" points="12.46 33.7 2.95 33.7 2.95 15.88 0 13.16 0 36.65 15.66 36.65 12.46 33.7"/><polygon class="cls-1" points="12.42 36.65 35.97 36.65 35.97 18.45 33.02 15.73 33.02 33.7 9.22 33.7 12.42 36.65"/><polygon class="cls-1" points="2.95 20.64 2.95 2.95 19.15 2.95 15.95 0 0 0 0 17.92 2.95 20.64"/><path class="cls-2" d="M16,25a3.6,3.6,0,0,0-2.26-3.14,2.52,2.52,0,1,0-2.67,0A3.59,3.59,0,0,0,8.84,25,.49.49,0,0,0,9,25.4a.48.48,0,0,0,.37.17h6.17a.5.5,0,0,0,.37-.17A.49.49,0,0,0,16,25Zm-5.44-5.27a1.84,1.84,0,1,1,1.84,1.84A1.84,1.84,0,0,1,10.59,19.75ZM9.53,24.89a2.92,2.92,0,0,1,5.81,0Z"/><path class="cls-2" d="M27.64,27.46H8.33a1.62,1.62,0,0,1-1.62-1.62V14a1.63,1.63,0,0,1,1.62-1.63h7.38a.34.34,0,0,1,0,.68H8.33a1,1,0,0,0-1,1V25.84a1,1,0,0,0,1,.95H27.64a1,1,0,0,0,.95-.95V14a1,1,0,0,0-.95-1H20.26a.34.34,0,0,1,0-.68h7.38A1.63,1.63,0,0,1,29.26,14V25.84A1.62,1.62,0,0,1,27.64,27.46Z"/><path class="cls-2" d="M20.53,16.47H15.44a.73.73,0,0,1-.72-.73V14.55a.73.73,0,0,1,.72-.73h.37a.34.34,0,0,1,.34.34.34.34,0,0,1-.34.34h-.37a0,0,0,0,0,0,.05v1.19a0,0,0,0,0,0,0h5.09a0,0,0,0,0,0,0V14.55a0,0,0,0,0,0-.05h-.37a.34.34,0,0,1-.34-.34.34.34,0,0,1,.34-.34h.37a.73.73,0,0,1,.72.73v1.19A.73.73,0,0,1,20.53,16.47Z"/><path class="cls-2" d="M18.93,15.48H17a.7.7,0,0,1-.7-.7V8.06a.7.7,0,0,1,.7-.7h1.89a.7.7,0,0,1,.7.7v6.72A.7.7,0,0,1,18.93,15.48ZM17,8s0,0,0,0v6.72s0,0,0,0h1.89s0,0,0,0V8.06s0,0,0,0Z"/><path class="cls-2" d="M26.55,19.12h-8.2a.34.34,0,0,1,0-.68h8.2a.34.34,0,0,1,0,.68Z"/><path class="cls-2" d="M26.55,21.53h-8.2a.34.34,0,0,1-.34-.34.34.34,0,0,1,.34-.34h8.2a.34.34,0,0,1,.34.34A.34.34,0,0,1,26.55,21.53Z"/><path class="cls-2" d="M26.55,23.94h-8.2a.34.34,0,1,1,0-.67h8.2a.34.34,0,1,1,0,.67Z"/></g></g></svg>