<svg xmlns="http://www.w3.org/2000/svg" viewBox="0 0 35.97 36.65"><defs><style>.cls-1,.cls-2{fill:#004a98;}.cls-2{stroke:#004a98;stroke-miterlimit:10;stroke-width:0.79px;}</style></defs><g id="Layer_2" data-name="Layer 2"><g id="Layer_1-2" data-name="Layer 1"><polygon class="cls-1" points="23.51 2.95 33.02 2.95 33.02 11.72 35.97 14.44 35.97 0 20.31 0 23.51 2.95"/><polygon class="cls-1" points="12.46 33.7 2.95 33.7 2.95 15.88 0 13.16 0 36.65 15.66 36.65 12.46 33.7"/><polygon class="cls-1" points="12.42 36.65 35.97 36.65 35.97 18.45 33.02 15.73 33.02 33.7 9.22 33.7 12.42 36.65"/><polygon class="cls-1" points="2.95 20.64 2.95 2.95 19.15 2.95 15.95 0 0 0 0 17.92 2.95 20.64"/><path class="cls-2" d="M29.88,21.44a1.88,1.88,0,0,0-2.6-.52L25,22.43a.47.47,0,0,0-.13.65.45.45,0,0,0,.64.12l2.26-1.51a.94.94,0,1,1,1.05,1.57L22,27.81a.88.88,0,0,1-.24.11,1.09,1.09,0,0,1-.4,0l-6.55-1.88h-.06a1.85,1.85,0,0,0-1.37.28l-.39.26-2.52-3.78,3-2A2,2,0,0,1,15,20.49l7,2.26h0a.94.94,0,0,1,.62,1.15.91.91,0,0,1-.45.55,1,1,0,0,1-.72.07h0l-3.44-.91a.46.46,0,0,0-.57.33.43.43,0,0,0,.06.37.41.41,0,0,0,.27.19l3.44.92h0a1.84,1.84,0,0,0,1.4-.14,1.91,1.91,0,0,0,.91-1.1,1.87,1.87,0,0,0-1.23-2.31h0l-7-2.26-.08,0A2.91,2.91,0,0,0,13,20l-3,2-.27-.4a.46.46,0,0,0-.64-.13L6,23.59a.48.48,0,0,0-.13.65L8.38,28a.47.47,0,1,0,.78-.52l-2.28-3.4,2.33-1.55,3.58,5.36-2.33,1.55-.11-.16a.46.46,0,1,0-.77.51l.37.55a.46.46,0,0,0,.64.13l3.1-2.06a.47.47,0,0,0,.13-.64l-.28-.42.39-.26a1,1,0,0,1,.68-.14l6.57,1.88h.05a2,2,0,0,0,.85-.06,2.12,2.12,0,0,0,.48-.23L29.36,24A1.87,1.87,0,0,0,29.88,21.44Z"/><path class="cls-2" d="M28.87,9.46a7.54,7.54,0,0,0-1.56-2.31A7.29,7.29,0,0,0,25,5.59a7.27,7.27,0,0,0-8,11.85A7.14,7.14,0,0,0,19.33,19a7.29,7.29,0,0,0,8-1.56,7.54,7.54,0,0,0,1.56-2.31,7.34,7.34,0,0,0,0-5.67Zm-.33,2.83a6.38,6.38,0,1,1-6.38-6.37A6.38,6.38,0,0,1,28.54,12.29Z"/><path class="cls-1" d="M22.16,9.67l-.73,2.21.8,2.68H20.92l-.52-2.1v2.1H19.13V9.67H20.4v1.9L21,9.67Z"/><path class="cls-1" d="M22.45,9.67h.95a6.56,6.56,0,0,1,1.25.08,1,1,0,0,1,.5.28.91.91,0,0,1,.21.43,6.36,6.36,0,0,1,0,.93v1.72a4.1,4.1,0,0,1-.06.88.63.63,0,0,1-.22.34.79.79,0,0,1-.38.18,3.7,3.7,0,0,1-.68.05H22.45Zm1.28.83v3.22c.18,0,.29,0,.33-.11a1.39,1.39,0,0,0,.07-.6v-1.9a3.08,3.08,0,0,0,0-.42.22.22,0,0,0-.1-.14A.6.6,0,0,0,23.73,10.5Z"/></g></g></svg>