<svg xmlns="http://www.w3.org/2000/svg" viewBox="0 0 35.97 36.65"><defs><style>.cls-1{fill:#004a98;}</style></defs><g id="Layer_2" data-name="Layer 2"><g id="Layer_1-2" data-name="Layer 1"><polygon class="cls-1" points="23.51 2.95 33.02 2.95 33.02 11.72 35.97 14.44 35.97 0 20.31 0 23.51 2.95"/><polygon class="cls-1" points="12.46 33.7 2.95 33.7 2.95 15.88 0 13.16 0 36.65 15.66 36.65 12.46 33.7"/><polygon class="cls-1" points="12.42 36.65 35.97 36.65 35.97 18.45 33.02 15.73 33.02 33.7 9.22 33.7 12.42 36.65"/><polygon class="cls-1" points="2.95 20.64 2.95 2.95 19.15 2.95 15.95 0 0 0 0 17.92 2.95 20.64"/><path class="cls-1" d="M15,19.19l3,5.9,3-5.9L23,15a6,6,0,0,0-.12-5.58,5.54,5.54,0,0,0-4.31-2.9,8.69,8.69,0,0,0-1.25,0,5.54,5.54,0,0,0-4.31,2.9A6,6,0,0,0,12.93,15Zm-.39-8.92a3.76,3.76,0,0,1,2.9-2l.44,0,.45,0a3.76,3.76,0,0,1,2.9,2,4.18,4.18,0,0,1,.09,3.89l-2.52,5L18,21l-.91-1.83-2.52-5A4.18,4.18,0,0,1,14.64,10.27Z"/><path class="cls-1" d="M18,15.17a2.79,2.79,0,1,0-2.79-2.79A2.8,2.8,0,0,0,18,15.17ZM18,11a1.36,1.36,0,1,1-1.36,1.36A1.36,1.36,0,0,1,18,11Z"/><path class="cls-1" d="M9.81,25.55a.91.91,0,0,0,.91-.91V19.19h3.81l-.91-1.81H9.81a.9.9,0,0,0-.91.9v6.36A.91.91,0,0,0,9.81,25.55Z"/><path class="cls-1" d="M26.16,17.38H22.35l-.91,1.81h3.81v9.09H9.81a.91.91,0,1,0,0,1.81H26.16a.91.91,0,0,0,.91-.91V18.28A.9.9,0,0,0,26.16,17.38Z"/><circle class="cls-1" cx="9.81" cy="26.91" r="0.91"/><path class="cls-1" d="M18.39,25.29a.45.45,0,0,1-.81,0L17,24.05a1.82,1.82,0,1,0,2.05,0Z"/></g></g></svg>