<svg fill="#000000" xmlns="http://www.w3.org/2000/svg" viewBox="0 0 35.97 36.65">
<defs>
<style>.cls-1,.cls-2{fill:#004a98;}.cls-2,.cls-3{fill-rule:evenodd;}.cls-3{fill:none;stroke:#004a98;stroke-miterlimit:10;stroke-width:3px;}</style>
</defs>
<g id="Layer_2" data-name="Layer 2"><g id="Layer_1-2" data-name="Layer 1">
<path fill="#FFF"/>
<polygon class="cls-1" points="23.51 2.95 33.02 2.95 33.02 11.72 35.97 14.44 35.97 0 20.31 0 23.51 2.95"/>
<polygon class="cls-1" points="12.46 33.7 2.95 33.7 2.95 15.88 0 13.16 0 36.65 15.66 36.65 12.46 33.7"/>
<polygon class="cls-1" points="12.42 36.65 35.97 36.65 35.97 18.45 33.02 15.73 33.02 33.7 9.22 33.7 12.42 36.65"/>
<polygon class="cls-1" points="2.95 20.64 2.95 2.95 19.15 2.95 15.95 0 0 0 0 17.92 2.95 20.64"/>
<polyline class="cls-2" points="26.06 19.79 12.34 19.79 12.34 16.96 26.06 16.96 18.72 9.19 22.41 9.19 31.86 18.39 22.41 27.57 18.72 27.57"/>
<polyline class="cls-3" points="16.03 30.46 7.03 30.46 7.03 6.96 16.03 6.96"/></g></g></svg>