<svg xmlns="http://www.w3.org/2000/svg" viewBox="0 0 35.92 36.6"><defs><style>.cls-1{fill:#004a98;}.cls-2{fill:none;stroke:#004a98;stroke-miterlimit:10;stroke-width:2px;}</style></defs><g id="Layer_2" data-name="Layer 2"><g id="Layer_1-2" data-name="Layer 1"><polygon class="cls-1" points="23.47 2.95 32.97 2.95 32.97 11.7 35.92 14.41 35.92 0 20.28 0 23.47 2.95"/><polygon class="cls-1" points="12.44 33.65 2.95 33.65 2.95 15.86 0 13.14 0 36.6 15.64 36.6 12.44 33.65"/><polygon class="cls-1" points="12.4 36.6 35.92 36.6 35.92 18.42 32.97 15.71 32.97 33.65 9.2 33.65 12.4 36.6"/><polygon class="cls-1" points="2.95 20.61 2.95 2.95 19.13 2.95 15.93 0 0 0 0 17.89 2.95 20.61"/><rect class="cls-2" x="9.1" y="18.82" width="17.72" height="10.57"/><polyline class="cls-2" points="9.1 18.82 17.96 24.11 26.82 18.82"/><polygon class="cls-1" points="24.47 15.59 22.47 15.59 22.47 6.38 24.47 7.8 24.47 15.59"/><polygon class="cls-1" points="13.86 15.59 11.86 15.59 11.86 6.38 13.86 7.8 13.86 15.59"/><polygon class="cls-1" points="19.36 15.59 17.36 15.59 17.36 9.79 19.36 11.21 19.36 15.59"/></g></g></svg>