<svg xmlns="http://www.w3.org/2000/svg" viewBox="0 0 35.97 36.65"><defs><style>.cls-1{fill:#004a98;}.cls-2,.cls-3{fill:none;stroke:#004a98;stroke-miterlimit:10;}.cls-3{fill-rule:evenodd;}</style></defs><g id="Layer_2" data-name="Layer 2"><g id="Layer_1-2" data-name="Layer 1"><polygon class="cls-1" points="23.51 2.95 33.02 2.95 33.02 11.72 35.97 14.44 35.97 0 20.31 0 23.51 2.95"/><polygon class="cls-1" points="12.46 33.7 2.95 33.7 2.95 15.88 0 13.16 0 36.65 15.66 36.65 12.46 33.7"/><polygon class="cls-1" points="12.42 36.65 35.97 36.65 35.97 18.45 33.02 15.73 33.02 33.7 9.22 33.7 12.42 36.65"/><polygon class="cls-1" points="2.95 20.64 2.95 2.95 19.15 2.95 15.95 0 0 0 0 17.92 2.95 20.64"/><path class="cls-2" d="M21.41,20.67a4.39,4.39,0,0,1-.57-1.76"/><path class="cls-2" d="M15.06,18.88a5.09,5.09,0,0,1-.5,1.79"/><path class="cls-3" d="M13.19,13.38a11.12,11.12,0,0,0,2.51,6.1,3.55,3.55,0,0,0,2.22.55H18"/><path class="cls-3" d="M21.93,9.13a4.49,4.49,0,0,0-3.95-2,4.48,4.48,0,0,0-3.94,2"/><path class="cls-3" d="M18,20h.07a3.55,3.55,0,0,0,2.22-.55,11.12,11.12,0,0,0,2.51-6.1"/><path class="cls-2" d="M27.29,28.65a16,16,0,0,0-.32-4.5c-.52-2-5.56-3.48-5.56-3.48S20.7,22.45,18,22.45s-3.42-1.78-3.42-1.78-5,1.46-5.56,3.48a16,16,0,0,0-.32,4.5"/><path class="cls-2" d="M13.53,9.15a29.7,29.7,0,0,0,4.37.33,29.65,29.65,0,0,0,4.36-.33"/><path class="cls-2" d="M23.65,21.5c.56-.83,1.34-5.16.3-6.51s-1.48-3-2.81-3c-3.3.22-3.1-1.5-5.85-.53-1.64.59-2.12,2-3.27,3.48s-.26,5.68.3,6.51"/><line class="cls-2" x1="18.74" y1="25.24" x2="18.74" y2="25.47"/><line class="cls-2" x1="18.74" y1="27.56" x2="18.74" y2="27.79"/><path class="cls-2" d="M11.69,15.7A16.33,16.33,0,0,1,14,9.13"/><path class="cls-2" d="M24.28,15.7a16.33,16.33,0,0,0-2.35-6.57"/><path class="cls-2" d="M22.28,15.84a11.33,11.33,0,0,1-2.12,1.77c-.72.33-.51-.67-2.18-.67s-1.45,1-2.17.67a11.17,11.17,0,0,1-2.12-1.8"/><path class="cls-2" d="M18.57,18.36a1.82,1.82,0,0,0-.55-.07,1.94,1.94,0,0,0-.56.07"/></g></g></svg>