<svg xmlns="http://www.w3.org/2000/svg" viewBox="0 0 35.97 36.65"><defs><style>.cls-1{fill:#004a98;}.cls-2,.cls-3,.cls-4{fill:none;stroke:#004a98;}.cls-2,.cls-3{stroke-miterlimit:10;}.cls-3{fill-rule:evenodd;}.cls-4{stroke-linecap:round;stroke-linejoin:round;stroke-width:1.01px;}</style></defs><g id="Layer_2" data-name="Layer 2"><g id="Layer_1-2" data-name="Layer 1"><polygon class="cls-1" points="23.51 2.95 33.02 2.95 33.02 11.72 35.97 14.44 35.97 0 20.31 0 23.51 2.95"/><polygon class="cls-1" points="12.46 33.7 2.95 33.7 2.95 15.88 0 13.16 0 36.65 15.66 36.65 12.46 33.7"/><polygon class="cls-1" points="12.42 36.65 35.97 36.65 35.97 18.45 33.02 15.73 33.02 33.7 9.22 33.7 12.42 36.65"/><polygon class="cls-1" points="2.95 20.64 2.95 2.95 19.15 2.95 15.95 0 0 0 0 17.92 2.95 20.64"/><path class="cls-2" d="M19.31,20a4.39,4.39,0,0,1-.57-1.76"/><path class="cls-2" d="M13,18.22a5.09,5.09,0,0,1-.5,1.79"/><path class="cls-3" d="M11.09,12.72a11.08,11.08,0,0,0,2.51,6.1,3.62,3.62,0,0,0,2.22.55h.07"/><path class="cls-3" d="M19.83,8.47a4.49,4.49,0,0,0-3.95-2,4.47,4.47,0,0,0-3.94,2"/><path class="cls-3" d="M15.89,19.37H16a3.64,3.64,0,0,0,2.22-.55,11.24,11.24,0,0,0,2.51-6.1"/><path class="cls-2" d="M19.31,20s-.71,1.78-3.43,1.78S12.46,20,12.46,20s-5,1.46-5.56,3.48A16,16,0,0,0,6.58,28"/><path class="cls-2" d="M11.43,8.49a29.7,29.7,0,0,0,4.37.33,29.65,29.65,0,0,0,4.36-.33"/><path class="cls-2" d="M21.54,20.84c.57-.83,1.35-5.16.31-6.51s-1.48-3-2.81-2.95c-3.3.21-3.1-1.5-5.85-.53-1.65.59-2.12,2-3.27,3.48s-.26,5.68.3,6.51"/><line class="cls-2" x1="16.64" y1="24.58" x2="16.64" y2="24.81"/><line class="cls-2" x1="16.64" y1="26.9" x2="16.64" y2="27.13"/><path class="cls-2" d="M9.58,15a16.25,16.25,0,0,1,2.36-6.57"/><path class="cls-2" d="M22.18,15a16.33,16.33,0,0,0-2.35-6.57"/><path class="cls-2" d="M20.18,15.18A11.73,11.73,0,0,1,18.06,17c-.73.32-.51-.67-2.18-.67s-1.45,1-2.17.67a11.56,11.56,0,0,1-2.12-1.8"/><path class="cls-2" d="M16.47,17.7a1.9,1.9,0,0,0-.55-.07,1.94,1.94,0,0,0-.56.07"/><path class="cls-1" d="M29.32,27.05a2.18,2.18,0,0,1,0,.27.56.56,0,0,1-.06.17.22.22,0,0,1-.07.09.19.19,0,0,1-.1,0H27.32v1.91a.3.3,0,0,1,0,.1.29.29,0,0,1-.1.08.69.69,0,0,1-.18,0l-.28,0-.28,0-.19,0a.36.36,0,0,1-.09-.08.13.13,0,0,1,0-.1V27.61H24.39a.16.16,0,0,1-.09,0,.22.22,0,0,1-.07-.09.38.38,0,0,1-.06-.17,2,2,0,0,1,0-.27,1.84,1.84,0,0,1,0-.26.78.78,0,0,1,0-.18.22.22,0,0,1,.07-.09.12.12,0,0,1,.09,0h1.76V24.58a.14.14,0,0,1,0-.1.24.24,0,0,1,.09-.08.74.74,0,0,1,.19,0H27l.18,0a.21.21,0,0,1,.1.08.36.36,0,0,1,0,.1v1.91H29.1a.11.11,0,0,1,.08,0,.24.24,0,0,1,.08.09c0,.05,0,.11,0,.18A2,2,0,0,1,29.32,27.05Z"/><rect class="cls-4" x="22.53" y="22.8" width="8.39" height="8.39"/></g></g></svg>