<svg xmlns="http://www.w3.org/2000/svg" viewBox="0 0 35.97 36.65"><defs><style>.cls-1,.cls-2,.cls-4,.cls-5{fill:none;stroke:#004a98;stroke-miterlimit:10;}.cls-1,.cls-2{stroke-width:0.5px;}.cls-2,.cls-5{fill-rule:evenodd;}.cls-3{fill:#004a98;}.cls-4,.cls-5{stroke-width:0.75px;}</style></defs><g id="Layer_2" data-name="Layer 2"><g id="Layer_1-2" data-name="Layer 1"><path class="cls-1" d="M27.16,17a2,2,0,0,1-.26-.81"/><path class="cls-1" d="M24.25,16.13A2.35,2.35,0,0,1,24,17"/><path class="cls-2" d="M23.4,13.61a5,5,0,0,0,1.15,2.79,1.59,1.59,0,0,0,1,.26h0"/><path class="cls-2" d="M27.4,11.67a2.26,2.26,0,0,0-3.61,0"/><path class="cls-2" d="M25.59,16.66h0a1.61,1.61,0,0,0,1-.26,5.09,5.09,0,0,0,1.15-2.79"/><path class="cls-1" d="M29.85,20.61a7.64,7.64,0,0,0-.14-2.07c-.24-.92-2.55-1.59-2.55-1.59a1.59,1.59,0,0,1-1.57.81A1.59,1.59,0,0,1,24,17s-2.31.67-2.54,1.59a7.4,7.4,0,0,0-.15,2.07"/><path class="cls-1" d="M23.55,11.68a13.75,13.75,0,0,0,2,.15,13.75,13.75,0,0,0,2-.15"/><path class="cls-1" d="M28.18,17.33c.26-.38.62-2.36.14-3S27.64,13,27,13c-1.51.1-1.42-.69-2.68-.24-.75.26-1,.91-1.5,1.59s-.12,2.6.14,3"/><line class="cls-1" x1="25.94" y1="19.04" x2="25.94" y2="19.15"/><line class="cls-1" x1="25.94" y1="20.11" x2="25.94" y2="20.21"/><path class="cls-1" d="M22.71,14.68a7.42,7.42,0,0,1,1.08-3"/><path class="cls-1" d="M28.48,14.68a7.42,7.42,0,0,0-1.08-3"/><path class="cls-1" d="M27.56,14.74a5.31,5.31,0,0,1-1,.81c-.33.15-.24-.31-1-.31s-.66.46-1,.31a5.35,5.35,0,0,1-1-.83"/><path class="cls-1" d="M25.86,15.89a.87.87,0,0,0-.25,0,1,1,0,0,0-.26,0"/><path class="cls-1" d="M11.34,17.36a2,2,0,0,1-.26-.81"/><path class="cls-1" d="M8.43,16.54a2.35,2.35,0,0,1-.23.82"/><path class="cls-2" d="M7.57,14a5.09,5.09,0,0,0,1.15,2.79,1.62,1.62,0,0,0,1,.26h0"/><path class="cls-2" d="M11.57,12.08a2,2,0,0,0-1.8-.9,2,2,0,0,0-1.81.9"/><path class="cls-2" d="M9.77,17.07h0a1.62,1.62,0,0,0,1-.26A5.09,5.09,0,0,0,12,14"/><path class="cls-1" d="M14,21A7.4,7.4,0,0,0,13.88,19c-.24-.92-2.54-1.59-2.54-1.59a1.59,1.59,0,0,1-1.57.81,1.59,1.59,0,0,1-1.57-.81S5.89,18,5.65,19A7.64,7.64,0,0,0,5.51,21"/><path class="cls-1" d="M7.73,12.09a13.75,13.75,0,0,0,2,.15,13.75,13.75,0,0,0,2-.15"/><path class="cls-1" d="M12.36,17.74c.26-.38.62-2.36.14-3s-.68-1.39-1.29-1.35c-1.51.1-1.42-.69-2.68-.24-.75.26-1,.91-1.49,1.59s-.12,2.6.14,3"/><line class="cls-1" x1="10.12" y1="19.45" x2="10.12" y2="19.56"/><line class="cls-1" x1="10.12" y1="20.52" x2="10.12" y2="20.62"/><path class="cls-1" d="M6.88,15.09a7.42,7.42,0,0,1,1.08-3"/><path class="cls-1" d="M12.65,15.09a7.42,7.42,0,0,0-1.08-3"/><path class="cls-1" d="M11.74,15.15a5.47,5.47,0,0,1-1,.81c-.33.15-.23-.31-1-.31s-.67.46-1,.31a5.2,5.2,0,0,1-1-.83"/><path class="cls-1" d="M10,16.3a1,1,0,0,0-.26,0,.87.87,0,0,0-.25,0"/><polygon class="cls-3" points="23.51 2.95 33.02 2.95 33.02 11.72 35.97 14.44 35.97 0 20.31 0 23.51 2.95"/><polygon class="cls-3" points="12.46 33.7 2.95 33.7 2.95 15.88 0 13.16 0 36.65 15.66 36.65 12.46 33.7"/><polygon class="cls-3" points="12.42 36.65 35.97 36.65 35.97 18.45 33.02 15.73 33.02 33.7 9.22 33.7 12.42 36.65"/><polygon class="cls-3" points="2.95 20.64 2.95 2.95 19.15 2.95 15.95 0 0 0 0 17.92 2.95 20.64"/><path class="cls-4" d="M20.77,20.06a3.37,3.37,0,0,1-.42-1.3"/><path class="cls-4" d="M16.09,18.73a3.93,3.93,0,0,1-.36,1.33"/><path class="cls-5" d="M14.72,14.68a8.18,8.18,0,0,0,1.85,4.5,2.68,2.68,0,0,0,1.63.41h.05"/><path class="cls-5" d="M21.15,11.56a3.29,3.29,0,0,0-2.9-1.45,3.29,3.29,0,0,0-2.9,1.45"/><path class="cls-5" d="M18.25,19.59h.05a2.7,2.7,0,0,0,1.64-.41,8.26,8.26,0,0,0,1.85-4.5"/><path class="cls-4" d="M25.1,25.93a11.66,11.66,0,0,0-.24-3.32c-.38-1.48-4.09-2.55-4.09-2.55a2.54,2.54,0,0,1-2.52,1.3,2.54,2.54,0,0,1-2.52-1.3s-3.72,1.07-4.1,2.55a11.88,11.88,0,0,0-.23,3.32"/><path class="cls-4" d="M15,11.57a22.13,22.13,0,0,0,3.21.24,22.19,22.19,0,0,0,3.22-.24"/><path class="cls-4" d="M22.42,20.66c.41-.6,1-3.79.22-4.79s-1.09-2.23-2.07-2.17c-2.43.16-2.28-1.11-4.31-.39-1.21.43-1.55,1.47-2.4,2.56s-.2,4.19.22,4.79"/><line class="cls-4" x1="18.81" y1="23.42" x2="18.81" y2="23.59"/><line class="cls-4" x1="18.81" y1="25.13" x2="18.81" y2="25.3"/><path class="cls-4" d="M13.61,16.4a12,12,0,0,1,1.73-4.84"/><path class="cls-4" d="M22.89,16.4a12,12,0,0,0-1.74-4.84"/><path class="cls-4" d="M21.41,16.5a8.52,8.52,0,0,1-1.56,1.3c-.53.24-.38-.49-1.6-.49s-1.07.73-1.6.49a8.57,8.57,0,0,1-1.57-1.32"/><path class="cls-4" d="M18.68,18.35a1.42,1.42,0,0,0-.41-.05,1.51,1.51,0,0,0-.41.05"/></g></g></svg>