<svg xmlns="http://www.w3.org/2000/svg" viewBox="0 0 35.97 36.65"><defs><style>.cls-1,.cls-2{fill:#004a98;}.cls-2,.cls-3{stroke:#004a98;stroke-miterlimit:10;}.cls-2{stroke-width:0.39px;}.cls-3{fill:none;stroke-width:1.37px;}</style></defs><g id="Layer_2" data-name="Layer 2"><g id="Layer_1-2" data-name="Layer 1"><polygon class="cls-1" points="23.51 2.95 33.02 2.95 33.02 11.72 35.97 14.44 35.97 0 20.31 0 23.51 2.95"/><polygon class="cls-1" points="12.46 33.7 2.95 33.7 2.95 15.88 0 13.16 0 36.65 15.66 36.65 12.46 33.7"/><polygon class="cls-1" points="12.42 36.65 35.97 36.65 35.97 18.45 33.02 15.73 33.02 33.7 9.22 33.7 12.42 36.65"/><polygon class="cls-1" points="2.95 20.64 2.95 2.95 19.15 2.95 15.95 0 0 0 0 17.92 2.95 20.64"/><path class="cls-2" d="M28.55,19.62c-.29-1.27-1-3.83-1.31-5.21l-.2-.76c-.18-.73-1.21-.9-2-1a10.86,10.86,0,0,0-1.44,0,12.36,12.36,0,0,0-1.38.06c-.73.08-1.73.27-1.9,1h0c-.2.87-1.08,4.13-1.58,5.91a.5.5,0,0,0,.35.61.36.36,0,0,0,.14,0,.49.49,0,0,0,.48-.36c.5-1.76,1.36-5,1.58-5.91a2.69,2.69,0,0,1,1.19-.28c.58,0,1.12,0,1.12,0h0s.55,0,1.16,0a2.75,2.75,0,0,1,1.26.26l.18.73c.36,1.37,1,3.93,1.31,5.18a.5.5,0,0,0,1-.22Zm-1.48,0a.5.5,0,0,0-1,.25l.62,2.36h-1.1a.5.5,0,0,0-.5.5v6.18h-1V22.7a.51.51,0,0,0-1,0v6.18h-.92V22.7a.5.5,0,0,0-.5-.5h-1.1l.58-2.41a.5.5,0,0,0-.37-.6.5.5,0,0,0-.61.37l-.61,2.51s0,.08,0,.11a1,1,0,0,0,1,1h.58v5.66a1,1,0,0,0,.92,1h3.07a1,1,0,0,0,.91-1V23.2h.59a1,1,0,0,0,1-1,.5.5,0,0,0,0-.12ZM10.53,12a2.56,2.56,0,0,0,3.06-3.73,2.61,2.61,0,0,0-2.74-1.18,2.57,2.57,0,0,0-2,2.44.13.13,0,0,0,0,.06A2.62,2.62,0,0,0,10.53,12Zm-.29-3.47a1.54,1.54,0,0,1,1-.49,1.57,1.57,0,0,1,1.11.34,1.6,1.6,0,0,1,.56,1,1.55,1.55,0,0,1-.31,1.19,1.66,1.66,0,0,1-1,.58A1.59,1.59,0,0,1,9.87,10a1.17,1.17,0,0,1,0-.38A1.59,1.59,0,0,1,10.24,8.57ZM22.8,12.06a2.54,2.54,0,0,0,3-3.7,2.6,2.6,0,0,0-2.72-1.17,2.56,2.56,0,0,0-2,2.42v.06A2.58,2.58,0,0,0,22.8,12.06Zm-.28-3.44a1.53,1.53,0,0,1,1-.48,1.58,1.58,0,0,1,1.09.33,1.52,1.52,0,0,1,.37.44,2.17,2.17,0,0,1,.11.23.75.75,0,0,1,0,.16s0,.17,0,.15a1.55,1.55,0,0,1-1.27,1.74A1.57,1.57,0,0,1,22.15,10a1.11,1.11,0,0,1,0-.37A1.53,1.53,0,0,1,22.52,8.62Zm-9,11.09a.5.5,0,0,0-.5.5V28.9H11.89v-7a.5.5,0,0,0-.5-.5.51.51,0,0,0-.51.5v7H9.81V20.21a.51.51,0,0,0-1,0V29.4a.5.5,0,0,0,.51.5h4.16a.5.5,0,0,0,.5-.5V20.21A.5.5,0,0,0,13.47,19.71ZM13.6,13H9.17a1.76,1.76,0,0,0-1.76,1.76V21a.5.5,0,0,0,.5.5.5.5,0,0,0,.51-.5V14.71A.76.76,0,0,1,9.17,14H13.6a.76.76,0,0,1,.76.76V21a.51.51,0,0,0,1,0V14.71A1.76,1.76,0,0,0,13.6,13Z"/><line class="cls-3" x1="17.98" y1="7.32" x2="17.98" y2="29.96"/></g></g></svg>