<svg xmlns="http://www.w3.org/2000/svg" viewBox="0 0 35.97 36.65"><defs><style>.cls-1,.cls-2{fill:#004a98;}.cls-2{stroke:#004a98;stroke-linecap:round;stroke-miterlimit:10;stroke-width:0.75px;}</style></defs><g id="Layer_2" data-name="Layer 2"><g id="Layer_1-2" data-name="Layer 1"><polygon class="cls-1" points="23.51 2.95 33.02 2.95 33.02 11.72 35.97 14.44 35.97 0 20.31 0 23.51 2.95"/><polygon class="cls-1" points="12.46 33.7 2.95 33.7 2.95 15.88 0 13.16 0 36.65 15.66 36.65 12.46 33.7"/><polygon class="cls-1" points="12.42 36.65 35.97 36.65 35.97 18.45 33.02 15.73 33.02 33.7 9.22 33.7 12.42 36.65"/><polygon class="cls-1" points="2.95 20.64 2.95 2.95 19.15 2.95 15.95 0 0 0 0 17.92 2.95 20.64"/><path class="cls-2" d="M30.21,19.91a3.92,3.92,0,0,1-1.44,1.6,5.22,5.22,0,0,1-1.91.74V14.94a5,5,0,0,1,2.51,1.2,3.51,3.51,0,0,1,.84,1.13,3,3,0,0,1,0,2.64Zm-4.09,3a1.22,1.22,0,0,1-.25.74,1.16,1.16,0,0,1-.64.44L18.39,26a1.27,1.27,0,0,1-.34.05,1.26,1.26,0,0,1-.33-.05l-6.84-1.93a1.19,1.19,0,0,1-.65-.44,1.22,1.22,0,0,1-.25-.74v-8.4a1.29,1.29,0,0,1,.1-.48,1.19,1.19,0,0,1,.45-.54,1.22,1.22,0,0,1,.68-.21H24.89a1.25,1.25,0,0,1,.48.1,1.23,1.23,0,0,1,.54.44,1.2,1.2,0,0,1,.21.69v0s0,0,0,.06,0,0,0,.07v7.9s0,.05,0,.07,0,0,0,.06v.2ZM6.64,21.22a3.8,3.8,0,0,1-.87-1.15,3,3,0,0,1,0-2.69,3.61,3.61,0,0,1,.6-.88,4.51,4.51,0,0,1,1.42-1,5.21,5.21,0,0,1,1.45-.44v7.36a5.09,5.09,0,0,1-2.6-1.19ZM30.88,17a4.72,4.72,0,0,0-1.71-1.9,6.1,6.1,0,0,0-2.33-.87,1.93,1.93,0,0,0-.13-.47,2,2,0,0,0-.71-.87,2,2,0,0,0-1.11-.34H11.21a1.91,1.91,0,0,0-.76.16,2,2,0,0,0-.87.71,2,2,0,0,0-.33.93,5.79,5.79,0,0,0-3.1,1.39A4.36,4.36,0,0,0,5.1,17.06a3.77,3.77,0,0,0,0,3.34,4.74,4.74,0,0,0,1.76,1.91,6.14,6.14,0,0,0,2.4.85,2,2,0,0,0,1.42,1.61l6.84,1.92a1.89,1.89,0,0,0,.53.08,2,2,0,0,0,.54-.08l6.84-1.92A2,2,0,0,0,26.86,23a5.79,5.79,0,0,0,3-1.41,4.31,4.31,0,0,0,1-1.36,3.73,3.73,0,0,0,0-3.28Z"/><path class="cls-2" d="M13.3,19.2H23.41a.38.38,0,0,0,.37-.37.37.37,0,0,0-.37-.37H13.3a.37.37,0,0,0-.38.37.38.38,0,0,0,.38.37Z"/><path class="cls-2" d="M23.45,21.48H13.34a.37.37,0,0,0-.37.37.38.38,0,0,0,.37.37H23.45a.37.37,0,0,0,.37-.37.36.36,0,0,0-.37-.37Z"/><path class="cls-2" d="M23.52,15.44H13.41a.37.37,0,0,0-.37.37.38.38,0,0,0,.37.37H23.52a.37.37,0,0,0,.37-.37.36.36,0,0,0-.37-.37Z"/></g></g></svg>