<svg xmlns="http://www.w3.org/2000/svg" viewBox="0 0 35.97 36.65"><defs><style>.cls-1,.cls-2{fill:#004a98;}.cls-2{stroke:#004a98;stroke-miterlimit:10;}</style></defs><g id="Layer_2" data-name="Layer 2"><g id="Layer_1-2" data-name="Layer 1"><polygon class="cls-1" points="23.51 2.95 33.02 2.95 33.02 11.72 35.97 14.44 35.97 0 20.31 0 23.51 2.95"/><polygon class="cls-1" points="12.46 33.7 2.95 33.7 2.95 15.88 0 13.16 0 36.65 15.66 36.65 12.46 33.7"/><polygon class="cls-1" points="12.42 36.65 35.97 36.65 35.97 18.45 33.02 15.73 33.02 33.7 9.22 33.7 12.42 36.65"/><polygon class="cls-1" points="2.95 20.64 2.95 2.95 19.15 2.95 15.95 0 0 0 0 17.92 2.95 20.64"/><path class="cls-2" d="M22.62,4.79H13.35A3,3,0,0,0,10.4,7.73V28.79a3,3,0,0,0,2.95,2.95h9.27a3,3,0,0,0,2.95-2.95V7.73A3,3,0,0,0,22.62,4.79Zm2.1,24a2.11,2.11,0,0,1-2.1,2.11H13.35a2.11,2.11,0,0,1-2.1-2.11v-2.1H24.72Zm0-2.95H11.25V10.68H24.72Zm-13.47-16V7.73a2.1,2.1,0,0,1,2.1-2.1h9.27a2.1,2.1,0,0,1,2.1,2.1V9.84Z"/><path class="cls-2" d="M20.09,7.31H15.88a.42.42,0,0,0-.42.42.42.42,0,0,0,.42.42h4.21a.42.42,0,0,0,.42-.42A.42.42,0,0,0,20.09,7.31Z"/><path class="cls-2" d="M18,30.27a1.48,1.48,0,1,0-1.47-1.48A1.48,1.48,0,0,0,18,30.27Zm0-2.53a1.05,1.05,0,1,1-1.05,1.05A1.05,1.05,0,0,1,18,27.74Z"/></g></g></svg>