<svg xmlns="http://www.w3.org/2000/svg" viewBox="0 0 35.97 36.65"><defs><style>.cls-1,.cls-2{fill:#004a98;}.cls-2{stroke:#004a98;stroke-miterlimit:10;stroke-width:0.79px;}</style></defs><g id="Layer_2" data-name="Layer 2"><g id="Layer_1-2" data-name="Layer 1"><polygon class="cls-1" points="23.51 2.95 33.02 2.95 33.02 11.72 35.97 14.44 35.97 0 20.31 0 23.51 2.95"/><polygon class="cls-1" points="12.46 33.7 2.95 33.7 2.95 15.88 0 13.16 0 36.65 15.66 36.65 12.46 33.7"/><polygon class="cls-1" points="12.42 36.65 35.97 36.65 35.97 18.45 33.02 15.73 33.02 33.7 9.22 33.7 12.42 36.65"/><polygon class="cls-1" points="2.95 20.64 2.95 2.95 19.15 2.95 15.95 0 0 0 0 17.92 2.95 20.64"/><path class="cls-2" d="M22.33,28.22H13.61A1.68,1.68,0,0,1,12,26.56v-17a1.66,1.66,0,0,1,1.66-1.66h8.72A1.68,1.68,0,0,1,24,9.51V17a.49.49,0,0,1-1,0V9.51a.7.7,0,0,0-.71-.69H13.61a.7.7,0,0,0-.68.69v17a.71.71,0,0,0,.68.69h8.72a.72.72,0,0,0,.71-.69V18.45a.49.49,0,1,1,1,0v8.11A1.7,1.7,0,0,1,22.33,28.22Z"/><path class="cls-2" d="M20.32,10.25H15.65a.48.48,0,0,1-.45-.3l-.58-1.44a.49.49,0,0,1,.27-.63.49.49,0,0,1,.64.27L16,9.28h4l.43-1.12a.49.49,0,1,1,.91.35l-.54,1.43A.5.5,0,0,1,20.32,10.25Z"/><path class="cls-2" d="M18.11,26.76h-.28a.49.49,0,1,1,0-1h.28a.49.49,0,1,1,0,1Z"/><path class="cls-2" d="M29.23,25.67H24.88a.48.48,0,0,1-.49-.48.49.49,0,0,1,.49-.49h4.35a.42.42,0,0,0,.41-.4V18.45a.48.48,0,0,1,.48-.49.49.49,0,0,1,.49.49V24.3A1.37,1.37,0,0,1,29.23,25.67Zm.89-8.17a.47.47,0,0,1-.48-.48V11.77a.42.42,0,0,0-.41-.4H24.88a.49.49,0,1,1,0-1h4.35a1.37,1.37,0,0,1,1.38,1.37V17A.48.48,0,0,1,30.12,17.5Z"/><path class="cls-2" d="M26.14,24.41h-.2a.49.49,0,1,1,0-1h.2a.49.49,0,1,1,0,1Z"/><path class="cls-2" d="M30.12,23.15H24.88a.49.49,0,0,1-.49-.49.48.48,0,0,1,.49-.48h5.24a.48.48,0,0,1,.49.48A.49.49,0,0,1,30.12,23.15Z"/><path class="cls-2" d="M30.12,13.32H24.88a.49.49,0,0,1-.49-.49.48.48,0,0,1,.49-.48h5.24a.48.48,0,0,1,.49.48A.49.49,0,0,1,30.12,13.32Z"/><path class="cls-2" d="M11.06,25.67H6.71A1.38,1.38,0,0,1,5.36,24.3V11.77A1.38,1.38,0,0,1,6.71,10.4h4.35a.49.49,0,1,1,0,1H6.71a.4.4,0,0,0-.38.4V24.3a.4.4,0,0,0,.38.4h4.35a.49.49,0,0,1,.49.49A.48.48,0,0,1,11.06,25.67Z"/><path class="cls-2" d="M10,24.41h-.2a.49.49,0,1,1,0-1H10a.49.49,0,1,1,0,1Z"/><path class="cls-2" d="M11.06,23.15H5.85a.49.49,0,0,1-.49-.49.48.48,0,0,1,.49-.48h5.21a.48.48,0,0,1,.49.48A.49.49,0,0,1,11.06,23.15Z"/><path class="cls-2" d="M11.06,13.32H5.85a.49.49,0,0,1-.49-.49.48.48,0,0,1,.49-.48h5.21a.48.48,0,0,1,.49.48A.49.49,0,0,1,11.06,13.32Z"/></g></g></svg>