<svg xmlns="http://www.w3.org/2000/svg" viewBox="0 0 35.97 36.65"><defs><style>.cls-1{fill:#004a98;}.cls-2{fill:none;stroke:#004a98;stroke-miterlimit:10;stroke-width:1.5px;}</style></defs><g id="Layer_2" data-name="Layer 2"><g id="Layer_1-2" data-name="Layer 1"><polygon class="cls-1" points="23.51 2.95 33.02 2.95 33.02 11.72 35.97 14.44 35.97 0 20.31 0 23.51 2.95"/><polygon class="cls-1" points="12.46 33.7 2.95 33.7 2.95 15.88 0 13.16 0 36.65 15.66 36.65 12.46 33.7"/><polygon class="cls-1" points="12.42 36.65 35.97 36.65 35.97 18.45 33.02 15.73 33.02 33.7 9.22 33.7 12.42 36.65"/><polygon class="cls-1" points="2.95 20.64 2.95 2.95 19.15 2.95 15.95 0 0 0 0 17.92 2.95 20.64"/><path class="cls-2" d="M27.32,23.48c-.07-9.12-3.84-10.75-6.71-12.16a.54.54,0,0,1-.22,0H15.58a.54.54,0,0,1-.22,0c-2.87,1.41-6.65,3-6.71,12.16a34.92,34.92,0,0,1,.14,4A1.37,1.37,0,0,0,8.91,29,1.16,1.16,0,0,0,10,29.2c1.37-.29,4,.05,8,.05,2,0,6.62-.34,8-.05A1.16,1.16,0,0,0,27.06,29a1.39,1.39,0,0,0,.12-1.47A34.92,34.92,0,0,1,27.32,23.48Z"/><path class="cls-2" d="M22.48,7.62l-.69-.33a1.17,1.17,0,0,0-.76,0l-.93.29a.93.93,0,0,1-.73-.11l-1.05-.76a.62.62,0,0,0-.67,0l-1,.76a.91.91,0,0,1-.72.11l-.94-.29a1.17,1.17,0,0,0-.76,0l-.69.33a.26.26,0,0,0-.07.46l2,1.94.12,0h4.81a.42.42,0,0,1,.15,0l2-1.95A.27.27,0,0,0,22.48,7.62Z"/><path class="cls-2" d="M20.39,11.37H15.58a.69.69,0,1,1,0-1.38h4.81a.69.69,0,0,1,0,1.38Z"/><path class="cls-1" d="M17.88,18.56l-.73,2.21.8,2.68H16.64l-.52-2.1v2.1H14.85V18.56h1.27v1.9l.57-1.9Z"/><path class="cls-1" d="M18.17,18.56h.95a6.56,6.56,0,0,1,1.25.08.94.94,0,0,1,.49.28.85.85,0,0,1,.22.43,8.28,8.28,0,0,1,0,.93V22a4.1,4.1,0,0,1-.06.88.78.78,0,0,1-.22.35.89.89,0,0,1-.38.17,3.7,3.7,0,0,1-.68.05H18.17Zm1.27.83v3.22c.19,0,.3,0,.34-.11a1.39,1.39,0,0,0,.07-.6V20a3.08,3.08,0,0,0,0-.42.22.22,0,0,0-.1-.14A.62.62,0,0,0,19.44,19.39Z"/></g></g></svg>