<svg xmlns="http://www.w3.org/2000/svg" viewBox="0 0 35.97 36.65"><defs><style>.cls-1,.cls-2{fill:#004a98;}.cls-2{stroke:#004a98;stroke-miterlimit:10;stroke-width:0.5px;}</style></defs><g id="Layer_2" data-name="Layer 2"><g id="Layer_1-2" data-name="Layer 1"><polygon class="cls-1" points="23.51 2.95 33.02 2.95 33.02 11.72 35.97 14.44 35.97 0 20.31 0 23.51 2.95"/><polygon class="cls-1" points="12.46 33.7 2.95 33.7 2.95 15.88 0 13.16 0 36.65 15.66 36.65 12.46 33.7"/><polygon class="cls-1" points="12.42 36.65 35.97 36.65 35.97 18.45 33.02 15.73 33.02 33.7 9.22 33.7 12.42 36.65"/><polygon class="cls-1" points="2.95 20.64 2.95 2.95 19.15 2.95 15.95 0 0 0 0 17.92 2.95 20.64"/><path class="cls-2" d="M29.42,12.63H27.53v-1.9a.5.5,0,0,0-.5-.5H6.55a.5.5,0,0,0-.5.5v12.8a.5.5,0,0,0,.5.5H8.44v1.89a.5.5,0,0,0,.5.5H29.42a.5.5,0,0,0,.5-.5V13.12A.49.49,0,0,0,29.42,12.63ZM7.05,11.23H26.53V23H7.05ZM28.92,25.42H9.44V24H27a.51.51,0,0,0,.5-.5V13.62h1.39Z"/><path class="cls-2" d="M25,14.25a1.49,1.49,0,0,1-1.49-1.49.5.5,0,0,0-.5-.5H10.56a.49.49,0,0,0-.49.5,1.49,1.49,0,0,1-1.49,1.49.5.5,0,0,0-.5.5v4.76a.5.5,0,0,0,.5.5,1.49,1.49,0,0,1,1.49,1.49.5.5,0,0,0,.49.5H23a.5.5,0,0,0,.5-.5A1.49,1.49,0,0,1,25,20a.5.5,0,0,0,.5-.5V14.75A.5.5,0,0,0,25,14.25Zm-.5,4.81A2.48,2.48,0,0,0,22.57,21H11a2.49,2.49,0,0,0-1.94-1.94V15.19A2.48,2.48,0,0,0,11,13.25H22.57a2.47,2.47,0,0,0,1.93,1.94Z"/><path class="cls-1" d="M16.75,14.53,16,16.74l.8,2.69H15.5L15,17.33v2.1H13.72v-4.9H15v1.91l.57-1.91Z"/><path class="cls-1" d="M17,14.53H18a5.66,5.66,0,0,1,1.25.09,1,1,0,0,1,.49.28.91.91,0,0,1,.21.43,6.36,6.36,0,0,1,0,.93V18a4,4,0,0,1-.06.88.65.65,0,0,1-.21.35,1,1,0,0,1-.38.18,3.82,3.82,0,0,1-.69.05H17Zm1.27.84v3.22c.18,0,.3,0,.34-.11a1.68,1.68,0,0,0,.06-.6V16a3.4,3.4,0,0,0,0-.43.17.17,0,0,0-.1-.13A.58.58,0,0,0,18.31,15.37Z"/></g></g></svg>