<svg xmlns="http://www.w3.org/2000/svg" viewBox="0 0 35.97 36.65"><defs><style>.cls-1{fill:#004a98;}</style></defs><g id="Layer_2" data-name="Layer 2"><g id="Layer_1-2" data-name="Layer 1"><polygon class="cls-1" points="23.51 2.95 33.02 2.95 33.02 11.72 35.97 14.44 35.97 0 20.31 0 23.51 2.95"/><polygon class="cls-1" points="12.46 33.7 2.95 33.7 2.95 15.88 0 13.16 0 36.65 15.66 36.65 12.46 33.7"/><polygon class="cls-1" points="12.42 36.65 35.97 36.65 35.97 18.45 33.02 15.73 33.02 33.7 9.22 33.7 12.42 36.65"/><polygon class="cls-1" points="2.95 20.64 2.95 2.95 19.15 2.95 15.95 0 0 0 0 17.92 2.95 20.64"/><path class="cls-1" d="M16.8,21.49a4.88,4.88,0,0,0-2.72-3.93,7.39,7.39,0,0,1-3.22-3.13,7,7,0,0,1-3.22,3.13,4.73,4.73,0,0,0-2.72,3.93h0v9.9H6.65V21.51a3.28,3.28,0,0,1,1.86-2.44,14,14,0,0,0,2.34-1.7,13.56,13.56,0,0,0,2.34,1.7,3.3,3.3,0,0,1,1.86,2.44v9.88H16.8v-9.9Z"/><path class="cls-1" d="M12.94,19.52c-.39-.23-.75-.46-1.09-.7V31.39h1.74V20A4.15,4.15,0,0,0,12.94,19.52Z"/><path class="cls-1" d="M22,14v2.72a7.47,7.47,0,0,0,1.74-1.55V14h0A4.9,4.9,0,0,0,21,10.05a7.72,7.72,0,0,1-3.1-2.8V6.71l.06,0a1.33,1.33,0,0,0,1.34-1.3c0-.06,0-.11,0-.16a1.12,1.12,0,0,1-1.12.94,1.11,1.11,0,0,1-1.12-1.09,1.07,1.07,0,0,1,.56-.94,1.3,1.3,0,0,0-1,1.25,1.31,1.31,0,0,0,1.09,1.25l0,.55a7.67,7.67,0,0,1-3.11,2.82A4.93,4.93,0,0,0,11.85,14h0v1a7.79,7.79,0,0,0,1.74,1.62V14a3.27,3.27,0,0,1,1.85-2.45,12.25,12.25,0,0,0,2.34-1.7,12.69,12.69,0,0,0,2.35,1.7A3.29,3.29,0,0,1,22,14Z"/><path class="cls-1" d="M22.74,19.52a4.45,4.45,0,0,0-.74.55V31.39h1.74V18.89C23.42,19.1,23.1,19.31,22.74,19.52Z"/><path class="cls-1" d="M30.76,21.49A4.86,4.86,0,0,0,28,17.56a7.39,7.39,0,0,1-3.22-3.13,7,7,0,0,1-3.21,3.13,4.73,4.73,0,0,0-2.72,3.93h0v9.9h1.74V21.51a3.26,3.26,0,0,1,1.85-2.44,13.69,13.69,0,0,0,2.35-1.7,13.18,13.18,0,0,0,2.34,1.7A3.26,3.26,0,0,1,29,21.51v9.88h1.74v-9.9Z"/><rect class="cls-1" x="22.64" y="29.65" width="7.18" height="1.74"/><rect class="cls-1" x="15.46" y="29.65" width="4.21" height="1.74"/><rect class="cls-1" x="5.21" y="29.65" width="7.48" height="1.74"/></g></g></svg>