<svg xmlns="http://www.w3.org/2000/svg" viewBox="0 0 35.97 36.65"><defs><style>.cls-1,.cls-2{fill:#004a98;}.cls-2{stroke:#004a98;stroke-miterlimit:10;stroke-width:0.79px;}</style></defs><g id="Layer_2" data-name="Layer 2"><g id="Layer_1-2" data-name="Layer 1"><polygon class="cls-1" points="23.51 2.95 33.02 2.95 33.02 11.72 35.97 14.44 35.97 0 20.31 0 23.51 2.95"/><polygon class="cls-1" points="12.46 33.7 2.95 33.7 2.95 15.88 0 13.16 0 36.65 15.66 36.65 12.46 33.7"/><polygon class="cls-1" points="12.42 36.65 35.97 36.65 35.97 18.45 33.02 15.73 33.02 33.7 9.22 33.7 12.42 36.65"/><polygon class="cls-1" points="2.95 20.64 2.95 2.95 19.15 2.95 15.95 0 0 0 0 17.92 2.95 20.64"/><path class="cls-2" d="M6.58,18.1h4.58l1.12,1.12H7.14V20.9h5.14L11.16,22H6.58A.56.56,0,0,1,6,21.46V18.65a.55.55,0,0,1,.56-.55ZM26.5,15.34a1.78,1.78,0,0,1,1.77,1.77.56.56,0,0,1-1.12,0,.65.65,0,0,0-.65-.65,3.15,3.15,0,0,1-3.1-2.62,3.15,3.15,0,0,1-2.62-3.1.56.56,0,1,1,1.12,0,2,2,0,0,0,.59,1.43,2,2,0,0,0,1.43.59.56.56,0,0,1,.56.56,2,2,0,0,0,.59,1.43,2,2,0,0,0,1.43.59Zm-.1-1.9a.56.56,0,0,1-.56-.56,2,2,0,0,0-.59-1.43,2,2,0,0,0-1.43-.59.56.56,0,0,1,0-1.12,3.15,3.15,0,0,1,3.1,2.63,3.27,3.27,0,0,1,2,1.43,5.74,5.74,0,0,1,1,3.31.56.56,0,0,1-1.12,0,4.66,4.66,0,0,0-.77-2.67,2.1,2.1,0,0,0-1.66-1Zm-5,4.66H26a.56.56,0,0,1,.56.56v2.8A.56.56,0,0,1,26,22H21.44L20.32,20.9h5.15V19.22H20.32l1.12-1.12Zm7.39.56a.56.56,0,0,1,1.12,0v2.8a.56.56,0,0,1-1.12,0v-2.8Zm-1.68,0a.56.56,0,0,1,1.12,0v2.8a.56.56,0,0,1-1.12,0v-2.8Z"/><polygon class="cls-2" points="12.42 14.58 16.3 18.46 20.18 14.58 21.77 16.17 17.89 20.05 21.77 23.93 20.18 25.52 16.3 21.64 12.42 25.52 10.83 23.93 14.71 20.05 10.83 16.17 12.42 14.58 12.42 14.58"/></g></g></svg>