<svg xmlns="http://www.w3.org/2000/svg" viewBox="0 0 35.97 36.65"><defs><style>.cls-1,.cls-2{fill:#004a98;}.cls-2{stroke:#004a98;stroke-miterlimit:10;stroke-width:0.79px;}</style></defs><g id="Layer_2" data-name="Layer 2"><g id="Layer_1-2" data-name="Layer 1"><polygon class="cls-1" points="23.51 2.95 33.02 2.95 33.02 11.72 35.97 14.44 35.97 0 20.31 0 23.51 2.95"/><polygon class="cls-1" points="12.46 33.7 2.95 33.7 2.95 15.88 0 13.16 0 36.65 15.66 36.65 12.46 33.7"/><polygon class="cls-1" points="12.42 36.65 35.97 36.65 35.97 18.45 33.02 15.73 33.02 33.7 9.22 33.7 12.42 36.65"/><polygon class="cls-1" points="2.95 20.64 2.95 2.95 19.15 2.95 15.95 0 0 0 0 17.92 2.95 20.64"/><path class="cls-2" d="M20.61,10.36H6.91a.48.48,0,1,1,0-.95h13.7a.48.48,0,0,1,0,.95Z"/><path class="cls-2" d="M20.61,27.75H6.91a.47.47,0,0,1-.48-.48.48.48,0,0,1,.48-.48h13.7a.48.48,0,0,1,.47.48A.47.47,0,0,1,20.61,27.75Z"/><path class="cls-2" d="M19.41,30.54H8.1a1.67,1.67,0,0,1-1.67-1.67V8.29A1.68,1.68,0,0,1,8.1,6.61H19.41a1.68,1.68,0,0,1,1.67,1.68v4.92a.48.48,0,1,1-.95,0V8.29a.72.72,0,0,0-.72-.72H8.1a.71.71,0,0,0-.71.72V28.87a.71.71,0,0,0,.71.71H19.41a.71.71,0,0,0,.72-.71V23.94a.48.48,0,1,1,.95,0v4.93A1.67,1.67,0,0,1,19.41,30.54Z"/><path class="cls-2" d="M29,24.42H13.57a1.4,1.4,0,0,1-1.4-1.4V14.13a1.4,1.4,0,0,1,1.4-1.39H29a1.4,1.4,0,0,1,1.4,1.39V23A1.4,1.4,0,0,1,29,24.42ZM13.57,13.69a.44.44,0,0,0-.44.44V23a.44.44,0,0,0,.44.44H29A.44.44,0,0,0,29.4,23V14.13a.44.44,0,0,0-.44-.44Z"/><path class="cls-2" d="M29.88,18.37H12.65a.49.49,0,0,1-.48-.48V15.77a.48.48,0,0,1,.48-.48H29.88a.48.48,0,0,1,.48.48v2.12A.49.49,0,0,1,29.88,18.37Zm-16.75-1H29.4V16.24H13.13Z"/><path class="cls-2" d="M22.73,22.5H14.86a.48.48,0,0,1-.47-.48.47.47,0,0,1,.47-.48h7.87a.48.48,0,0,1,.48.48A.49.49,0,0,1,22.73,22.5Z"/><path class="cls-2" d="M18.81,20.67H14.88a.48.48,0,0,1-.48-.48.49.49,0,0,1,.48-.48h3.93a.48.48,0,0,1,.48.48A.47.47,0,0,1,18.81,20.67Z"/></g></g></svg>