<svg xmlns="http://www.w3.org/2000/svg" viewBox="0 0 35.97 36.65"><defs><style>.cls-1,.cls-2{fill:#004a98;}.cls-2{stroke:#004a98;stroke-miterlimit:10;}</style></defs><g id="Layer_2" data-name="Layer 2"><g id="Layer_1-2" data-name="Layer 1"><polygon class="cls-1" points="23.51 2.95 33.02 2.95 33.02 11.72 35.97 14.44 35.97 0 20.31 0 23.51 2.95"/><polygon class="cls-1" points="12.46 33.7 2.95 33.7 2.95 15.88 0 13.16 0 36.65 15.66 36.65 12.46 33.7"/><polygon class="cls-1" points="12.42 36.65 35.97 36.65 35.97 18.45 33.02 15.73 33.02 33.7 9.22 33.7 12.42 36.65"/><polygon class="cls-1" points="2.95 20.64 2.95 2.95 19.15 2.95 15.95 0 0 0 0 17.92 2.95 20.64"/><path class="cls-2" d="M29,25.66a3.39,3.39,0,0,0-1.48-2.34c-.44-.3-.89-.63-1.32-.95-1.74-1.3-3.71-2.76-5.28-1.19a1.85,1.85,0,0,1-2,.65c-.29-.23-1.45-1.22-2.66-2.42-1.53-1.52-1.69-2.2-.81-3.63,1.42-2.33.82-3.19-1.18-6l-.09-.12c-1-1.49-1.88-2.17-2.81-2.29A4,4,0,0,0,8.47,8.65C6.42,10.44,6,13.37,7.29,16.28a27,27,0,0,0,9.19,10.91c2.76,1.86,5.05,3,7.15,3a5.77,5.77,0,0,0,4-1.69A3.5,3.5,0,0,0,29,25.66Zm-2.23,2c-2.37,2.15-4.8,1.79-9.63-1.45a25.77,25.77,0,0,1-8.75-10.4c-1.1-2.44-.78-4.75.87-6.19a3.26,3.26,0,0,1,1.86-1h.12c.53.06,1.16.62,2,1.76l.09.13c2,2.83,2.14,3.06,1.14,4.69-1.33,2.19-.68,3.5,1,5.16,1.43,1.41,2.75,2.5,2.81,2.55a.41.41,0,0,0,.11.07,3,3,0,0,0,3.46-.86c.74-.74,1.73-.14,3.67,1.3.45.34.91.68,1.38,1h0a2.19,2.19,0,0,1,.93,1.41A2.44,2.44,0,0,1,26.79,27.62Z"/></g></g></svg>