<svg xmlns="http://www.w3.org/2000/svg" viewBox="0 0 35.97 36.65"><defs><style>.cls-1,.cls-2,.cls-3{fill:#004a98;}.cls-2,.cls-3{stroke:#004a98;stroke-miterlimit:10;}.cls-2{stroke-width:0.75px;}.cls-3{stroke-width:0.34px;}</style></defs><g id="Layer_2" data-name="Layer 2"><g id="Layer_1-2" data-name="Layer 1"><polygon class="cls-1" points="23.51 2.95 33.02 2.95 33.02 11.72 35.97 14.44 35.97 0 20.31 0 23.51 2.95"/><polygon class="cls-1" points="12.46 33.7 2.95 33.7 2.95 15.88 0 13.16 0 36.65 15.66 36.65 12.46 33.7"/><polygon class="cls-1" points="12.42 36.65 35.97 36.65 35.97 18.45 33.02 15.73 33.02 33.7 9.22 33.7 12.42 36.65"/><polygon class="cls-1" points="2.95 20.64 2.95 2.95 19.15 2.95 15.95 0 0 0 0 17.92 2.95 20.64"/><path class="cls-2" d="M17.63,27.47H11.68a2.93,2.93,0,0,1-3.17-2.6v-.09a10.93,10.93,0,0,1,2.15-6.54l.27-.37c2.21-.42,3-.79,3.45-2.84.34-1.5,1.34-1.61,3.39-1.69.64,0,1.85,0,2.25,0A1.67,1.67,0,0,1,21.56,15v0c0,1.92,2.1,2.5,4.18,2.9a11.14,11.14,0,0,1,2.05,5.71H29a12.17,12.17,0,0,0-1.62-5.39,3.74,3.74,0,0,0,.54,0,2.47,2.47,0,0,0,1.5-.46,3.29,3.29,0,0,0,1.09-2.8c0-3.93-2.06-5-7-6a30.61,30.61,0,0,0-13.9.81,5.23,5.23,0,0,0-3.94,5.22,3.52,3.52,0,0,0,1,2.66,3.33,3.33,0,0,0,2.66.41,12.16,12.16,0,0,0-2,6.63v.09a4.11,4.11,0,0,0,4.36,3.78h5.95ZM7.35,16.81C7,16.57,6.87,16,6.8,15a4.07,4.07,0,0,1,3.1-4,29.52,29.52,0,0,1,13.33-.78c4.94,1,6.07,1.91,6.07,4.84a2.37,2.37,0,0,1-.61,1.84,1.63,1.63,0,0,1-1.24.19h0l-.79-.15c-1.82-.34-3.88-.73-3.88-1.87V15a2.84,2.84,0,0,0-2.61-2.78c-.46,0-1.71-.07-2.41,0-1.93.07-3.93.15-4.5,2.6-.36,1.57-.6,1.61-3.49,2.12l-.17,0C8.4,17.12,7.7,17.08,7.35,16.81Z"/><path class="cls-3" d="M18.13,17a4.08,4.08,0,1,0,4.08,4.08A4.08,4.08,0,0,0,18.13,17Zm0,6.19a2.11,2.11,0,1,1,2.11-2.11A2.12,2.12,0,0,1,18.13,23.16Z"/><path class="cls-1" d="M22.7,30.55v1.08H19.22v-.91c1-1.68,1.64-2.73,1.84-3.13a2.42,2.42,0,0,0,.29-.93.66.66,0,0,0-.09-.39.32.32,0,0,0-.27-.13.28.28,0,0,0-.26.14,1.18,1.18,0,0,0-.09.56v.61H19.22v-.23a4.53,4.53,0,0,1,.06-.84,1.41,1.41,0,0,1,.26-.61,1.44,1.44,0,0,1,.56-.45,2.09,2.09,0,0,1,.83-.15,1.94,1.94,0,0,1,1.43.47,1.57,1.57,0,0,1,.48,1.18A2.82,2.82,0,0,1,22.57,28,24.55,24.55,0,0,1,21,30.55Z"/><path class="cls-1" d="M26.38,25.29v4.14h.45v1.08h-.45v1.12H24.8V30.51H22.92V29.43l1.37-4.14ZM24.8,29.43v-2.7l-.7,2.7Z"/><path class="cls-1" d="M28.74,25.29v1.43a1.53,1.53,0,0,1,.44-.29,1.44,1.44,0,0,1,.51-.09,1.19,1.19,0,0,1,.71.21.83.83,0,0,1,.35.49,5.3,5.3,0,0,1,.07,1v3.58H29.23V28a2.31,2.31,0,0,0,0-.58.19.19,0,0,0-.2-.13.2.2,0,0,0-.2.13,2,2,0,0,0-.05.53v3.71H27.16V25.29Z"/></g></g></svg>