<svg xmlns="http://www.w3.org/2000/svg" viewBox="0 0 35.97 36.65"><defs><style>.cls-1,.cls-2{fill:#004a98;}.cls-2{stroke:#004a98;stroke-miterlimit:10;stroke-width:0.5px;}</style></defs><g id="Layer_2" data-name="Layer 2"><g id="Layer_1-2" data-name="Layer 1"><polygon class="cls-1" points="23.51 2.95 33.02 2.95 33.02 11.72 35.97 14.44 35.97 0 20.31 0 23.51 2.95"/><polygon class="cls-1" points="12.46 33.7 2.95 33.7 2.95 15.88 0 13.16 0 36.65 15.66 36.65 12.46 33.7"/><polygon class="cls-1" points="12.42 36.65 35.97 36.65 35.97 18.45 33.02 15.73 33.02 33.7 9.22 33.7 12.42 36.65"/><polygon class="cls-1" points="2.95 20.64 2.95 2.95 19.15 2.95 15.95 0 0 0 0 17.92 2.95 20.64"/><path class="cls-2" d="M24.38,14.13H11.59a.6.6,0,0,1-.6-.61V7.37a.6.6,0,0,1,.6-.6H24.38a.6.6,0,0,1,.6.6v6.15A.6.6,0,0,1,24.38,14.13ZM12.19,12.92H23.78V8H12.19Z"/><path class="cls-2" d="M20.77,29.88H11.59a.6.6,0,0,1-.6-.6V19.13a.6.6,0,0,1,.6-.6H24.38a.6.6,0,0,1,.6.6v6.55a.6.6,0,0,1-.18.42l-3.6,3.61A.63.63,0,0,1,20.77,29.88Zm-8.58-1.2h8.33l3.26-3.25v-5.7H12.19Z"/><path class="cls-2" d="M28.49,24.07H24.38a.6.6,0,0,1-.6-.6V19.73H12.19v3.74a.6.6,0,0,1-.6.6H7.48a1.43,1.43,0,0,1-1.43-1.43V14.35a1.43,1.43,0,0,1,1.43-1.43h21a1.43,1.43,0,0,1,1.43,1.43v8.29A1.43,1.43,0,0,1,28.49,24.07ZM25,22.87h3.51a.23.23,0,0,0,.23-.23V14.35a.22.22,0,0,0-.23-.22h-21a.22.22,0,0,0-.23.22v8.29a.23.23,0,0,0,.23.23H11V19.13a.6.6,0,0,1,.6-.6H24.38a.6.6,0,0,1,.6.6Z"/><path class="cls-2" d="M25.92,19.73H10.05a.6.6,0,0,1,0-1.2H25.92a.6.6,0,1,1,0,1.2Z"/><path class="cls-2" d="M20.77,29.88a.58.58,0,0,1-.6-.6v-3.6a.6.6,0,0,1,.6-.6h3.61a.58.58,0,0,1,.55.37.6.6,0,0,1-.13.65l-3.6,3.61A.63.63,0,0,1,20.77,29.88Zm.6-3.6v1.55l1.55-1.55Z"/><path class="cls-2" d="M22,22.18H14A.6.6,0,1,1,14,21h8a.6.6,0,0,1,0,1.2Z"/><path class="cls-2" d="M22,24.31H14a.6.6,0,0,1,0-1.2h8a.6.6,0,1,1,0,1.2Z"/></g></g></svg>