<svg xmlns="http://www.w3.org/2000/svg" viewBox="0 0 35.97 36.65"><defs><style>.cls-1{fill:#004a98;}</style></defs><g id="Layer_2" data-name="Layer 2"><g id="Layer_1-2" data-name="Layer 1"><polygon class="cls-1" points="20.31 0 23.51 2.95 33.02 2.95 33.02 11.72 35.97 14.44 35.97 0 20.31 0"/><polygon class="cls-1" points="33.02 33.7 12.46 33.7 9.22 33.7 2.95 33.7 2.95 20.64 2.95 15.88 2.95 2.95 19.15 2.95 15.95 0 0 0 0 13.16 0 17.92 0 36.65 12.42 36.65 15.66 36.65 35.97 36.65 35.97 18.45 33.02 15.73 33.02 33.7"/><rect class="cls-1" x="10.17" y="27.48" width="4.3" height="4.3"/><polygon class="cls-1" points="14.97 17.19 25.22 17.19 25.22 6.09 10.38 6.09 10.38 9.59 21.47 9.59 21.47 13.73 10.38 13.73 10.38 25.5 14.97 25.5 14.97 17.19"/></g></g></svg>