<svg xmlns="http://www.w3.org/2000/svg" viewBox="0 0 35.97 36.65"><defs><style>.cls-1,.cls-2{fill:#004a98;}.cls-2,.cls-4{stroke:#004a98;stroke-miterlimit:10;}.cls-2{stroke-width:0.5px;}.cls-3{fill:#fff;}.cls-4{fill:none;stroke-width:0.79px;}</style></defs><g id="Layer_2" data-name="Layer 2"><g id="Layer_1-2" data-name="Layer 1"><polygon class="cls-1" points="23.51 2.95 33.02 2.95 33.02 11.72 35.97 14.44 35.97 0 20.31 0 23.51 2.95"/><polygon class="cls-1" points="12.46 33.7 2.95 33.7 2.95 15.88 0 13.16 0 36.65 15.66 36.65 12.46 33.7"/><polygon class="cls-1" points="12.42 36.65 35.97 36.65 35.97 18.45 33.02 15.73 33.02 33.7 9.22 33.7 12.42 36.65"/><polygon class="cls-1" points="2.95 20.64 2.95 2.95 19.15 2.95 15.95 0 0 0 0 17.92 2.95 20.64"/><polygon class="cls-2" points="29.7 30.04 12.75 30.04 12.75 26.74 13.69 26.74 13.69 29.1 28.76 29.1 28.76 11.87 25.27 8.38 13.69 8.38 13.69 13.56 12.75 13.56 12.75 7.43 25.66 7.43 29.7 11.48 29.7 30.04"/><polygon class="cls-2" points="29.23 12.14 24.99 12.14 24.99 7.91 25.93 7.91 25.93 11.2 29.23 11.2 29.23 12.14"/><path class="cls-2" d="M17.43,26.22H7.35A1.52,1.52,0,0,1,5.83,24.7V14.62A1.52,1.52,0,0,1,7.35,13.1H17.43A1.52,1.52,0,0,1,19,14.62V24.7A1.52,1.52,0,0,1,17.43,26.22ZM7.35,13.61a1,1,0,0,0-1,1V24.7a1,1,0,0,0,1,1H17.43a1,1,0,0,0,1-1V14.62a1,1,0,0,0-1-1Z"/><path class="cls-2" d="M12.39,26.22a.25.25,0,0,1-.25-.25V13.36a.26.26,0,0,1,.25-.26.26.26,0,0,1,.26.26V26A.26.26,0,0,1,12.39,26.22Z"/><path class="cls-2" d="M18.7,19.92H6.09a.26.26,0,0,1-.26-.26.26.26,0,0,1,.26-.25H18.7a.25.25,0,0,1,.25.25A.26.26,0,0,1,18.7,19.92Z"/><path class="cls-2" d="M9.18,18.23A.26.26,0,0,1,8.93,18V15.14a.26.26,0,0,1,.25-.26.26.26,0,0,1,.26.26V18A.26.26,0,0,1,9.18,18.23Z"/><path class="cls-2" d="M10.6,16.81H7.77a.26.26,0,0,1-.26-.26.26.26,0,0,1,.26-.25H10.6a.25.25,0,0,1,.25.25A.26.26,0,0,1,10.6,16.81Z"/><path class="cls-2" d="M8.18,24.08A.26.26,0,0,1,8,24a.25.25,0,0,1,0-.36l2-2a.25.25,0,0,1,.35.35l-2,2A.24.24,0,0,1,8.18,24.08Z"/><path class="cls-2" d="M10.19,24.08A.24.24,0,0,1,10,24L8,22a.24.24,0,0,1,0-.35.25.25,0,0,1,.36,0l2,2a.25.25,0,0,1,0,.36A.23.23,0,0,1,10.19,24.08Z"/><path class="cls-2" d="M16.87,16.81H14a.26.26,0,0,1-.25-.26A.25.25,0,0,1,14,16.3h2.83a.26.26,0,0,1,.26.25A.26.26,0,0,1,16.87,16.81Z"/><path class="cls-2" d="M14.51,24.11a.22.22,0,0,1-.17-.07.25.25,0,0,1,0-.36l2-2a.25.25,0,0,1,.36,0,.24.24,0,0,1,0,.35l-2,2A.24.24,0,0,1,14.51,24.11Z"/><path class="cls-2" d="M14.51,22.39a.51.51,0,1,1,.51-.5A.51.51,0,0,1,14.51,22.39Zm0-.51h0Z"/><path class="cls-2" d="M16.4,24.28a.5.5,0,0,1-.5-.51.5.5,0,0,1,1,0A.5.5,0,0,1,16.4,24.28Zm0-.51Z"/><circle class="cls-3" cx="26.62" cy="27.73" r="5.51"/><polyline class="cls-4" points="24.94 28.95 23.54 28.95 23.54 30.32"/><path class="cls-4" d="M29.24,27.29A3.11,3.11,0,0,1,23.54,29"/><polyline class="cls-4" points="27.35 25.63 28.74 25.63 28.74 24.26"/><path class="cls-4" d="M23.05,27.29a3.07,3.07,0,0,1,3.09-3.05"/></g></g></svg>