<svg xmlns="http://www.w3.org/2000/svg" viewBox="0 0 35.97 36.65"><defs><style>.cls-1{fill:#004a98;}.cls-2{fill:none;stroke:#004a98;stroke-linecap:round;stroke-linejoin:round;stroke-width:1.5px;}</style></defs><g id="Layer_2" data-name="Layer 2"><g id="Layer_1-2" data-name="Layer 1"><polygon class="cls-1" points="23.51 2.95 33.02 2.95 33.02 11.72 35.97 14.44 35.97 0 20.31 0 23.51 2.95"/><polygon class="cls-1" points="12.46 33.7 2.95 33.7 2.95 15.88 0 13.16 0 36.65 15.66 36.65 12.46 33.7"/><polygon class="cls-1" points="12.42 36.65 35.97 36.65 35.97 18.45 33.02 15.73 33.02 33.7 9.22 33.7 12.42 36.65"/><polygon class="cls-1" points="2.95 20.64 2.95 2.95 19.15 2.95 15.95 0 0 0 0 17.92 2.95 20.64"/><polyline class="cls-2" points="23.53 25.02 23.53 30 9.61 30 9.61 7.12 23.53 7.12 23.53 11.1"/><circle class="cls-2" cx="21.54" cy="18.06" r="5.97"/><line class="cls-2" x1="25.41" y1="22.94" x2="29.01" y2="26.52"/><line class="cls-2" x1="11.59" y1="11.1" x2="17.56" y2="11.1"/><line class="cls-2" x1="11.59" y1="13.09" x2="15.57" y2="13.09"/><line class="cls-2" x1="11.59" y1="15.08" x2="14.08" y2="15.08"/><line class="cls-2" x1="11.59" y1="17.07" x2="14.08" y2="17.07"/><line class="cls-2" x1="11.59" y1="19.06" x2="14.08" y2="19.06"/><line class="cls-2" x1="19.55" y1="20.55" x2="19.55" y2="19.06"/><line class="cls-2" x1="21.54" y1="20.55" x2="21.54" y2="15.08"/><line class="cls-2" x1="23.53" y1="20.55" x2="23.53" y2="17.07"/><line class="cls-2" x1="12.09" y1="25.52" x2="12.09" y2="27.51"/><line class="cls-2" x1="14.08" y1="23.53" x2="14.08" y2="27.51"/><line class="cls-2" x1="16.07" y1="25.03" x2="16.07" y2="27.51"/><line class="cls-2" x1="18.06" y1="26.52" x2="18.06" y2="27.51"/><line class="cls-2" x1="20.05" y1="25.52" x2="20.05" y2="27.51"/></g></g></svg>