<svg xmlns="http://www.w3.org/2000/svg" viewBox="0 0 35.97 36.65"><defs><style>.cls-1{fill:#004a98;}</style></defs><g id="Layer_2" data-name="Layer 2"><g id="Layer_1-2" data-name="Layer 1"><polygon class="cls-1" points="23.51 2.95 33.02 2.95 33.02 11.72 35.97 14.44 35.97 0 20.31 0 23.51 2.95"/><polygon class="cls-1" points="12.46 33.7 2.95 33.7 2.95 15.88 0 13.16 0 36.65 15.66 36.65 12.46 33.7"/><polygon class="cls-1" points="12.42 36.65 35.97 36.65 35.97 18.45 33.02 15.73 33.02 33.7 9.22 33.7 12.42 36.65"/><polygon class="cls-1" points="2.95 20.64 2.95 2.95 19.15 2.95 15.95 0 0 0 0 17.92 2.95 20.64"/><path class="cls-1" d="M28.7,11.13a1,1,0,0,0-1-1,3.29,3.29,0,0,1-3.28-3.28,1,1,0,0,0-1-1H12.55a1,1,0,0,0-1,1,3.29,3.29,0,0,1-3.28,3.28,1,1,0,0,0-1,1s0,5,0,9.17c0,2.61,1.78,5.18,5.27,7.62A21.69,21.69,0,0,0,18,30.81h0a1,1,0,0,0,.39-.08c.42-.18,10.31-4.36,10.33-10.43C28.71,16.13,28.7,11.18,28.7,11.13Zm-1.65,9.24c0,3.91-6.22,7.5-9.08,8.78-2.32-1-9-4.66-9-8.78,0-3.22,0-6.9,0-8.59a5.51,5.51,0,0,0,4.36-4.36H22.7a5.51,5.51,0,0,0,4.36,4.36C27.06,13.47,27.06,17.15,27.05,20.37Z"/><path class="cls-1" d="M17.8,24.69a20.5,20.5,0,0,1-2.47-1.53,6.67,6.67,0,0,1-2.26-2.28c0-2,0-4.1,0-5.81a1,1,0,0,0-1-1h0a1,1,0,0,0-1,1c0,1.74,0,3.92,0,5.92,0,.75.81,2.14,3.08,3.79a23.6,23.6,0,0,0,2.7,1.68,1,1,0,0,0,1.36-.41A1,1,0,0,0,17.8,24.69Z"/></g></g></svg>