<svg xmlns="http://www.w3.org/2000/svg" viewBox="0 0 35.92 36.6"><defs><style>.cls-1{fill:#004a98;}</style></defs><g id="Layer_2" data-name="Layer 2"><g id="Layer_1-2" data-name="Layer 1"><polygon class="cls-1" points="23.47 2.95 32.97 2.95 32.97 11.7 35.92 14.41 35.92 0 20.28 0 23.47 2.95"/><polygon class="cls-1" points="12.44 33.65 2.95 33.65 2.95 15.86 0 13.14 0 36.6 15.64 36.6 12.44 33.65"/><polygon class="cls-1" points="12.4 36.6 35.92 36.6 35.92 18.42 32.97 15.71 32.97 33.65 9.2 33.65 12.4 36.6"/><polygon class="cls-1" points="2.95 20.61 2.95 2.95 19.13 2.95 15.93 0 0 0 0 17.89 2.95 20.61"/><path class="cls-1" d="M18.05,29.89A11.35,11.35,0,1,1,29.4,18.55,11.36,11.36,0,0,1,18.05,29.89Zm0-20a8.65,8.65,0,1,0,8.65,8.65A8.65,8.65,0,0,0,18.05,9.9Z"/><path class="cls-1" d="M18.05,24.31a5.77,5.77,0,1,1,5.77-5.76A5.76,5.76,0,0,1,18.05,24.31Zm0-8.78a3,3,0,1,0,3,3A3,3,0,0,0,18.05,15.53Z"/><rect class="cls-1" x="23.1" y="8.32" width="3.37" height="3.31" transform="translate(1.87 23.7) rotate(-52.85)"/><rect class="cls-1" x="18.38" y="6.16" width="3.37" height="3.31" transform="translate(8.98 26.27) rotate(-80.27)"/><rect class="cls-1" x="13.24" y="6.38" width="3.31" height="3.37" transform="translate(-1.74 4.9) rotate(-17.66)"/><rect class="cls-1" x="8.76" y="8.98" width="3.31" height="3.37" transform="translate(-4.49 10.51) rotate(-45.09)"/><rect class="cls-1" x="5.98" y="13.35" width="3.31" height="3.37" transform="translate(-9.01 17.79) rotate(-72.48)"/><rect class="cls-1" x="5.49" y="18.55" width="3.37" height="3.31" transform="translate(-3.36 1.53) rotate(-9.88)"/><rect class="cls-1" x="7.47" y="23.34" width="3.37" height="3.31" transform="translate(-13.27 10.65) rotate(-37.29)"/><rect class="cls-1" x="11.42" y="26.69" width="3.37" height="3.31" transform="translate(-18.12 28.08) rotate(-64.71)"/><rect class="cls-1" x="16.51" y="27.81" width="3.31" height="3.37" transform="translate(-1.08 0.69) rotate(-2.12)"/><rect class="cls-1" x="21.52" y="26.5" width="3.31" height="3.37" transform="translate(-10.88 15.08) rotate(-29.52)"/><rect class="cls-1" x="25.37" y="23.03" width="3.31" height="3.37" transform="translate(-8.43 33.88) rotate(-56.93)"/><rect class="cls-1" x="27.2" y="18.18" width="3.31" height="3.37" transform="translate(6.24 46.61) rotate(-84.34)"/><rect class="cls-1" x="26.55" y="13.06" width="3.37" height="3.31" transform="translate(-3.44 11.5) rotate(-21.74)"/></g></g></svg>