<svg xmlns="http://www.w3.org/2000/svg" viewBox="0 0 35.6 36.28"><defs><style>.cls-1{fill:#004a98;}</style></defs><g id="Layer_2" data-name="Layer 2"><g id="Layer_1-2" data-name="Layer 1"><polygon class="cls-1" points="23.27 2.92 32.68 2.92 32.68 11.6 35.6 14.29 35.6 0 20.1 0 23.27 2.92"/><polygon class="cls-1" points="12.34 33.36 2.92 33.36 2.92 15.72 0 13.03 0 36.28 15.51 36.28 12.34 33.36"/><polygon class="cls-1" points="12.29 36.28 35.6 36.28 35.6 18.26 32.68 15.57 32.68 33.36 9.12 33.36 12.29 36.28"/><polygon class="cls-1" points="2.92 20.43 2.92 2.92 18.96 2.92 15.79 0 0 0 0 17.74 2.92 20.43"/><path class="cls-1" d="M25,14.29l.5,0a2.07,2.07,0,0,1,2.06,1.1,2,2,0,0,1-.35,2.33,7.6,7.6,0,0,1-1.27,1c-.67.45-.69.47-.28,1.16a6.81,6.81,0,0,0,2.65,2.43l.6.31a1.51,1.51,0,0,1,0,2.73c-.5.3-1.07.46-1.59.72a1.22,1.22,0,0,0-.55.47A1.89,1.89,0,0,1,25,27.65a4,4,0,0,1-.49,0,5.45,5.45,0,0,0-3,.87,6.26,6.26,0,0,1-6.93,0,5.51,5.51,0,0,0-3-.88,4,4,0,0,1-.85-.08,1.6,1.6,0,0,1-1.31-1A1,1,0,0,0,8.82,26a8.89,8.89,0,0,1-1.51-.67,1.53,1.53,0,0,1,.05-2.76,19.46,19.46,0,0,0,2.31-1.61,7.29,7.29,0,0,0,1-1.35c.23-.31.17-.56-.18-.77a9.45,9.45,0,0,1-1.31-.94,2.08,2.08,0,0,1-.57-2.49,2.1,2.1,0,0,1,2.3-1.11l.31,0c-.14-2.62.51-4.91,2.79-6.44a7.23,7.23,0,0,1,4.72-1.15,6.78,6.78,0,0,1,4.76,2.41C24.8,10.61,25,12.4,25,14.29Zm-1.92.5s0,.38,0,.38c0-.44,0-1.26,0-1.7a4.24,4.24,0,0,0-1.48-3.13,5.16,5.16,0,0,0-4.26-1.15,4.42,4.42,0,0,0-3.91,3.39,15.28,15.28,0,0,0-.12,2.95c0,.9,0,.93-.85.61a3.41,3.41,0,0,0-1.08-.26.58.58,0,0,0-.49.93,1.66,1.66,0,0,0,.48.47c.37.28.77.52,1.16.79.61.42.66.61.39,1.3A6.88,6.88,0,0,1,9.35,23,1.61,1.61,0,0,0,9,23.3c.11.11.21.28.36.34.47.2,1,.37,1.46.53s.65.3.67.74a.51.51,0,0,0,.57.53l.6,0a5.22,5.22,0,0,1,2.76.83,5.84,5.84,0,0,0,1.48.68,4.62,4.62,0,0,0,4-.71,4.51,4.51,0,0,1,2.09-.75c.42-.05.85-.06,1.28-.09.26,0,.46-.14.47-.43,0-.53.36-.72.8-.86A11.21,11.21,0,0,0,27,23.56c.34-.16.32-.34,0-.53l-.25-.13a6.63,6.63,0,0,1-3.4-3.66c-.21-.57-.14-.78.35-1.12s1-.64,1.45-1,.48-.62.31-.93a.72.72,0,0,0-.91-.29c-.36.09-.71.24-1.06.36s-.51.08-.49-.35S23,15.16,23,14.79Z"/></g></g></svg>