<svg xmlns="http://www.w3.org/2000/svg" viewBox="0 0 35.97 36.65"><defs><style>.cls-1{fill:#004a98;}</style></defs><g id="Layer_2" data-name="Layer 2"><g id="Layer_1-2" data-name="Layer 1"><polygon class="cls-1" points="20.31 0 23.51 2.95 33.02 2.95 33.02 11.72 35.97 14.44 35.97 0 20.31 0"/><polygon class="cls-1" points="33.02 33.7 12.46 33.7 9.22 33.7 2.95 33.7 2.95 20.64 2.95 15.88 2.95 2.95 19.15 2.95 15.95 0 0 0 0 13.16 0 17.92 0 36.65 12.42 36.65 15.66 36.65 35.97 36.65 35.97 18.45 33.02 15.73 33.02 33.7"/><path class="cls-1" d="M15.18,30.36c-.11,0-.45-.08-.77-.14a8.38,8.38,0,0,1-6.47-6.5,9.73,9.73,0,0,1,0-3.23,9.1,9.1,0,0,1,1.43-3.24,9.69,9.69,0,0,1,1.86-1.87,7.49,7.49,0,0,1,1.4-.81s0,.41.08.88.08,1,.1,1.21l0,.35-.32.21a7.63,7.63,0,0,0-1.42,1.47,6.54,6.54,0,0,0-.94,2.3,7.1,7.1,0,0,0,.11,2.72,6,6,0,0,0,3.16,3.79A5.91,5.91,0,0,0,20,26.64a6.34,6.34,0,0,0,1.92-3.15l.15-.63.73,1.49.72,1.48-.16.29a9,9,0,0,1-3.55,3.38,8.85,8.85,0,0,1-2,.72,12.89,12.89,0,0,1-2.61.14Zm10.3-2.71-1.7-3.95-1.66-3.89H18a32.21,32.21,0,0,1-4.16-.09s-.19-2.51-.39-5.49C13.18,10.55,13,8.69,13,8.46a3,3,0,0,1-.2-1.4,2.25,2.25,0,0,1,3.29-1.68,2.69,2.69,0,0,1,1,1.07A2.27,2.27,0,0,1,16.49,9a2.33,2.33,0,0,1-1,.52c-.21,0-.21,0-.21.3s0,1.13.11,2.19.12,2,.12,2,.17.1,2.9.1h2.89v1.05l0,1.05-5.54,0,0,.64a2.86,2.86,0,0,0,.08.69s1.76.05,3.87.06h3.83l1.59,3.67,1.62,3.77c0,.09.09.08.52-.08l1.25-.45.78-.27.33.8a3.16,3.16,0,0,1,.29.85s-1,.41-2.15.86l-2.16.84a.08.08,0,0,1-.1,0Z"/></g></g></svg>