<svg xmlns="http://www.w3.org/2000/svg" viewBox="0 0 35.97 36.65"><defs><style>.cls-1{fill:#004a98;}.cls-2{fill:none;stroke:#004a98;stroke-miterlimit:10;stroke-width:1.5px;}</style></defs><g id="Layer_2" data-name="Layer 2"><g id="Layer_1-2" data-name="Layer 1"><polygon class="cls-1" points="23.51 2.95 33.02 2.95 33.02 11.72 35.97 14.44 35.97 0 20.31 0 23.51 2.95"/><polygon class="cls-1" points="12.46 33.7 2.95 33.7 2.95 15.88 0 13.16 0 36.65 15.66 36.65 12.46 33.7"/><polygon class="cls-1" points="12.42 36.65 35.97 36.65 35.97 18.45 33.02 15.73 33.02 33.7 9.22 33.7 12.42 36.65"/><polygon class="cls-1" points="2.95 20.64 2.95 2.95 19.15 2.95 15.95 0 0 0 0 17.92 2.95 20.64"/><polyline class="cls-2" points="23.78 30.87 23.78 12.97 22.2 12.97 22.2 12.45 25.88 7.71 29.57 12.45 29.57 12.97 27.99 12.97 27.99 23.5"/><line class="cls-2" x1="25.88" y1="11.39" x2="25.88" y2="19.29"/><polyline class="cls-2" points="15.88 30.87 15.88 18.24 14.3 18.24 14.3 17.71 17.98 12.97 21.67 17.71 21.67 18.24 20.09 18.24 20.09 24.03"/><line class="cls-2" x1="17.98" y1="20.87" x2="17.98" y2="26.66"/><polyline class="cls-2" points="7.98 30.87 7.98 22.97 6.4 22.97 6.4 22.45 10.09 17.71 13.77 22.45 13.77 22.97 12.19 22.97 12.19 25.61"/><line class="cls-2" x1="10.09" y1="23.5" x2="10.09" y2="27.19"/><line class="cls-2" x1="10.09" y1="28.24" x2="10.09" y2="29.29"/><line class="cls-2" x1="17.98" y1="27.71" x2="17.98" y2="28.76"/><line class="cls-2" x1="25.88" y1="20.34" x2="25.88" y2="21.39"/></g></g></svg>