<svg xmlns="http://www.w3.org/2000/svg" viewBox="0 0 35.97 36.65"><defs><style>.cls-1,.cls-2{fill:#004a98;}.cls-2{stroke:#004a98;stroke-miterlimit:10;}</style></defs><g id="Layer_2" data-name="Layer 2"><g id="Layer_1-2" data-name="Layer 1"><polygon class="cls-1" points="23.51 2.95 33.02 2.95 33.02 11.72 35.97 14.44 35.97 0 20.31 0 23.51 2.95"/><polygon class="cls-1" points="12.46 33.7 2.95 33.7 2.95 15.88 0 13.16 0 36.65 15.66 36.65 12.46 33.7"/><polygon class="cls-1" points="12.42 36.65 35.97 36.65 35.97 18.45 33.02 15.73 33.02 33.7 9.22 33.7 12.42 36.65"/><polygon class="cls-1" points="2.95 20.64 2.95 2.95 19.15 2.95 15.95 0 0 0 0 17.92 2.95 20.64"/><path class="cls-2" d="M26,31.21H10a2,2,0,0,1-2-2V7.34a2,2,0,0,1,2-2H26a2,2,0,0,1,2,2V17a.5.5,0,0,1-.5.5A.5.5,0,0,1,27,17V7.34a1,1,0,0,0-1-1H10a1,1,0,0,0-1,1V29.18a1,1,0,0,0,1,1H26a1,1,0,0,0,1-1V18.8a.5.5,0,0,1,.5-.5.51.51,0,0,1,.5.5V29.18A2,2,0,0,1,26,31.21Z"/><path class="cls-2" d="M18.18,29.62h-.39a.5.5,0,1,1,0-1h.39a.5.5,0,1,1,0,1Z"/><path class="cls-2" d="M27.5,28.07h-19a.51.51,0,0,1-.5-.5.5.5,0,0,1,.5-.5h19a.5.5,0,0,1,.5.5A.51.51,0,0,1,27.5,28.07Z"/><path class="cls-2" d="M27.5,9.45h-19A.5.5,0,0,1,8,9a.51.51,0,0,1,.5-.5h19A.51.51,0,0,1,28,9,.5.5,0,0,1,27.5,9.45Z"/></g></g></svg>