<svg xmlns="http://www.w3.org/2000/svg" viewBox="0 0 35.92 36.6"><defs><style>.cls-1{fill:#004a98;}.cls-2{fill:none;stroke:#004a98;stroke-miterlimit:10;stroke-width:2.58px;}</style></defs><g id="Layer_2" data-name="Layer 2"><g id="Layer_1-2" data-name="Layer 1"><polygon class="cls-1" points="23.47 2.95 32.97 2.95 32.97 11.7 35.92 14.41 35.92 0 20.28 0 23.47 2.95"/><polygon class="cls-1" points="12.44 33.65 2.95 33.65 2.95 15.86 0 13.14 0 36.6 15.64 36.6 12.44 33.65"/><polygon class="cls-1" points="12.4 36.6 35.92 36.6 35.92 18.42 32.97 15.71 32.97 33.65 9.2 33.65 12.4 36.6"/><polygon class="cls-1" points="2.95 20.61 2.95 2.95 19.13 2.95 15.93 0 0 0 0 17.89 2.95 20.61"/><circle class="cls-2" cx="17.92" cy="18.46" r="10.2"/><polyline class="cls-2" points="17.3 12.15 17.3 19.18 22.4 23.6"/></g></g></svg>