<svg xmlns="http://www.w3.org/2000/svg" viewBox="0 0 35.97 36.65"><defs><style>.cls-1,.cls-2{fill:#004a98;}.cls-2,.cls-3{stroke:#004a98;}.cls-2{stroke-miterlimit:10;stroke-width:0.79px;fill-rule:evenodd;}.cls-3{fill:none;stroke-linecap:round;stroke-linejoin:round;stroke-width:1.57px;}</style></defs><g id="Layer_2" data-name="Layer 2"><g id="Layer_1-2" data-name="Layer 1"><polygon class="cls-1" points="23.51 2.95 33.02 2.95 33.02 11.72 35.97 14.44 35.97 0 20.31 0 23.51 2.95"/><polygon class="cls-1" points="12.46 33.7 2.95 33.7 2.95 15.88 0 13.16 0 36.65 15.66 36.65 12.46 33.7"/><polygon class="cls-1" points="12.42 36.65 35.97 36.65 35.97 18.45 33.02 15.73 33.02 33.7 9.22 33.7 12.42 36.65"/><polygon class="cls-1" points="2.95 20.64 2.95 2.95 19.15 2.95 15.95 0 0 0 0 17.92 2.95 20.64"/><polygon class="cls-2" points="19.85 20.19 18.22 25.29 17.42 25.29 19.05 20.19 16.18 22.27 16.51 21.23 19.98 18.55 21.73 21.23 21.39 22.27 19.85 20.19"/><polyline class="cls-3" points="23.46 16.27 23.46 7.64 14.68 7.64 11.16 11.18 11.16 16.27"/><polygon class="cls-3" points="14.68 11.18 14.68 7.64 11.16 11.18 14.68 11.18"/><line class="cls-3" x1="11.16" y1="11.18" x2="11.15" y2="11.19"/><line class="cls-3" x1="21.34" y1="10.25" x2="16.27" y2="10.25"/><line class="cls-3" x1="21.34" y1="12.53" x2="13.28" y2="12.53"/><line class="cls-3" x1="21.34" y1="14.8" x2="13.28" y2="14.8"/><path class="cls-3" d="M26.29,27.09a1.08,1.08,0,0,1-1,.83H9a.67.67,0,0,1-.69-.83l2-10a1.09,1.09,0,0,1,1-.84H27.62a.67.67,0,0,1,.68.84Z"/><path class="cls-3" d="M24.63,13.08h.79a.83.83,0,0,1,.85.84v2.35"/><path class="cls-3" d="M8.34,27.29V11.89a.85.85,0,0,1,.85-.84h.67"/></g></g></svg>