<svg xmlns="http://www.w3.org/2000/svg" viewBox="0 0 35.97 36.65"><defs><style>.cls-1{fill:#004a98;}</style></defs><g id="Layer_2" data-name="Layer 2"><g id="Layer_1-2" data-name="Layer 1"><polygon class="cls-1" points="20.31 0 23.51 2.95 33.02 2.95 33.02 11.72 35.97 14.44 35.97 0 20.31 0"/><polygon class="cls-1" points="33.02 33.7 12.46 33.7 9.22 33.7 2.95 33.7 2.95 20.64 2.95 15.88 2.95 2.95 19.15 2.95 15.95 0 0 0 0 13.16 0 17.92 0 36.65 12.42 36.65 15.66 36.65 35.97 36.65 35.97 18.45 33.02 15.73 33.02 33.7"/><path class="cls-1" d="M18,8.37a.82.82,0,0,0-.77.48L6.88,26.92a.88.88,0,0,0,.74,1.36H28.35a.88.88,0,0,0,.74-1.36L18.76,8.85A.82.82,0,0,0,18,8.37ZM26.41,26.3H9.56L18,11.6Z"/><path class="cls-1" d="M18,22.87a1,1,0,1,0,1,1A1,1,0,0,0,18,22.87Z"/><path class="cls-1" d="M17,17.2a.76.76,0,0,0,0,.15h0l.47,4.5a.52.52,0,0,0,1,0l.47-4.5h0a.76.76,0,0,0,0-.15,1,1,0,1,0-2,0Z"/></g></g></svg>