<svg xmlns="http://www.w3.org/2000/svg" viewBox="0 0 35.97 36.65"><defs><style>.cls-1,.cls-2{fill:#004a98;}.cls-2{stroke:#004a98;stroke-miterlimit:10;stroke-width:0.5px;}</style></defs><g id="Layer_2" data-name="Layer 2"><g id="Layer_1-2" data-name="Layer 1"><polygon class="cls-1" points="23.51 2.95 33.02 2.95 33.02 11.72 35.97 14.44 35.97 0 20.31 0 23.51 2.95"/><polygon class="cls-1" points="12.46 33.7 2.95 33.7 2.95 15.88 0 13.16 0 36.65 15.66 36.65 12.46 33.7"/><polygon class="cls-1" points="12.42 36.65 35.97 36.65 35.97 18.45 33.02 15.73 33.02 33.7 9.22 33.7 12.42 36.65"/><polygon class="cls-1" points="2.95 20.64 2.95 2.95 19.15 2.95 15.95 0 0 0 0 17.92 2.95 20.64"/><path class="cls-1" d="M25.59,24l-.73,6.34H22.8c-.19-1-.35-2.08-.5-3.33-.06.54-.21,1.64-.46,3.33h-2L19.06,24h1.6l.18,2.21L21,28.33c.07-1.11.22-2.56.46-4.35h1.71c0,.18.08.88.18,2.09l.18,2.41c.1-1.53.25-3,.46-4.5Z"/><path class="cls-1" d="M29.77,26.74H28.12v-1.1a2.23,2.23,0,0,0-.05-.6.24.24,0,0,0-.24-.12.24.24,0,0,0-.25.14,2.07,2.07,0,0,0-.06.63v2.94a2,2,0,0,0,.06.61.22.22,0,0,0,.24.14.23.23,0,0,0,.24-.14,2.26,2.26,0,0,0,.06-.67v-.79h1.65V28a5,5,0,0,1-.14,1.4,1.44,1.44,0,0,1-.62.72,2,2,0,0,1-1.17.31,2.47,2.47,0,0,1-1.19-.26,1.26,1.26,0,0,1-.62-.73,4.42,4.42,0,0,1-.16-1.39V26.21a8.2,8.2,0,0,1,.05-1,1.37,1.37,0,0,1,.28-.66,1.44,1.44,0,0,1,.65-.5,2.66,2.66,0,0,1,2.15.1,1.34,1.34,0,0,1,.62.7,4.17,4.17,0,0,1,.15,1.31Z"/><path class="cls-2" d="M17.61,19.54C17.26,18,16.46,14.93,16,13.27c-.1-.41-.19-.73-.23-.91-.23-.88-1.47-1.09-2.38-1.17a16.78,16.78,0,0,0-1.73,0,14.42,14.42,0,0,0-1.67.08c-.88.09-2.07.32-2.28,1.18h0c-.24,1-1.3,5-1.9,7.11a.6.6,0,0,0,.42.74l.17,0A.6.6,0,0,0,7,19.85c.59-2.12,1.64-6,1.9-7.1a2.88,2.88,0,0,1,1.43-.34,11.69,11.69,0,0,1,1.35-.05h0s.67,0,1.4,0a3,3,0,0,1,1.51.33l.23.87c.42,1.65,1.22,4.73,1.57,6.24a.61.61,0,0,0,1.18-.27Z"/><path class="cls-2" d="M15.84,19.49a.61.61,0,0,0-1.18.31l.75,2.84H14.08a.6.6,0,0,0-.6.6v7.44H12.32V23.25a.61.61,0,1,0-1.21,0v7.44H10V23.25a.6.6,0,0,0-.61-.6H8.08l.7-2.9A.62.62,0,0,0,8.33,19a.6.6,0,0,0-.73.45l-.73,3a.59.59,0,0,0,0,.14,1.24,1.24,0,0,0,1.24,1.23h.7v6.82a1.18,1.18,0,0,0,1.1,1.23H11.5l.12,0h.22l.14,0h1.61a1.17,1.17,0,0,0,1.1-1.23V23.85h.71a1.23,1.23,0,0,0,1.23-1.23.39.39,0,0,0,0-.15Z"/><path class="cls-2" d="M14.35,6a3.12,3.12,0,0,0-3.27-1.41A3.07,3.07,0,0,0,8.65,7.49a.22.22,0,0,0,0,.08,3.11,3.11,0,0,0,2,2.87A3.06,3.06,0,0,0,14.35,6ZM13.19,8.7A1.86,1.86,0,0,1,12,9.39,1.85,1.85,0,0,1,9.91,8a1.27,1.27,0,0,1-.05-.44,1.82,1.82,0,0,1,.5-1.27,1.86,1.86,0,0,1,3,.35,3,3,0,0,1,.13.28l.06.19a1.27,1.27,0,0,0,0,.18A1.86,1.86,0,0,1,13.19,8.7Z"/></g></g></svg>