<svg xmlns="http://www.w3.org/2000/svg" viewBox="0 0 35.97 36.65"><defs><style>.cls-1,.cls-2{fill:#004a98;}.cls-2{stroke:#004a98;stroke-miterlimit:10;stroke-width:0.5px;}</style></defs><g id="Layer_2" data-name="Layer 2"><g id="Layer_1-2" data-name="Layer 1"><path class="cls-1" d="M26,24l-.74,6.34H23.22c-.19-1-.36-2.08-.5-3.33-.07.54-.22,1.64-.46,3.33H20.21L19.47,24h1.6l.18,2.21.17,2.14q.09-1.66.45-4.35h1.71c0,.18.09.88.18,2.09L24,28.48c.09-1.53.24-3,.46-4.5Z"/><path class="cls-1" d="M30.18,26.74H28.53v-1.1a1.86,1.86,0,0,0-.05-.6.23.23,0,0,0-.23-.12.25.25,0,0,0-.26.14,2.07,2.07,0,0,0-.06.63v2.94a2,2,0,0,0,.06.61.24.24,0,0,0,.24.14.24.24,0,0,0,.25-.14,2.88,2.88,0,0,0,.05-.67v-.79h1.65V28a5,5,0,0,1-.14,1.4,1.47,1.47,0,0,1-.61.72,2.1,2.1,0,0,1-1.18.31,2.47,2.47,0,0,1-1.19-.26,1.3,1.3,0,0,1-.62-.73,4.81,4.81,0,0,1-.15-1.39V26.21a8.66,8.66,0,0,1,0-1,1.47,1.47,0,0,1,.28-.66,1.5,1.5,0,0,1,.65-.5,2.66,2.66,0,0,1,2.15.1,1.3,1.3,0,0,1,.62.7,4.17,4.17,0,0,1,.15,1.31Z"/><polygon class="cls-1" points="23.51 2.95 33.02 2.95 33.02 11.72 35.97 14.44 35.97 0 20.31 0 23.51 2.95"/><polygon class="cls-1" points="12.46 33.7 2.95 33.7 2.95 15.88 0 13.16 0 36.65 15.66 36.65 12.46 33.7"/><polygon class="cls-1" points="12.42 36.65 35.97 36.65 35.97 18.45 33.02 15.73 33.02 33.7 9.22 33.7 12.42 36.65"/><polygon class="cls-1" points="2.95 20.64 2.95 2.95 19.15 2.95 15.95 0 0 0 0 17.92 2.95 20.64"/><path class="cls-2" d="M10.17,10.44A3.08,3.08,0,0,0,13.85,6a3.13,3.13,0,0,0-3.29-1.41A3.09,3.09,0,0,0,8.11,7.47v.08A3.12,3.12,0,0,0,10.17,10.44ZM9.83,6.27A1.88,1.88,0,0,1,12.7,8.69,1.9,1.9,0,0,1,9.37,8a1.64,1.64,0,0,1,0-.45A1.88,1.88,0,0,1,9.83,6.27Zm3.88,13.39a.61.61,0,0,0-.61.6V30.72H11.81v-8.4a.61.61,0,0,0-1.21,0v8.4H9.3V20.26a.61.61,0,0,0-1.21,0V31.33a.6.6,0,0,0,.61.6h5a.61.61,0,0,0,.61-.6V20.26A.61.61,0,0,0,13.71,19.66Zm.16-8.12H8.54a2.12,2.12,0,0,0-2.12,2.11v7.57a.61.61,0,1,0,1.21,0V13.65a.9.9,0,0,1,.91-.9h5.33a.9.9,0,0,1,.91.9v7.57a.61.61,0,1,0,1.21,0V13.65A2.12,2.12,0,0,0,13.87,11.54Z"/></g></g></svg>