<svg xmlns="http://www.w3.org/2000/svg" viewBox="0 0 35.92 36.6"><defs><style>.cls-1{fill:none;stroke:#004a98;stroke-miterlimit:10;stroke-width:2px;}.cls-2{fill:#004a98;}</style></defs><g id="Layer_2" data-name="Layer 2"><g id="Layer_1-2" data-name="Layer 1"><circle class="cls-1" cx="17.99" cy="18.3" r="9.94"/><line class="cls-1" x1="8.05" y1="18.3" x2="27.93" y2="18.3"/><path class="cls-1" d="M18,8.35a13.28,13.28,0,0,0-3.45,9.3"/><path class="cls-1" d="M17.71,8.35a13.24,13.24,0,0,1,3.44,9.3"/><path class="cls-1" d="M17.71,28.08a13.24,13.24,0,0,0,3.44-9.3"/><path class="cls-1" d="M18,28.08a13.28,13.28,0,0,1-3.45-9.3"/><polygon class="cls-2" points="23.47 2.95 32.97 2.95 32.97 11.7 35.92 14.41 35.92 0 20.28 0 23.47 2.95"/><polygon class="cls-2" points="12.44 33.65 2.95 33.65 2.95 15.86 0 13.14 0 36.6 15.64 36.6 12.44 33.65"/><polygon class="cls-2" points="12.4 36.6 35.92 36.6 35.92 18.42 32.97 15.71 32.97 33.65 9.2 33.65 12.4 36.6"/><polygon class="cls-2" points="2.95 20.61 2.95 2.95 19.13 2.95 15.93 0 0 0 0 17.89 2.95 20.61"/></g></g></svg>