<svg xmlns="http://www.w3.org/2000/svg" viewBox="0 0 35.6 36.28"><defs><style>.cls-1{fill:#004a98;}.cls-2,.cls-3{fill:none;stroke:#004a98;stroke-miterlimit:10;}.cls-2{stroke-width:1.41px;}.cls-3{stroke-width:2px;}</style></defs><g id="Layer_2" data-name="Layer 2"><g id="Layer_1-2" data-name="Layer 1"><polygon class="cls-1" points="23.27 2.92 32.68 2.92 32.68 11.6 35.6 14.29 35.6 0 20.1 0 23.27 2.92"/><polygon class="cls-1" points="12.34 33.36 2.92 33.36 2.92 15.72 0 13.03 0 36.28 15.51 36.28 12.34 33.36"/><polygon class="cls-1" points="12.29 36.28 35.6 36.28 35.6 18.26 32.68 15.57 32.68 33.36 9.12 33.36 12.29 36.28"/><polygon class="cls-1" points="2.92 20.43 2.92 2.92 18.96 2.92 15.79 0 0 0 0 17.74 2.92 20.43"/><line class="cls-2" x1="13.29" y1="14" x2="21.44" y2="22.15"/><line class="cls-2" x1="14.41" y1="12.51" x2="16.46" y2="14.56"/><line class="cls-2" x1="21.12" y1="19.23" x2="23.18" y2="21.28"/><path class="cls-3" d="M18.08,8.43a9.43,9.43,0,0,0-8,14.37L7.86,29.27l7.23-2.5a9.28,9.28,0,0,0,3,.49,9.42,9.42,0,1,0,0-18.83Z"/></g></g></svg>